<?xml version="1.0" encoding="UTF-8"?>
<svg width="1025px" height="259px" viewBox="0 0 1025 259" version="1.1" xmlns="http://www.w3.org/2000/svg" xmlns:xlink="http://www.w3.org/1999/xlink">
    <title>saltopiaHEADER</title>
    <defs>
        <polygon id="path-1" points="1024 0 476 35.2395807 477 230.960631 1024 258.989923"></polygon>
    </defs>
    <g id="Web" stroke="none" stroke-width="1" fill="none" fill-rule="evenodd">
        <g id="Artboard" transform="translate(-3957.000000, -4239.000000)">
            <g id="saltopiaHEADER" transform="translate(4469.500000, 4368.500000) scale(-1, 1) translate(-4469.500000, -4368.500000) translate(3957.000000, 4239.000000)">
                <polygon id="background" fill="#58624A" points="0 209.720978 1024.08668 259 1024 0 -5.70654635e-14 49.953779"></polygon>
                <mask id="mask-2" fill="white">
                    <use xlink:href="#path-1"></use>
                </mask>
                <use id="Mask" xlink:href="#path-1"></use>
                <g id="Group-3" mask="url(#mask-2)">
                    <g transform="translate(921.000000, 173.000000) scale(-1, 1) rotate(-4.000000) translate(-921.000000, -173.000000) translate(807.000000, 105.000000)" id="bug4-6">
                        <g transform="translate(0.000000, 24.000000)">
                            <path d="M94.9508197,56.3880449 C94.9508197,56.3880449 91.6895484,7.49603339 58.2361273,0.499692535 C24.7770639,-6.49115669 78.5372589,62.2805674 94.9508197,56.3880449 Z" id="Stroke-83" stroke="#231F20"></path>
                            <path d="M87.5327869,62.3623642 C87.5327869,62.3623642 18.5475175,67.147522 12.241122,41.7109194 C5.93472655,16.2743167 81.762156,43.3920426 87.5327869,62.3623642 Z" id="Stroke-85" stroke="#231F20"></path>
                            <path d="M71.1064945,89.3253975 C71.1064945,89.3253975 13.728519,118.59986 2.03855195,105.841602 C-9.65699765,93.0888628 31.2076434,74.4315663 67.5727079,72.7595282 C67.5727079,72.7595282 77.889355,49.0805992 105.528814,58.5113355 C105.528814,58.5113355 109.347313,44.4507643 128.166262,50.5926072 C128.166262,50.5926072 140.420072,35.478045 152.137952,48.7881305 C163.347815,61.5463882 147.409488,73.3996484 147.409488,73.3996484 C147.409488,73.3996484 179.682506,103.832949 181,112 C181,112 143.043894,80.2367943 138.762039,78.1729585 C138.762039,78.1729585 132.632343,87.4712562 124.023972,87.1567144 C115.415601,86.8421726 110.614564,82.3558129 110.614564,82.3558129 C110.614564,82.3558129 98.9134313,99.5673206 71.1064945,89.3253975" id="Fill-87" fill="#010202"></path>
                            <path d="M133.283938,62.6519711 C132.019675,56.5934696 126.11062,52.7259878 120.102623,54.0040826 C114.08913,55.2821775 110.24687,61.2189557 111.511133,67.2719243 C112.780892,73.324893 118.68445,77.1979076 124.697944,75.9142799 C130.705941,74.641718 134.5482,68.7049397 133.283938,62.6519711" id="Fill-89" fill="#FEFEFE"></path>
                            <path d="M130.192282,65.1531297 C129.883692,63.7135564 128.477233,62.7876897 127.041102,63.0863564 C125.610905,63.3969697 124.685135,64.8126497 124.98779,66.2641697 C125.29638,67.703743 126.70284,68.6296097 128.138971,68.3249697 C129.575102,68.0143564 130.494938,66.5986764 130.192282,65.1531297" id="Fill-91" fill="#010202"></path>
                            <path d="M130.557377,52.6809177 C130.557377,52.6809177 140.012373,56.9931733 137.775103,70.1433068 C137.775103,70.1433068 150.355531,71.3112093 152.547831,61.5244106 C153.469721,57.4030622 151.907005,53.1188812 148.90524,50.1485906 C144.992828,46.2799134 138.303503,42.9053488 130.557377,52.6809177" id="Fill-93" fill="#FEFEFE"></path>
                            <path d="M149.477207,57.6903173 C149.168617,56.2447707 147.762158,55.318904 146.326026,55.623544 C144.89583,55.928184 143.970059,57.343864 144.278649,58.795384 C144.581305,60.2409307 145.987764,61.160824 147.423895,60.856184 C148.860026,60.551544 149.779863,59.1298907 149.477207,57.6903173" id="Fill-95" fill="#010202"></path>
                        </g>
                        <g transform="translate(174.000000, 71.000000)">
                            <path d="M28.5,16.395725 C28.5,16.395725 27.5726323,2.17959148 18.0598933,0.145293588 C8.54554977,-1.88740752 23.832677,18.1090701 28.5,16.395725 Z" id="Stroke-83" stroke="#231F20"></path>
                            <path d="M25.5,17.8973622 C25.5,17.8973622 4.98601836,19.2706536 3.11070089,11.9706082 C1.23538342,4.67056283 23.7840015,12.4530734 25.5,17.8973622 Z" id="Stroke-85" stroke="#231F20"></path>
                            <path d="M21.2140923,26.5633528 C21.2140923,26.5633528 4.09580123,34.8735045 0.60818677,31.2518135 C-2.88109322,27.631689 9.31056766,22.3354359 20.1598134,21.8607939 C20.1598134,21.8607939 23.2377081,15.1390482 31.4837345,17.8161545 C31.4837345,17.8161545 32.6229553,13.8247754 38.2374483,15.5682624 C38.2374483,15.5682624 41.893281,11.2776865 45.3892231,15.056025 C48.7336022,18.677716 43.9785214,22.042505 43.9785214,22.042505 C43.9785214,22.042505 53.6069355,30.6816165 54,33 C54,33 42.6760789,23.983368 41.3986194,23.3975062 C41.3986194,23.3975062 39.5698702,26.0370171 37.0016269,25.947728 C34.4333836,25.8584389 33.00103,24.5848945 33.00103,24.5848945 C33.00103,24.5848945 29.5100845,29.4707311 21.2140923,26.5633528" id="Fill-87" fill="#010202"></path>
                            <path d="M38.9351169,18.881778 C38.5942548,17.2589651 37.0010954,16.2230324 35.3812598,16.5653793 C33.7599421,16.9077261 32.724018,18.4979346 33.06488,20.1192654 C33.407224,21.7405963 34.9989015,22.778011 36.6202191,22.4341821 C38.2400547,22.0933173 39.2759789,20.5031089 38.9351169,18.881778" id="Fill-89" fill="#FEFEFE"></path>
                            <path d="M38.9077177,18.610998 C38.8297177,18.249498 38.4742177,18.016998 38.1112177,18.091998 C37.7497177,18.169998 37.5157177,18.525498 37.5922177,18.889998 C37.6702177,19.251498 38.0257177,19.483998 38.3887177,19.407498 C38.7517177,19.329498 38.9842177,18.973998 38.9077177,18.610998" id="Fill-91" fill="#010202"></path>
                            <path d="M39,15.5050314 C39,15.5050314 41.5491922,16.8586272 40.9459945,20.9863895 C40.9459945,20.9863895 44.3378448,21.3529884 44.9289179,18.2809604 C45.1774717,16.9872893 44.7561427,15.642506 43.9468272,14.7101463 C42.891989,13.4957875 41.0884583,12.4365283 39,15.5050314" id="Fill-93" fill="#FEFEFE"></path>
                            <path d="M44.9072222,17.1119659 C44.8292222,16.7489659 44.4737222,16.5164659 44.1107222,16.5929659 C43.7492222,16.6694659 43.5152222,17.0249659 43.5932222,17.3894659 C43.6697222,17.7524659 44.0252222,17.9834659 44.3882222,17.9069659 C44.7512222,17.8304659 44.9837222,17.4734659 44.9072222,17.1119659" id="Fill-95" fill="#010202"></path>
                        </g>
                        <g transform="translate(114.000000, 0.000000)">
                            <path d="M47.483871,27.8230485 C47.483871,27.8230485 45.8529447,3.69870069 29.1232531,0.246558817 C12.3907399,-3.20287336 39.275628,30.7305431 47.483871,27.8230485 Z" id="Stroke-83" stroke="#231F20"></path>
                            <path d="M44.516129,30.7625003 C44.516129,30.7625003 9.34090031,33.2360311 6.12530218,20.0874113 C2.90970405,6.93879152 41.5737145,20.956413 44.516129,30.7625003 Z" id="Stroke-85" stroke="#231F20"></path>
                            <path d="M36.1425276,44.8118738 C36.1425276,44.8118738 6.97803173,59.2565099 1.03617005,52.9613169 C-4.90852919,46.6688468 15.8624486,37.4629439 34.3463488,36.6379251 C34.3463488,36.6379251 39.5901694,24.954243 53.6389551,29.6075669 C53.6389551,29.6075669 55.5798497,22.669785 65.1452823,25.7002996 C65.1452823,25.7002996 71.373738,18.2424564 77.3297875,24.8099328 C83.0276186,31.1051258 74.9263698,36.9537739 74.9263698,36.9537739 C74.9263698,36.9537739 91.3303346,51.9702052 92,56 C92,56 72.7073937,40.3273656 70.5309811,39.3090256 C70.5309811,39.3090256 67.4153345,43.8970014 63.0398088,43.7417999 C58.6642832,43.5865983 56.223977,41.372934 56.223977,41.372934 C56.223977,41.372934 50.2764402,49.8654543 36.1425276,44.8118738" id="Fill-87" fill="#010202"></path>
                            <path d="M68.1296936,31.2063006 C67.4552999,28.0176156 64.3032425,25.9820988 61.0984064,26.6547803 C57.8906382,27.3274618 55.8410678,30.4520819 56.5154615,33.6378549 C57.1927873,36.8236279 60.3419126,38.8620567 63.5496808,38.1864631 C66.7545169,37.5166937 68.8040872,34.3920735 68.1296936,31.2063006" id="Fill-89" fill="#FEFEFE"></path>
                            <path d="M66.5916136,32.1479258 C66.437291,31.43761 65.7339361,30.9807679 65.0157426,31.1281364 C64.3005168,31.2813995 63.837549,31.9799258 63.9889039,32.6961364 C64.1432265,33.4064521 64.8465813,33.8632943 65.5647748,33.7129785 C66.2829684,33.5597153 66.7429684,32.861189 66.5916136,32.1479258" id="Fill-91" fill="#010202"></path>
                            <path d="M66.7741935,26.730716 C66.7741935,26.730716 71.8177566,28.8584737 70.6243332,35.3470264 C70.6243332,35.3470264 77.3350908,35.9232941 78.5045257,31.0942815 C78.9962881,29.0607215 78.1626909,26.9468164 76.5614646,25.4812125 C74.4744729,23.5723257 70.9061971,21.9072445 66.7741935,26.730716" id="Fill-93" fill="#FEFEFE"></path>
                            <path d="M75.4938589,29.2024592 C75.3395363,28.4891961 74.6361815,28.032354 73.9179879,28.1826697 C73.2027621,28.3329855 72.7397944,29.0315118 72.8941169,29.7477224 C73.0454718,30.4609855 73.7488266,30.9148803 74.4670202,30.7645645 C75.1852137,30.6142487 75.6452137,29.912775 75.4938589,29.2024592" id="Fill-95" fill="#010202"></path>
                        </g>
                    </g>
                </g>
            </g>
        </g>
    </g>
</svg>