<?xml version="1.0" encoding="UTF-8"?>
<svg width="319px" height="81px" viewBox="0 0 319 81" version="1.1" xmlns="http://www.w3.org/2000/svg" xmlns:xlink="http://www.w3.org/1999/xlink">
    <title>saltopiaHEADER</title>
    <defs>
        <polygon id="path-1" points="319 0 148 11.0213015 148.312044 72.2337413 319 81"></polygon>
    </defs>
    <g id="Branding" stroke="none" stroke-width="1" fill="none" fill-rule="evenodd">
        <g id="Mobile" transform="translate(0.000000, -1565.000000)">
            <g id="saltopiaHEADER" transform="translate(159.500000, 1605.500000) scale(-1, 1) translate(-159.500000, -1605.500000) translate(0.000000, 1565.000000)">
                <polygon id="background" fill="#58624A" points="0 65.5884139 319 81 318.973001 0 -1.77757247e-14 15.6226104"></polygon>
                <mask id="mask-2" fill="white">
                    <use xlink:href="#path-1"></use>
                </mask>
                <use id="Mask" xlink:href="#path-1"></use>
                <g id="Group-3" mask="url(#mask-2)">
                    <g transform="translate(286.633171, 54.104247) scale(-1, 1) rotate(-4.000000) translate(-286.633171, -54.104247) translate(251.154146, 32.837838)" id="bug4-6">
                        <g transform="translate(0.000000, 7.505792)">
                            <path d="M29.5505478,17.6348712 C29.5505478,17.6348712 28.5355765,2.34431932 18.1242191,0.156274499 C7.71110575,-2.03005286 24.4423274,19.4777064 29.5505478,17.6348712 Z" id="Stroke-83" stroke="#231F20"></path>
                            <path d="M27.2419112,19.5032876 C27.2419112,19.5032876 5.77234935,20.9998042 3.80967603,13.0447277 C1.8470027,5.08965117 25.4459783,13.5704844 27.2419112,19.5032876 Z" id="Stroke-85" stroke="#231F20"></path>
                            <path d="M22.1297285,27.9357421 C22.1297285,27.9357421 4.27258297,37.0910759 0.634437143,33.1010416 C-3.0054461,29.1127331 9.71242757,23.2778258 21.0299452,22.7549104 C21.0299452,22.7549104 24.2406871,15.349531 32.842626,18.2989119 C32.842626,18.2989119 34.0310174,13.9015904 39.8878415,15.8223984 C39.8878415,15.8223984 43.7014662,11.0954504 47.3482991,15.258064 C50.8370273,19.2480982 45.876709,22.9551024 45.876709,22.9551024 C45.876709,22.9551024 55.9207019,32.4728528 56.3307317,35.027027 C56.3307317,35.027027 44.518051,25.0933604 43.1854541,24.4479137 C43.1854541,24.4479137 41.277773,27.3558755 38.59868,27.2575053 C35.9195869,27.159135 34.4254105,25.756065 34.4254105,25.756065 C34.4254105,25.756065 30.7837898,31.1388146 22.1297285,27.9357421" id="Fill-87" fill="#010202"></path>
                            <path d="M41.480562,19.5938597 C41.0870988,17.699116 39.2480857,16.4895946 37.3782798,16.8893077 C35.5067633,17.2890207 34.3109771,19.1456966 34.7044403,21.0387099 C35.0996143,22.9317233 36.9369167,24.142975 38.8084332,23.7415316 C40.6782391,23.3435489 41.8740253,21.486873 41.480562,19.5938597" id="Fill-89" fill="#FEFEFE"></path>
                            <path d="M40.5183785,20.3760753 C40.4223393,19.9258613 39.9846218,19.6363045 39.5376697,19.7297099 C39.0925646,19.8268515 38.8044468,20.2695931 38.8986391,20.7235434 C38.9946784,21.1737575 39.4323959,21.4633142 39.8793479,21.3680407 C40.3263,21.2708991 40.6125709,20.8281575 40.5183785,20.3760753" id="Fill-91" fill="#010202"></path>
                            <path d="M40.6320032,16.4754994 C40.6320032,16.4754994 43.5745823,17.8241198 42.8783002,21.9367098 C42.8783002,21.9367098 46.793575,22.3019612 47.4758615,19.2412249 C47.7627717,17.952309 47.2764239,16.6124686 46.3422162,15.683536 C45.1245973,14.4736409 43.0427488,13.4182751 40.6320032,16.4754994" id="Fill-93" fill="#FEFEFE"></path>
                            <path d="M46.5202234,18.0421456 C46.4241841,17.5900634 45.9864666,17.3005067 45.5395146,17.3957802 C45.0944094,17.4910537 44.8062916,17.9337953 44.9023309,18.3877456 C44.9965233,18.8398277 45.4342407,19.1275164 45.8811928,19.0322429 C46.3281448,18.9369694 46.6144157,18.4923596 46.5202234,18.0421456" id="Fill-95" fill="#010202"></path>
                        </g>
                        <g transform="translate(54.152195, 22.204633)">
                            <path d="M8.8697561,5.12762055 C8.8697561,5.12762055 8.58114117,0.681648299 5.62059117,0.0454393076 C2.65954183,-0.590270305 7.41719412,5.66345434 8.8697561,5.12762055 Z" id="Stroke-83" stroke="#231F20"></path>
                            <path d="M7.93609756,5.59724454 C7.93609756,5.59724454 1.5517462,6.02672952 0.968110815,3.74370373 C0.384475427,1.46067795 7.40204536,3.89459053 7.93609756,5.59724454 Z" id="Stroke-85" stroke="#231F20"></path>
                            <path d="M6.60223945,8.30745784 C6.60223945,8.30745784 1.27469326,10.9063856 0.18927959,9.77373319 C-0.896652427,8.6415707 2.89763032,6.98521354 6.2741273,6.83677337 C6.2741273,6.83677337 7.23202819,4.7346058 9.79835249,5.57184756 C9.79835249,5.57184756 10.1529002,4.3235784 11.90024,4.86883883 C11.90024,4.86883883 13.0380065,3.52699847 14.1260119,4.70864102 C15.1668479,5.84129341 13.686974,6.89360195 13.686974,6.89360195 C13.686974,6.89360195 16.6835243,9.59540902 16.8058537,10.3204633 C16.8058537,10.3204633 13.2816285,7.50058998 12.8840581,7.3173668 C12.8840581,7.3173668 12.3149157,8.14285091 11.5156283,8.11492653 C10.7163408,8.08700214 10.2705645,7.68871217 10.2705645,7.68871217 C10.2705645,7.68871217 9.1841141,9.21671512 6.60223945,8.30745784" id="Fill-87" fill="#010202"></path>
                            <path d="M12.1173681,5.90511203 C12.0112852,5.39759139 11.5154629,5.07361246 11.0113384,5.18067846 C10.5067527,5.28774446 10.1843529,5.78506834 10.2904358,6.29212549 C10.39698,6.79918264 10.892341,7.12362505 11.3969267,7.01609557 C11.9010512,6.90949306 12.223451,6.41216918 12.1173681,5.90511203" id="Fill-89" fill="#FEFEFE"></path>
                            <path d="M12.1088409,5.82042794 C12.0845658,5.70737195 11.9739273,5.6346596 11.8609546,5.65811519 C11.7484487,5.68250902 11.6756234,5.79368855 11.6994317,5.90768276 C11.7237068,6.02073875 11.8343453,6.0934511 11.947318,6.06952639 C12.0602907,6.04513257 12.1326492,5.93395303 12.1088409,5.82042794" id="Fill-91" fill="#010202"></path>
                            <path d="M12.137561,4.84906387 C12.137561,4.84906387 12.9309193,5.27238921 12.7431924,6.56331102 C12.7431924,6.56331102 13.7988024,6.67796163 13.9827559,5.71721154 C14.0601107,5.31262716 13.9289849,4.89205785 13.6771101,4.60047047 C13.3488239,4.22069031 12.7875299,3.88941618 12.137561,4.84906387" id="Fill-93" fill="#FEFEFE"></path>
                            <path d="M13.9760038,5.35161866 C13.9517287,5.23809357 13.8410901,5.16538121 13.7281174,5.18930592 C13.6156116,5.21323063 13.5427862,5.32441017 13.5670613,5.43840438 C13.5908696,5.55192947 13.7015082,5.62417272 13.8144808,5.60024801 C13.9274535,5.5763233 13.9998121,5.46467465 13.9760038,5.35161866" id="Fill-95" fill="#010202"></path>
                        </g>
                        <g transform="translate(35.479024, 0.000000)">
                            <path d="M14.7779072,8.7014167 C14.7779072,8.7014167 14.2703311,1.15673651 9.06372463,0.077109128 C3.85624002,-1.00167082 12.2233418,9.6107104 14.7779072,8.7014167 Z" id="Stroke-83" stroke="#231F20"></path>
                            <path d="M13.854288,9.62070472 C13.854288,9.62070472 2.90707044,10.39428 1.90631356,6.28216339 C0.905556675,2.17004677 12.9385511,6.5539361 13.854288,9.62070472 Z" id="Stroke-85" stroke="#231F20"></path>
                            <path d="M11.2482598,14.0145242 C11.2482598,14.0145242 2.17169963,18.5319587 0.322476338,16.5631918 C-1.52763006,14.5952764 4.93670352,11.7162103 10.6892539,11.4581928 C10.6892539,11.4581928 12.3212332,7.80422272 16.6934894,9.25950933 C16.6934894,9.25950933 17.2975337,7.08977832 20.274483,8.03754544 C20.274483,8.03754544 22.2128999,5.70516976 24.0665388,7.75909095 C25.839815,9.72785786 23.3185482,11.5569718 23.3185482,11.5569718 C23.3185482,11.5569718 28.4237822,16.2532302 28.6321951,17.5135135 C28.6321951,17.5135135 22.6279596,12.6120333 21.9506175,12.2935563 C21.9506175,12.2935563 20.9809675,13.7284058 19.6192186,13.6798679 C18.2574696,13.63133 17.4979987,12.9390257 17.4979987,12.9390257 C17.4979987,12.9390257 15.6470092,15.5949876 11.2482598,14.0145242" id="Fill-87" fill="#010202"></path>
                            <path d="M21.20329,9.75949941 C20.9934055,8.76226587 20.0124237,8.12567569 19.0150162,8.33605099 C18.0166962,8.54642628 17.3788299,9.52362408 17.5887144,10.5199469 C17.7995114,11.5162697 18.7795806,12.1537706 19.7779007,11.9424846 C20.7753082,11.73302 21.4131745,10.7558222 21.20329,9.75949941" id="Fill-89" fill="#FEFEFE"></path>
                            <path d="M20.7246095,10.0539845 C20.6765813,9.83183943 20.4576835,9.68896603 20.2341677,9.73505423 C20.0115755,9.78298595 19.8674909,10.001444 19.9145955,10.2254326 C19.9626236,10.4475777 20.1815214,10.5904511 20.4050372,10.5434411 C20.6285531,10.4955094 20.7717141,10.2770514 20.7246095,10.0539845" id="Fill-91" fill="#010202"></path>
                            <path d="M20.7814319,8.35979921 C20.7814319,8.35979921 22.3510872,9.02523694 21.9796705,11.0544754 C21.9796705,11.0544754 24.0681892,11.2346981 24.4321402,9.72446643 C24.5851863,9.08848818 24.3257545,8.42738273 23.8274217,7.96902783 C23.1779091,7.37204008 22.0673921,6.85130039 20.7814319,8.35979921" id="Fill-93" fill="#FEFEFE"></path>
                            <path d="M23.4951619,9.13281543 C23.4471337,8.90974857 23.228236,8.76687517 23.0047201,8.81388513 C22.7821279,8.86089509 22.6380433,9.07935313 22.6860715,9.30334175 C22.7331761,9.5264086 22.9520738,9.66836024 23.1755897,9.62135028 C23.3991055,9.57434032 23.5422665,9.35496052 23.4951619,9.13281543" id="Fill-95" fill="#010202"></path>
                        </g>
                    </g>
                </g>
            </g>
        </g>
    </g>
</svg>