<?xml version="1.0" encoding="UTF-8"?>
<svg width="767px" height="194px" viewBox="0 0 767 194" version="1.1" xmlns="http://www.w3.org/2000/svg" xmlns:xlink="http://www.w3.org/1999/xlink">
    <title>saltopiaHEADER</title>
    <defs>
        <polygon id="path-1" points="766 0 356 26.3966975 356.748175 173.004269 766 194"></polygon>
    </defs>
    <g id="Branding" stroke="none" stroke-width="1" fill="none" fill-rule="evenodd">
        <g id="Tablet" transform="translate(0.000000, -282.000000)">
            <g id="saltopiaHEADER" transform="translate(383.500000, 379.000000) scale(-1, 1) translate(-383.500000, -379.000000) translate(0.000000, 282.000000)">
                <polygon id="background" fill="#58624A" points="0 157.0883 766 194 765.935168 0 -4.26840287e-14 37.4171163"></polygon>
                <mask id="mask-2" fill="white">
                    <use xlink:href="#path-1"></use>
                </mask>
                <use id="Mask" xlink:href="#path-1"></use>
                <g id="Group-3" mask="url(#mask-2)">
                    <g transform="translate(689.177561, 129.583012) scale(-1, 1) rotate(-4.000000) translate(-689.177561, -129.583012) translate(603.872195, 78.648649)" id="bug4-6">
                        <g transform="translate(0.000000, 17.976834)">
                            <path d="M71.0510036,42.236605 C71.0510036,42.236605 68.6106182,5.61478949 43.577668,0.374287073 C18.5404956,-4.86210192 58.7688562,46.6503092 71.0510036,42.236605 Z" id="Stroke-83" stroke="#231F20"></path>
                            <path d="M65.5001439,46.7115778 C65.5001439,46.7115778 13.8789716,50.2958273 9.15994204,31.242928 C4.44091246,12.1900287 61.1820231,32.5021477 65.5001439,46.7115778 Z" id="Stroke-85" stroke="#231F20"></path>
                            <path d="M53.2084696,66.9078267 C53.2084696,66.9078267 10.2729503,88.8354163 1.52543351,79.279038 C-7.22626068,69.726793 23.3524512,55.7518296 50.5641629,54.499415 C50.5641629,54.499415 58.2840345,36.7630743 78.9664392,43.8270235 C78.9664392,43.8270235 81.8237942,33.2951671 95.9058759,37.8956209 C95.9058759,37.8956209 105.075312,26.5742885 113.843716,36.544005 C122.231975,46.1003834 110.305442,54.9788872 110.305442,54.9788872 C110.305442,54.9788872 134.455105,77.774487 135.440976,83.8918919 C135.440976,83.8918919 107.038699,60.1001471 103.834618,58.5542624 C103.834618,58.5542624 99.2478117,65.5190104 92.8062305,65.2834077 C86.3646494,65.0478049 82.7720685,61.6873656 82.7720685,61.6873656 C82.7720685,61.6873656 74.0161969,74.579383 53.2084696,66.9078267" id="Fill-87" fill="#010202"></path>
                            <path d="M99.7353952,46.9285034 C98.7893566,42.3904753 94.3676543,39.493597 89.8719142,40.4509345 C85.3720609,41.4082719 82.4969261,45.8551251 83.4429647,50.3890089 C84.3931166,54.9228928 88.8107056,57.8239154 93.3105589,56.8624336 C97.806299,55.9092405 100.681434,51.4623873 99.7353952,46.9285034" id="Fill-89" fill="#FEFEFE"></path>
                            <path d="M97.4219321,48.8019581 C97.1910163,47.7236677 96.1385733,47.0301614 95.0639269,47.2538731 C93.9937212,47.4865333 93.3009739,48.5469268 93.527449,49.6341657 C93.7583647,50.7124562 94.8108077,51.4059625 95.8854541,51.1777765 C96.9601006,50.9451163 97.6484072,49.8847228 97.4219321,48.8019581" id="Fill-91" fill="#010202"></path>
                            <path d="M97.6951299,39.459838 C97.6951299,39.459838 104.770234,42.6898673 103.096101,52.5397742 C103.096101,52.5397742 112.509944,53.4145738 114.150426,46.0839214 C114.840269,42.9968883 113.6709,39.7878878 111.424702,37.5630369 C108.497072,34.6652633 103.491499,32.1375972 97.6951299,39.459838" id="Fill-93" fill="#FEFEFE"></path>
                            <path d="M111.8527,43.2120524 C111.621784,42.1292877 110.569341,41.4357814 109.494695,41.6639673 C108.424489,41.8921533 107.731742,42.9525468 107.962658,44.0397857 C108.189133,45.1225504 109.241576,45.8115825 110.316222,45.5833965 C111.390869,45.3552106 112.079175,44.2903428 111.8527,43.2120524" id="Fill-95" fill="#010202"></path>
                        </g>
                        <g transform="translate(130.202927, 53.181467)">
                            <path d="M21.3263415,12.2809677 C21.3263415,12.2809677 20.632399,1.63258975 13.514086,0.108829946 C6.39457237,-1.41373382 17.8338178,13.5643227 21.3263415,12.2809677 Z" id="Stroke-83" stroke="#231F20"></path>
                            <path d="M19.0814634,13.4057462 C19.0814634,13.4057462 3.73100106,14.4343892 2.32771472,8.96640153 C0.924428377,3.49841385 17.7973943,9.32778474 19.0814634,13.4057462 Z" id="Stroke-85" stroke="#231F20"></path>
                            <path d="M15.87435,19.8968743 C15.87435,19.8968743 3.06485809,26.1214667 0.455101709,23.4086943 C-2.15590098,20.6970952 6.96702965,16.7300176 15.0854409,16.3744942 C15.0854409,16.3744942 17.388607,11.3396732 23.5590482,13.3449188 C23.5590482,13.3449188 24.4115187,10.3552372 28.6128028,11.6611695 C28.6128028,11.6611695 31.3484357,8.44737906 33.9644235,11.2774859 C36.466998,13.9902583 32.9088058,16.5106022 32.9088058,16.5106022 C32.9088058,16.5106022 40.1136776,22.9815969 40.4078049,24.7181467 C40.4078049,24.7181467 31.9341976,17.964376 30.978284,17.5255452 C30.978284,17.5255452 29.6098444,19.5026306 27.6880467,19.43575 C25.766249,19.3688693 24.6944293,18.4149403 24.6944293,18.4149403 C24.6944293,18.4149403 22.0821803,22.0746016 15.87435,19.8968743" id="Fill-87" fill="#010202"></path>
                            <path d="M29.1348631,14.1431078 C28.8797985,12.9275646 27.6876489,12.151615 26.4755378,12.4080447 C25.2623177,12.6644744 24.4871432,13.8555958 24.7422078,15.0700289 C24.9983813,16.2844621 26.1894219,17.0615217 27.402642,16.803982 C28.6147531,16.5486624 29.3899276,15.357541 29.1348631,14.1431078" id="Fill-89" fill="#FEFEFE"></path>
                            <path d="M29.1143605,13.9402842 C29.0559937,13.6695081 28.7899756,13.4953576 28.5183454,13.5515352 C28.2478376,13.6099599 28.0727371,13.8762417 28.1299815,14.1492649 C28.1883483,14.4200409 28.4543663,14.5941915 28.7259966,14.5368904 C28.9976268,14.4784657 29.1716049,14.2121838 29.1143605,13.9402842" id="Fill-91" fill="#010202"></path>
                            <path d="M29.1834146,11.6138073 C29.1834146,11.6138073 31.0909565,12.6276976 30.6395881,15.719535 C30.6395881,15.719535 33.1776848,15.9941303 33.6199805,13.6930746 C33.8059715,12.72407 33.4906941,11.7167805 32.8850892,11.0184108 C32.0957616,10.1088138 30.7461927,9.31539185 29.1834146,11.6138073" id="Fill-93" fill="#FEFEFE"></path>
                            <path d="M33.6037457,12.817457 C33.5453789,12.5455574 33.2793609,12.3714069 33.0077306,12.428708 C32.7372228,12.4860092 32.5621223,12.752291 32.6204892,13.0253142 C32.6777336,13.2972138 32.9437516,13.4702408 33.2153818,13.4129397 C33.4870121,13.3556385 33.6609901,13.0882331 33.6037457,12.817457" id="Fill-95" fill="#010202"></path>
                        </g>
                        <g transform="translate(85.305366, 0.000000)">
                            <path d="M35.5318332,20.8404301 C35.5318332,20.8404301 34.311423,2.77045534 21.7927172,0.184681121 C9.27189998,-2.39906345 29.389665,23.0182447 35.5318332,20.8404301 Z" id="Stroke-83" stroke="#231F20"></path>
                            <path d="M33.3110936,23.0421817 C33.3110936,23.0421817 6.98972735,24.8949422 4.5835188,15.0461691 C2.17731025,5.19739597 31.1093063,15.6970815 33.3110936,23.0421817 Z" id="Stroke-85" stroke="#231F20"></path>
                            <path d="M27.045189,33.5656506 C27.045189,33.5656506 5.22161009,44.385185 0.775358468,39.6698667 C-3.67301648,34.9565879 11.8697542,28.0610468 25.7011215,27.443079 C25.7011215,27.443079 29.6250341,18.6915951 40.1376376,22.1770964 C40.1376376,22.1770964 41.5899949,16.9804567 48.747738,19.2504175 C48.747738,19.2504175 53.4084459,13.6642337 57.8653142,18.5835018 C62.1289595,23.2988201 56.0668542,27.6796607 56.0668542,27.6796607 C56.0668542,27.6796607 68.3418211,38.9274896 68.8429268,41.9459459 C68.8429268,41.9459459 54.4064107,30.2065982 52.7778171,29.4438261 C52.7778171,29.4438261 50.4464015,32.8803794 47.1722277,32.7641281 C43.8980538,32.6478767 42.0719906,30.9897652 42.0719906,30.9897652 C42.0719906,30.9897652 37.6214923,37.350958 27.045189,33.5656506" id="Fill-87" fill="#010202"></path>
                            <path d="M50.9809512,23.3746035 C50.4763073,20.9861676 48.1176458,19.4614949 45.7194904,19.9653567 C43.319141,20.4692185 41.7854625,22.8096675 42.2901063,25.1959222 C42.7969443,27.5821769 45.1534117,29.1090309 47.5537612,28.6029878 C49.9519165,28.1013072 51.485595,25.7608582 50.9809512,23.3746035" id="Fill-89" fill="#FEFEFE"></path>
                            <path d="M49.8300172,24.0799136 C49.7145387,23.5478623 49.1882234,23.2056717 48.6508045,23.3160558 C48.1156062,23.4308552 47.7691708,23.9540757 47.8824286,24.4905423 C47.997907,25.0225935 48.5242223,25.3647841 49.0616413,25.2521924 C49.5990603,25.1373929 49.9432749,24.6141724 49.8300172,24.0799136" id="Fill-91" fill="#010202"></path>
                            <path d="M49.9666404,20.0222351 C49.9666404,20.0222351 53.7407018,21.6159996 52.8476718,26.476151 C52.8476718,26.476151 57.8692825,26.9077956 58.7443622,23.2906974 C59.1123444,21.7674902 58.4885697,20.1841018 57.2903837,19.0863136 C55.7287032,17.656491 53.0585884,16.4092874 49.9666404,20.0222351" id="Fill-93" fill="#FEFEFE"></path>
                            <path d="M56.4915022,21.8736567 C56.3760237,21.3393978 55.8497085,20.9972072 55.3122895,21.109799 C54.7770913,21.2223907 54.4306559,21.7456112 54.5461343,22.2820778 C54.6593921,22.8163367 55.1857073,23.1563196 55.7231263,23.0437278 C56.2605453,22.9311361 56.6047599,22.4057079 56.4915022,21.8736567" id="Fill-95" fill="#010202"></path>
                        </g>
                    </g>
                </g>
            </g>
        </g>
    </g>
</svg>