<?xml version="1.0" encoding="UTF-8"?>
<svg width="320px" height="81px" viewBox="0 0 320 81" version="1.1" xmlns="http://www.w3.org/2000/svg" xmlns:xlink="http://www.w3.org/1999/xlink">
    <title>saltopiaHEADER</title>
    <defs>
        <polygon id="path-1" points="320 0 149 11.0213015 149.312044 72.2337413 320 81"></polygon>
        <polygon id="path-3" points="0 98.6867089 132.938102 98.6867089 132.938102 0.127145202 0 0.127145202"></polygon>
    </defs>
    <g id="Branding" stroke="none" stroke-width="1" fill="none" fill-rule="evenodd">
        <g id="Mobile" transform="translate(0.000000, -921.000000)">
            <g id="saltopiaHEADER" transform="translate(0.000000, 921.000000)">
                <polygon id="background" fill="#816565" points="0 65.5884139 320 81 319.972916 0 -1.7831448e-14 15.6226104"></polygon>
                <mask id="mask-2" fill="white">
                    <use xlink:href="#path-1"></use>
                </mask>
                <use id="Mask" xlink:href="#path-1"></use>
                <g id="Group-23" mask="url(#mask-2)">
                    <g transform="translate(187.000000, 15.000000)">
                        <polygon id="Fill-1" fill="#231F20" points="17.0250598 0.313291139 13.927971 12.2867316 13.8908663 12.2867316 9.81073303 0.313291139 8.34555843 0.313291139 4.43239665 12.2867316 4.39529188 12.2867316 1.27965075 0.313291139 0 0.313291139 3.48668883 13.471519 5.19281253 13.471519 9.03176477 1.53454059 9.06886954 1.53454059 13.0189042 13.471519 14.6698345 13.471519 18.1933962 0.313291139"></polygon>
                        <g id="Group-22" stroke-width="1" fill="none">
                            <path d="M40.3169251,12.6444067 C42.7277227,12.6444067 43.1877002,10.6621809 43.0772503,8.73526551 C41.5130047,8.79011696 38.237477,8.49658138 38.237477,10.8090634 C38.237477,12.057106 39.1944787,12.6444067 40.3169251,12.6444067 L40.3169251,12.6444067 Z M43.0772503,6.88156191 C42.9668005,5.37647485 42.1938818,4.89933609 40.8873524,4.89933609 C39.7280894,4.89933609 38.7713178,5.24772312 38.6240514,6.49599523 L37.44615,6.49599523 C37.7222746,4.605571 39.1392538,3.8897481 40.9057607,3.8897481 C42.9483922,3.8897481 44.218105,4.82589482 44.1812884,6.93641336 L44.1812884,11.3045625 C44.1628801,12.0203854 44.2365133,12.7545686 44.2733299,13.3785899 L43.1324753,13.3785899 L43.0956587,12.0203854 L43.058842,12.0203854 L43.0036171,12.1489076 C42.5988645,12.9198115 41.3659683,13.6537652 40.1146638,13.6537652 C38.4031517,13.6537652 37.0413974,12.6079156 37.0413974,10.8090634 C37.0413974,9.56102081 37.7959078,8.60651378 38.8999458,8.14773534 C40.132842,7.61551562 41.7339043,7.7991188 43.0772503,7.72567753 L43.0772503,6.88156191 Z" id="Fill-2" fill="#231F20"></path>
                            <path d="M68.0289247,5.1745343 L66.1887846,5.1745343 L66.1887846,4.16517582 L68.0289247,4.16517582 L68.0289247,2.20131032 L69.1329628,1.72394205 L69.1329628,4.16517582 L71.2308192,4.16517582 L71.2308192,5.1745343 L69.1329628,5.1745343 L69.1329628,11.3413061 C69.1145545,12.1856512 69.5563538,12.6444297 70.4026756,12.6444297 C70.7340251,12.6444297 71.0651445,12.6260693 71.3596773,12.5342677 L71.3596773,13.4887748 C71.0101497,13.5805764 70.605167,13.6537881 70.237231,13.6537881 C67.9000666,13.6537881 68.0289247,12.1672909 68.0289247,10.9192483 L68.0289247,5.1745343 Z" id="Fill-4" fill="#231F20"></path>
                            <path d="M100.157399,8.01935081 C100.028541,6.23908849 99.071769,4.89924429 97.1579957,4.89924429 C95.3546721,4.89924429 94.3976704,6.40433135 94.250404,8.01935081 L100.157399,8.01935081 Z M94.2135874,9.02870929 C94.250404,10.9925748 95.1521808,12.6443149 97.4154818,12.6443149 C98.7222413,12.6443149 99.807641,11.7083977 100.083996,10.4419948 L101.243259,10.4419948 C100.672601,12.6443149 99.2924386,13.6539029 97.065724,13.6539029 C94.3056289,13.6539029 93.0177379,11.2861104 93.0177379,8.77166484 C93.0177379,6.27557962 94.3976704,3.88988581 97.1395874,3.88988581 C100.231032,3.88988581 101.353478,6.1472869 101.353478,9.02870929 L94.2135874,9.02870929 Z" id="Fill-6" fill="#231F20"></path>
                            <path d="M124.704344,13.3786358 L123.600075,13.3786358 L123.600075,6.23922619 C123.618484,5.52317379 123.545081,4.78899058 123.508264,4.16496927 L124.649119,4.16496927 L124.704344,5.52317379 L124.74093,5.52317379 C125.07228,4.58702708 125.900423,3.92628514 126.820378,3.88979401 C127.188544,3.87143369 127.55671,3.88979401 127.924646,3.90792482 L127.924646,4.97259376 C127.703747,4.95423344 127.464439,4.89938199 127.243769,4.89938199 C125.60589,4.89938199 124.74093,6.07398333 124.704344,7.83588534 L124.704344,13.3786358 Z" id="Fill-8" fill="#231F20"></path>
                            <path d="M58.1744301,19.6704873 L59.3532519,19.6704873 C60.3038107,19.6704873 62.0721585,19.6704873 62.0721585,17.5845256 C62.0721585,15.7260025 60.4941066,15.7260025 59.657219,15.7260025 L58.1744301,15.7260025 L58.1744301,19.6704873 Z M55.2652277,13.5073875 L59.5051204,13.5073875 C61.4826325,13.5073875 63.1368488,13.6402703 64.2774734,15.0055895 C64.9999993,15.8779341 65.1141308,16.8638832 65.1141308,17.5654768 C65.1141308,19.1586934 64.4486706,20.5049637 63.3648817,21.2065574 C62.3572571,21.8514635 60.9692709,21.8514635 60.246745,21.8514635 L58.2505945,21.8514635 L58.2505945,27.1803163 L55.2652277,27.1803163 L55.2652277,13.5073875 Z" id="Fill-10" fill="#231F20"></path>
                            <path d="M70.6856112,25.5683492 C71.9212687,25.5683492 72.7581562,24.8286579 72.7581562,22.2875899 C72.7581562,21.0168264 72.5107946,19.2530884 70.6476441,19.2530884 C68.5939676,19.2530884 68.5750991,21.6238644 68.5750991,22.4959795 C68.5750991,24.6390877 69.297395,25.5683492 70.6856112,25.5683492 M70.6476441,17.3759754 C74.1268137,17.3759754 75.6291614,19.7274731 75.6291614,22.4014239 C75.6291614,25.094194 74.069978,27.5214281 70.5903483,27.5214281 C67.8525732,27.5214281 65.6849953,25.8336558 65.6849953,22.4771602 C65.6849953,20.1637602 66.8638171,17.3759754 70.6476441,17.3759754" id="Fill-12" fill="#231F20"></path>
                            <mask id="mask-4" fill="white">
                                <use xlink:href="#path-3"></use>
                            </mask>
                            <g id="Clip-15"></g>
                            <polygon id="Fill-14" fill="#231F20" mask="url(#mask-4)" points="77.7398806 98.6867089 80.5540502 98.6867089 80.5540502 13.4695882 77.7398806 13.4695882"></polygon>
                            <polygon id="Fill-16" fill="#231F20" mask="url(#mask-4)" points="83.0260554 73.4412717 85.8402249 73.4412717 85.8402249 13.4695882 83.0260554 13.4695882"></polygon>
                            <path d="M91.0690578,17.6033909 L91.0690578,23.3116137 C91.0690578,24.1460902 91.0690578,25.4166242 92.5709453,25.4166242 C94.3772602,25.4166242 94.3772602,24.0701243 94.3772602,22.4392691 L94.3772602,17.6033909 L97.267364,17.6033909 L97.267364,23.9184222 C97.3055612,25.985335 97.3244298,26.2322813 97.3244298,26.4785391 C97.3435284,26.7440752 97.3623969,26.9145966 97.400364,27.1803622 L94.6623588,27.1803622 L94.5675561,25.9093692 C94.2824574,26.3268369 93.5597014,27.4268495 91.734518,27.4268495 C90.4415647,27.4268495 89.3768744,26.8388603 88.8444142,26.1372666 C88.2169211,25.3597072 88.2169211,24.0322562 88.2169211,23.558101 L88.2169211,17.6033909 L91.0690578,17.6033909 Z" id="Fill-17" fill="#231F20" mask="url(#mask-4)"></path>
                            <path d="M105.576666,27.0473417 C104.664074,27.2940585 103.846515,27.350746 103.390449,27.350746 C100.557181,27.350746 100.557181,25.5684181 100.557181,24.7718098 L100.557181,19.5186933 L98.7128991,19.5186933 L98.7128991,17.6606292 L100.557181,17.6606292 L100.557181,15.7830571 L103.352252,14.7587809 L103.352252,17.6606292 L105.633961,17.6606292 L105.633961,19.5186933 L103.352252,19.5186933 L103.352252,23.8427777 C103.371121,24.7151223 103.371121,25.2647843 104.626107,25.2647843 C105.044435,25.2647843 105.234731,25.2457355 105.576666,25.2078673 L105.576666,27.0473417 Z" id="Fill-18" fill="#231F20" mask="url(#mask-4)"></path>
                            <path d="M107.325938,57.0159018 L110.140107,57.0159018 L110.140107,17.5845945 L107.325938,17.5845945 L107.325938,57.0159018 Z M107.231135,15.9346904 L110.23537,15.9346904 L110.23537,13.4884076 L107.231135,13.4884076 L107.231135,15.9346904 Z" id="Fill-19" fill="#231F20" mask="url(#mask-4)"></path>
                            <path d="M117.175577,25.5683492 C118.411235,25.5683492 119.248122,24.8286579 119.248122,22.2875899 C119.248122,21.0168264 119.000761,19.2530884 117.13761,19.2530884 C115.083934,19.2530884 115.065065,21.6238644 115.065065,22.4959795 C115.065065,24.6390877 115.787361,25.5683492 117.175577,25.5683492 M117.13761,17.3759754 C120.61678,17.3759754 122.119127,19.7274731 122.119127,22.4014239 C122.119127,25.094194 120.559944,27.5214281 117.080314,27.5214281 C114.342539,27.5214281 112.174961,25.8336558 112.174961,22.4771602 C112.174961,20.1637602 113.353783,17.3759754 117.13761,17.3759754" id="Fill-20" fill="#231F20" mask="url(#mask-4)"></path>
                            <path d="M123.906459,19.3103267 C123.906459,19.2724585 123.906459,18.229363 123.849623,17.565408 L126.549431,17.565408 L126.625595,19.0069224 C126.891825,18.5706354 127.652319,17.33774 129.743732,17.33774 C131.625981,17.33774 132.424441,18.4756207 132.671803,19.1395757 C132.880967,19.7273354 132.938033,20.2205394 132.938033,22.0030968 L132.938033,27.1802475 L130.066798,27.1802475 L130.066798,21.2257668 C130.066798,20.8271184 130.066798,20.4860755 129.914929,20.1826713 C129.705535,19.7652036 129.268338,19.3670142 128.546042,19.3670142 C127.937417,19.3670142 127.386088,19.6513696 127.081661,20.1067055 C126.910694,20.3531927 126.739727,20.8271184 126.739727,21.5668098 L126.739727,27.1802475 L123.906459,27.1802475 L123.906459,19.3103267 Z" id="Fill-21" fill="#231F20" mask="url(#mask-4)"></path>
                        </g>
                    </g>
                </g>
            </g>
        </g>
    </g>
</svg>