<?xml version="1.0" encoding="UTF-8"?>
<svg width="1025px" height="259px" viewBox="0 0 1025 259" version="1.1" xmlns="http://www.w3.org/2000/svg" xmlns:xlink="http://www.w3.org/1999/xlink">
    <title>saltopiaHEADER</title>
    <defs>
        <polygon id="path-1" points="1024 0 476 35.2395807 477 230.960631 1024 258.989923"></polygon>
        <polygon id="path-3" points="0 315 423.802671 315 423.802671 0.405837209 0 0.405837209"></polygon>
    </defs>
    <g id="Branding" stroke="none" stroke-width="1" fill="none" fill-rule="evenodd">
        <g id="Desktop-HD" transform="translate(-1445.000000, -2670.000000)">
            <g id="saltopiaHEADER" transform="translate(1445.000000, 2670.000000)">
                <polygon id="background" fill="#816565" points="0 209.720978 1024.08668 259 1024 0 -5.70654635e-14 49.953779"></polygon>
                <mask id="mask-2" fill="white">
                    <use xlink:href="#path-1"></use>
                </mask>
                <use id="Mask" xlink:href="#path-1"></use>
                <g id="Group-23" mask="url(#mask-2)">
                    <g transform="translate(600.000000, 47.000000)">
                        <polygon id="Fill-1" fill="#231F20" points="54.2753786 1 44.4019528 39.2182542 44.2836639 39.2182542 31.2763218 1 26.6053893 1 14.1303472 39.2182542 14.0120583 39.2182542 4.07948809 1 0 1 11.1154591 43 16.5545302 43 28.7929944 4.89812955 28.9112833 4.89812955 41.503875 43 46.7669913 43 58 1"></polygon>
                        <g id="Group-22" stroke-width="1" fill="none">
                            <path d="M128.529145,40.3599244 C136.214695,40.3599244 137.681089,34.0328198 137.328979,27.8822616 C132.34221,28.057343 121.899927,27.1204012 121.899927,34.501657 C121.899927,38.4853081 124.950819,40.3599244 128.529145,40.3599244 L128.529145,40.3599244 Z M137.328979,21.9653895 C136.976868,17.1612733 134.512826,15.6382849 130.34765,15.6382849 C126.651954,15.6382849 123.601795,16.7503081 123.132314,20.7346919 L119.3772,20.7346919 C120.257477,14.7006105 124.774764,12.4157616 130.406335,12.4157616 C136.918183,12.4157616 140.965989,15.4038663 140.848619,22.1404709 L140.848619,36.08325 C140.789934,38.3680988 141.024674,40.7115523 141.142044,42.7033779 L137.505034,42.7033779 L137.387664,38.3680988 L137.270293,38.3680988 L137.094238,38.7783314 C135.803899,41.2389942 131.873463,43.5817151 127.884342,43.5817151 C122.428093,43.5817151 118.086861,40.2434477 118.086861,34.501657 C118.086861,30.5180058 120.492217,27.4712965 124.011857,26.0069128 C127.942293,24.3081105 133.046432,24.894157 137.328979,24.6597384 L137.328979,21.9653895 Z" id="Fill-2" fill="#231F20"></path>
                            <path d="M216.874166,16.5166953 L211.007855,16.5166953 L211.007855,13.2949047 L216.874166,13.2949047 L216.874166,7.02640465 L220.393806,5.50268372 L220.393806,13.2949047 L227.081709,13.2949047 L227.081709,16.5166953 L220.393806,16.5166953 L220.393806,36.2005326 C220.335121,38.895614 221.743564,40.3599977 224.441612,40.3599977 C225.497945,40.3599977 226.553543,40.301393 227.492505,40.0083698 L227.492505,43.0550791 C226.378221,43.3481023 225.087149,43.5817884 223.91418,43.5817884 C216.46337,43.5817884 216.874166,38.8370093 216.874166,34.8533581 L216.874166,16.5166953 Z" id="Fill-4" fill="#231F20"></path>
                            <path d="M319.298775,25.5971198 C318.887979,19.9146663 315.83782,15.6379919 309.736768,15.6379919 C303.987827,15.6379919 300.936934,20.4421081 300.467453,25.5971198 L319.298775,25.5971198 Z M300.350083,28.8189105 C300.467453,35.0874105 303.342291,40.3596314 310.557626,40.3596314 C314.723536,40.3596314 318.183758,37.3722593 319.064768,33.3300035 L322.760464,33.3300035 C320.941225,40.3596314 316.541308,43.5821547 309.442609,43.5821547 C300.643509,43.5821547 296.537751,36.0243523 296.537751,27.9984453 C296.537751,20.031143 300.936934,12.4162012 309.678083,12.4162012 C319.533516,12.4162012 323.111841,19.621643 323.111841,28.8189105 L300.350083,28.8189105 Z" id="Fill-6" fill="#231F20"></path>
                            <path d="M397.553697,42.7035244 L394.033323,42.7035244 L394.033323,19.9151058 C394.092008,17.6295244 393.858001,15.2860709 393.740631,13.2942453 L397.377642,13.2942453 L397.553697,17.6295244 L397.670334,17.6295244 C398.726666,14.6414198 401.366763,12.5323849 404.299552,12.4159081 C405.473254,12.3573035 406.646956,12.4159081 407.819925,12.4737802 L407.819925,15.8721174 C407.115704,15.8135128 406.352797,15.6384314 405.649309,15.6384314 C400.427801,15.6384314 397.670334,19.387664 397.553697,25.0115128 L397.553697,42.7035244 Z" id="Fill-8" fill="#231F20"></path>
                            <path d="M185.458334,62.7866058 L189.216382,62.7866058 C192.246735,62.7866058 197.884174,62.7866058 197.884174,56.1283849 C197.884174,50.1961291 192.853392,50.1961291 190.18542,50.1961291 L185.458334,50.1961291 L185.458334,62.7866058 Z M176.183884,43.1144895 L189.700534,43.1144895 C196.004783,43.1144895 201.278375,43.5386407 204.914652,47.8966291 C207.218043,50.6810826 207.581891,53.8281523 207.581891,56.0675826 C207.581891,61.1530012 205.460424,65.4501872 202.005337,67.6896174 C198.79306,69.7481058 194.368202,69.7481058 192.064811,69.7481058 L185.701143,69.7481058 L185.701143,86.7573733 L176.183884,86.7573733 L176.183884,43.1144895 Z" id="Fill-10" fill="#231F20"></path>
                            <path d="M225.343603,81.6121047 C229.282842,81.6121047 231.950814,79.2510698 231.950814,71.140186 C231.950814,67.0840116 231.162233,61.4543023 225.222565,61.4543023 C218.675506,61.4543023 218.615354,69.0216279 218.615354,71.8053488 C218.615354,78.6459767 220.918011,81.6121047 225.343603,81.6121047 M225.222565,55.4627093 C236.314053,55.4627093 241.103492,62.9685 241.103492,71.5035349 C241.103492,80.0986395 236.132862,87.8461744 225.039907,87.8461744 C216.311963,87.8461744 209.40179,82.4589419 209.40179,71.7452791 C209.40179,64.361093 213.159838,55.4627093 225.222565,55.4627093" id="Fill-12" fill="#231F20"></path>
                            <mask id="mask-4" fill="white">
                                <use xlink:href="#path-3"></use>
                            </mask>
                            <g id="Clip-15"></g>
                            <polygon id="Fill-14" fill="#231F20" mask="url(#mask-4)" points="247.832401 315 256.803889 315 256.803889 42.9938372 247.832401 42.9938372"></polygon>
                            <polygon id="Fill-16" fill="#231F20" mask="url(#mask-4)" points="264.684567 234.418605 273.656055 234.418605 273.656055 42.9938372 264.684567 42.9938372"></polygon>
                            <path d="M290.325417,56.1886012 L290.325417,74.4087872 C290.325417,77.0723686 290.325417,81.1278105 295.11339,81.1278105 C300.871867,81.1278105 300.871867,76.8298919 300.871867,71.6243337 L300.871867,56.1886012 L310.085431,56.1886012 L310.085431,76.3456709 C310.207203,82.9430895 310.267355,83.7313221 310.267355,84.517357 C310.328241,85.3649267 310.388393,85.9092174 310.509431,86.7575198 L301.780753,86.7575198 L301.478525,82.7006128 C300.569639,84.033136 298.265514,87.5442872 292.446884,87.5442872 C288.324988,87.5442872 284.930788,85.6674733 283.23332,83.428043 C281.232891,80.946136 281.232891,76.7090198 281.232891,75.1955547 L281.232891,56.1886012 L290.325417,56.1886012 Z" id="Fill-17" fill="#231F20" mask="url(#mask-4)"></path>
                            <path d="M336.575235,86.3329291 C333.66592,87.1204291 331.059567,87.3013709 329.605643,87.3013709 C320.573269,87.3013709 320.573269,81.6123244 320.573269,79.0696151 L320.573269,62.3020919 L314.693754,62.3020919 L314.693754,56.3713012 L320.573269,56.3713012 L320.573269,50.378243 L329.483871,47.108836 L329.483871,56.3713012 L336.757892,56.3713012 L336.757892,62.3020919 L329.483871,62.3020919 L329.483871,76.1042198 C329.544024,78.8886733 329.544024,80.64315 333.544882,80.64315 C334.878501,80.64315 335.485158,80.5823477 336.575235,80.4614756 L336.575235,86.3329291 Z" id="Fill-18" fill="#231F20" mask="url(#mask-4)"></path>
                            <path d="M342.151862,181.990151 L351.123349,181.990151 L351.123349,56.1286047 L342.151862,56.1286047 L342.151862,181.990151 Z M341.849633,50.8622442 L351.427045,50.8622442 L351.427045,43.053907 L341.849633,43.053907 L341.849633,50.8622442 Z" id="Fill-19" fill="#231F20" mask="url(#mask-4)"></path>
                            <path d="M373.552216,81.6121047 C377.491455,81.6121047 380.159427,79.2510698 380.159427,71.140186 C380.159427,67.0840116 379.370846,61.4543023 373.431178,61.4543023 C366.884119,61.4543023 366.823967,69.0216279 366.823967,71.8053488 C366.823967,78.6459767 369.126624,81.6121047 373.552216,81.6121047 M373.431178,55.4627093 C384.522666,55.4627093 389.312105,62.9685 389.312105,71.5035349 C389.312105,80.0986395 384.341475,87.8461744 373.24852,87.8461744 C364.520576,87.8461744 357.610403,82.4589419 357.610403,71.7452791 C357.610403,64.361093 361.368451,55.4627093 373.431178,55.4627093" id="Fill-20" fill="#231F20" mask="url(#mask-4)"></path>
                            <path d="M395.010064,61.6370023 C395.010064,61.5161302 395.010064,58.1866535 394.828873,56.0673628 L403.43578,56.0673628 L403.67859,60.6685605 C404.527323,59.2759674 406.951752,55.3406651 413.619116,55.3406651 C419.619669,55.3406651 422.165136,58.9726884 422.953718,61.0919791 C423.620527,62.9680605 423.802451,64.5423279 423.802451,70.232107 L423.802451,86.7571535 L414.649039,86.7571535 L414.649039,67.7509326 C414.649039,66.4784791 414.649039,65.3898977 414.164887,64.4214558 C413.497344,63.0889326 412.103572,61.8179442 409.800915,61.8179442 C407.860638,61.8179442 406.103019,62.7255837 405.132513,64.1789791 C404.587475,64.9657465 404.042437,66.4784791 404.042437,68.839514 L404.042437,86.7571535 L395.010064,86.7571535 L395.010064,61.6370023 Z" id="Fill-21" fill="#231F20" mask="url(#mask-4)"></path>
                        </g>
                    </g>
                </g>
            </g>
        </g>
    </g>
</svg>