<?xml version="1.0" encoding="UTF-8"?>
<svg width="767px" height="194px" viewBox="0 0 767 194" version="1.1" xmlns="http://www.w3.org/2000/svg" xmlns:xlink="http://www.w3.org/1999/xlink">
    <title>saltopiaHEADER</title>
    <defs>
        <polygon id="path-1" points="767 0 356 26.3966975 356.75 173.004269 767 194"></polygon>
        <polygon id="path-3" points="0 236.25 317.852003 236.25 317.852003 0.304377907 0 0.304377907"></polygon>
    </defs>
    <g id="Branding" stroke="none" stroke-width="1" fill="none" fill-rule="evenodd">
        <g id="Tablet" transform="translate(0.000000, -616.000000)">
            <g id="saltopiaHEADER" transform="translate(0.000000, 616.000000)">
                <polygon id="background" fill="#816565" points="0 157.0883 767 194 766.935083 0 -4.27397519e-14 37.4171163"></polygon>
                <mask id="mask-2" fill="white">
                    <use xlink:href="#path-1"></use>
                </mask>
                <use id="Mask" xlink:href="#path-1"></use>
                <g id="Group-23" mask="url(#mask-2)">
                    <g transform="translate(449.000000, 35.000000)">
                        <polygon id="Fill-1" fill="#231F20" points="40.7065339 0.75 33.3014646 29.4136907 33.2127479 29.4136907 23.4572414 0.75 19.954042 0.75 10.5977604 29.4136907 10.5090437 29.4136907 3.05961607 0.75 0 0.75 8.33659435 32.25 12.4158976 32.25 21.5947458 3.67359716 21.6834625 3.67359716 31.1279062 32.25 35.0752435 32.25 43.5 0.75"></polygon>
                        <g id="Group-22" stroke-width="1" fill="none">
                            <path d="M96.3968585,30.2699433 C102.161021,30.2699433 103.260817,25.5246148 102.996734,20.9116962 C99.2566578,21.0430073 91.424945,20.3403009 91.424945,25.8762427 C91.424945,28.8639811 93.7131145,30.2699433 96.3968585,30.2699433 L96.3968585,30.2699433 Z M102.996734,16.4740422 C102.732651,12.8709549 100.88462,11.7287137 97.7607374,11.7287137 C94.9889657,11.7287137 92.7013464,12.5627311 92.3492356,15.5510189 L89.5329,15.5510189 C90.1931076,11.0254578 93.581073,9.31182122 97.8047512,9.31182122 C102.688637,9.31182122 105.724492,11.5528997 105.636464,16.6053532 L105.636464,27.0624375 C105.59245,28.7760741 105.768506,30.5336642 105.856533,32.0275334 L103.128775,32.0275334 L103.040748,28.7760741 L102.95272,28.7760741 L102.820679,29.0837485 C101.852924,30.9292456 98.9050972,32.6862863 95.9132564,32.6862863 C91.8210696,32.6862863 88.5651457,30.1825858 88.5651457,25.8762427 C88.5651457,22.8885044 90.369163,20.6034724 93.0088931,19.5051846 C95.9567201,18.2310828 99.7848239,18.6706177 102.996734,18.4948038 L102.996734,16.4740422 Z" id="Fill-2" fill="#231F20"></path>
                            <path d="M162.655625,12.3875215 L158.255891,12.3875215 L158.255891,9.97117849 L162.655625,9.97117849 L162.655625,5.26980349 L165.295355,4.12701279 L165.295355,9.97117849 L170.311282,9.97117849 L170.311282,12.3875215 L165.295355,12.3875215 L165.295355,27.1503994 C165.251341,29.1717105 166.307673,30.2699983 168.331209,30.2699983 C169.123458,30.2699983 169.915157,30.2260448 170.619379,30.0062773 L170.619379,32.2913093 C169.783666,32.5110767 168.815362,32.6863413 167.935635,32.6863413 C162.347528,32.6863413 162.655625,29.127757 162.655625,26.1400186 L162.655625,12.3875215 Z" id="Fill-4" fill="#231F20"></path>
                            <path d="M239.474081,19.1978398 C239.165984,14.9359997 236.878365,11.7284939 232.302576,11.7284939 C227.99087,11.7284939 225.702701,15.3315811 225.35059,19.1978398 L239.474081,19.1978398 Z M225.262562,21.6141828 C225.35059,26.3155578 227.506718,30.2697235 232.91822,30.2697235 C236.042652,30.2697235 238.637818,28.0291945 239.298576,24.9975026 L242.070348,24.9975026 C240.705919,30.2697235 237.405981,32.686616 232.081957,32.686616 C225.482631,32.686616 222.403313,27.0182642 222.403313,20.998834 C222.403313,15.0233573 225.702701,9.31215087 232.258562,9.31215087 C239.650137,9.31215087 242.333881,14.7162323 242.333881,21.6141828 L225.262562,21.6141828 Z" id="Fill-6" fill="#231F20"></path>
                            <path d="M298.165273,32.0276433 L295.524992,32.0276433 L295.524992,14.9363294 C295.569006,13.2221433 295.393501,11.4645532 295.305473,9.97068401 L298.033231,9.97068401 L298.165273,13.2221433 L298.25275,13.2221433 C299.044999,10.9810648 301.025072,9.39928866 303.224664,9.3119311 C304.10494,9.26797762 304.985217,9.3119311 305.864944,9.35533517 L305.864944,11.9040881 C305.336778,11.8601346 304.764598,11.7288235 304.236982,11.7288235 C300.320851,11.7288235 298.25275,14.540748 298.165273,18.7586346 L298.165273,32.0276433 Z" id="Fill-8" fill="#231F20"></path>
                            <path d="M139.09375,47.0899544 L141.912287,47.0899544 C144.185051,47.0899544 148.413131,47.0899544 148.413131,42.0962887 C148.413131,37.6470968 144.640044,37.6470968 142.639065,37.6470968 L139.09375,37.6470968 L139.09375,47.0899544 Z M132.137913,32.3358672 L142.275401,32.3358672 C147.003588,32.3358672 150.958781,32.6539805 153.685989,35.9224718 C155.413532,38.0108119 155.686418,40.3711142 155.686418,42.0506869 C155.686418,45.8647509 154.095318,49.0876404 151.504003,50.7672131 C149.094795,52.3110794 145.776152,52.3110794 144.048608,52.3110794 L139.275857,52.3110794 L139.275857,65.0680299 L132.137913,65.0680299 L132.137913,32.3358672 Z" id="Fill-10" fill="#231F20"></path>
                            <path d="M169.007702,61.2090785 C171.962131,61.2090785 173.96311,59.4383023 173.96311,53.3551395 C173.96311,50.3130087 173.371674,46.0907267 168.916924,46.0907267 C164.006629,46.0907267 163.961515,51.7662209 163.961515,53.8540116 C163.961515,58.9844826 165.688508,61.2090785 169.007702,61.2090785 M168.916924,41.597032 C177.235539,41.597032 180.827619,47.226375 180.827619,53.6276512 C180.827619,60.0739797 177.099647,65.8846308 168.77993,65.8846308 C162.233972,65.8846308 157.051342,61.8442064 157.051342,53.8089593 C157.051342,48.2708198 159.869879,41.597032 168.916924,41.597032" id="Fill-12" fill="#231F20"></path>
                            <mask id="mask-4" fill="white">
                                <use xlink:href="#path-3"></use>
                            </mask>
                            <g id="Clip-15"></g>
                            <polygon id="Fill-14" fill="#231F20" mask="url(#mask-4)" points="185.874301 236.25 192.602917 236.25 192.602917 32.2453779 185.874301 32.2453779"></polygon>
                            <polygon id="Fill-16" fill="#231F20" mask="url(#mask-4)" points="198.513426 175.813953 205.242042 175.813953 205.242042 32.2453779 198.513426 32.2453779"></polygon>
                            <path d="M217.744063,42.1414509 L217.744063,55.8065904 C217.744063,57.8042765 217.744063,60.8458578 221.335042,60.8458578 C225.6539,60.8458578 225.6539,57.6224189 225.6539,53.7182503 L225.6539,42.1414509 L232.564073,42.1414509 L232.564073,57.2592532 C232.655402,62.2073172 232.700516,62.7984916 232.700516,63.3880177 C232.746181,64.0236951 232.791295,64.4319131 232.882073,65.0681398 L226.335565,65.0681398 L226.108893,62.0254596 C225.427229,63.024852 223.699136,65.6582154 219.335163,65.6582154 C216.243741,65.6582154 213.698091,64.2506049 212.42499,62.5710323 C210.924669,60.709602 210.924669,57.5317648 210.924669,56.396666 L210.924669,42.1414509 L217.744063,42.1414509 Z" id="Fill-17" fill="#231F20" mask="url(#mask-4)"></path>
                            <path d="M252.431426,64.7496968 C250.24944,65.3403218 248.294675,65.4760282 247.204232,65.4760282 C240.429952,65.4760282 240.429952,61.2092433 240.429952,59.3022113 L240.429952,46.7265689 L236.020315,46.7265689 L236.020315,42.2784759 L240.429952,42.2784759 L240.429952,37.7836823 L247.112903,35.331627 L247.112903,42.2784759 L252.568419,42.2784759 L252.568419,46.7265689 L247.112903,46.7265689 L247.112903,57.0781648 C247.158018,59.1665049 247.158018,60.4823625 250.158661,60.4823625 C251.158876,60.4823625 251.613869,60.4367608 252.431426,60.3461067 L252.431426,64.7496968 Z" id="Fill-18" fill="#231F20" mask="url(#mask-4)"></path>
                            <path d="M256.613896,136.492613 L263.342512,136.492613 L263.342512,42.0964535 L256.613896,42.0964535 L256.613896,136.492613 Z M256.387225,38.1466831 L263.570284,38.1466831 L263.570284,32.2904302 L256.387225,32.2904302 L256.387225,38.1466831 Z" id="Fill-19" fill="#231F20" mask="url(#mask-4)"></path>
                            <path d="M280.164162,61.2090785 C283.118591,61.2090785 285.11957,59.4383023 285.11957,53.3551395 C285.11957,50.3130087 284.528134,46.0907267 280.073383,46.0907267 C275.163089,46.0907267 275.117975,51.7662209 275.117975,53.8540116 C275.117975,58.9844826 276.844968,61.2090785 280.164162,61.2090785 M280.073383,41.597032 C288.391999,41.597032 291.984079,47.226375 291.984079,53.6276512 C291.984079,60.0739797 288.256107,65.8846308 279.93639,65.8846308 C273.390432,65.8846308 268.207802,61.8442064 268.207802,53.8089593 C268.207802,48.2708198 271.026338,41.597032 280.073383,41.597032" id="Fill-20" fill="#231F20" mask="url(#mask-4)"></path>
                            <path d="M296.257548,46.2277517 C296.257548,46.1370977 296.257548,43.6399901 296.121655,42.0505221 L302.576835,42.0505221 L302.758942,45.5014203 C303.395492,44.4569756 305.213814,41.5054988 310.214337,41.5054988 C314.714752,41.5054988 316.623852,44.2295163 317.215288,45.8189843 C317.715396,47.2260453 317.851838,48.4067459 317.851838,52.6740802 L317.851838,65.0678651 L310.98678,65.0678651 L310.98678,50.8131994 C310.98678,49.8588593 310.98678,49.0424233 310.623665,48.3160919 C310.123008,47.3166994 309.077679,46.3634581 307.350686,46.3634581 C305.895479,46.3634581 304.577264,47.0441878 303.849385,48.1342343 C303.440607,48.7243099 303.031828,49.8588593 303.031828,51.6296355 L303.031828,65.0678651 L296.257548,65.0678651 L296.257548,46.2277517 Z" id="Fill-21" fill="#231F20" mask="url(#mask-4)"></path>
                        </g>
                    </g>
                </g>
            </g>
        </g>
    </g>
</svg>