<?xml version="1.0" encoding="UTF-8"?>
<svg width="768px" height="195px" viewBox="0 0 768 195" version="1.1" xmlns="http://www.w3.org/2000/svg" xmlns:xlink="http://www.w3.org/1999/xlink">
    <title>startechHEADER Copy</title>
    <defs>
        <polygon id="path-1" points="0 5.52810077e-14 3.41060513e-13 195 768 159.899149 768 37.476523"></polygon>
    </defs>
    <g id="Branding" stroke="none" stroke-width="1" fill="none" fill-rule="evenodd">
        <g id="Tablet" transform="translate(-1.000000, -521.000000)">
            <g id="startechHEADER-Copy" transform="translate(1.000000, 521.000000)">
                <mask id="mask-2" fill="white">
                    <use xlink:href="#path-1"></use>
                </mask>
                <use id="background" fill="#222C7C" xlink:href="#path-1"></use>
                <g id="Group-6" mask="url(#mask-2)">
                    <g transform="translate(-13.000000, 51.000000)">
                        <path d="M172.853054,110.675964 C170.447682,107.56137 167.306099,104.794029 164.329494,102.554349 C163.899315,102.219424 163.475736,101.899294 163.06123,101.593546 C159.322841,98.8381231 158.891837,93.49741 162.127045,90.1691217 C170.378392,81.6784727 172.991222,74.8525844 172.991222,74.8525844 C177.032345,66.8448024 179.054556,56.6314488 179.054556,48.0458704 C179.054556,34.4438187 173.167748,22.7851522 163.171352,13.5708194 C153.175369,4.35689753 137.472816,0 118.801081,0 L23.3983383,0 C11.7224722,0 0,9.43090373 0,21.0640914 L0,160.412074 C0,173.425234 12.8447313,183.974334 25.9051705,183.974334 L110.082024,183.974334 C113.608829,183.974334 120.278454,184.160494 129.719289,183.530096 L129.71269,183.541192 C156.059175,183.108461 181.640989,176.776946 183.88427,143.812549 C184.877434,129.222983 179.332543,118.311836 172.845217,110.673909 L172.853054,110.675964 Z" id="Fill-2" fill="#F05556"></path>
                        <path d="M98.8279757,76.8931433 C97.3702824,78.8011102 95.860822,80.4086914 93.1405886,81.0297647 C91.1730312,81.478893 88.7847642,81.9984566 86.3533579,81.9984566 L74.244396,81.9984566 C72.840113,81.9984566 71.7020604,80.8503619 71.7020604,79.4346132 L71.7020604,62.346605 C71.7020604,60.4684696 73.2115208,58.9466537 75.0734899,58.9466537 L86.9667559,58.9466537 C92.1064809,58.9466537 95.2605711,59.9261181 97.562149,61.8858756 C99.8637269,63.8456331 101.013694,66.6564142 101.013694,70.3178047 C101.013694,72.7929826 100.284847,74.9847621 98.8279757,76.8931433 M134.293311,83.816515 C136.954382,79.2523102 138.284301,73.824652 138.284301,67.5327117 C138.284301,60.3130977 136.545586,54.1885447 133.068158,49.1602959 C129.590729,44.1328757 125.013868,40.6902488 119.337574,38.8332439 C113.661279,36.977482 105.453332,36.0489796 94.7145524,36.0489796 L48.2294172,36.0489796 C41.9171283,36.0489796 36.8,41.2093981 36.8,47.5750882 L36.8,137.927367 C36.8,144.292643 41.9171283,149.453061 48.2294172,149.453061 L60.2726432,149.453061 C66.5849321,149.453061 71.7020604,144.292643 71.7020604,137.927367 L71.6835722,105.669261 C71.6609755,104.441202 72.4054344,103.478725 73.2916364,103.419062 L74.7706939,103.426105 C77.9412181,103.426105 82.328678,104.372838 84.8340371,106.126262 C86.6750529,107.467018 88.9125383,109.967055 91.2650615,114.453781 L105.021118,142.969288 C106.934444,146.935622 110.925023,149.453061 115.298514,149.453061 L130.490489,149.453061 C138.708708,149.453061 144.266267,140.960226 140.985635,133.361919 C136.139257,122.135782 129.197957,107.930647 122.471532,100.766967 C120.81581,99.0035998 121.243093,96.1505575 123.317471,94.9166975 C127.973626,92.0806425 131.631829,88.3807197 134.293311,83.816515 Z" id="Fill-4" fill="#FFFFFF"></path>
                    </g>
                </g>
            </g>
        </g>
    </g>
</svg>