<?xml version="1.0" encoding="UTF-8"?>
<svg width="319px" height="81px" viewBox="0 0 319 81" version="1.1" xmlns="http://www.w3.org/2000/svg" xmlns:xlink="http://www.w3.org/1999/xlink">
    <title>startechHEADER Copy</title>
    <defs>
        <polygon id="path-1" points="0 2.29628801e-14 1.41664458e-13 81 319 66.4196466 319 15.5671711"></polygon>
    </defs>
    <g id="Branding" stroke="none" stroke-width="1" fill="none" fill-rule="evenodd">
        <g id="Mobile" transform="translate(0.000000, -750.000000)">
            <g id="startechHEADER-Copy" transform="translate(0.000000, 750.000000)">
                <mask id="mask-2" fill="white">
                    <use xlink:href="#path-1"></use>
                </mask>
                <use id="background" fill="#222C7C" xlink:href="#path-1"></use>
                <g id="Group-6" mask="url(#mask-2)">
                    <g transform="translate(-5.000000, 21.000000)">
                        <path d="M71.3958265,45.7139852 C70.4023036,44.4275224 69.1046933,43.2844903 67.8752258,42.3594049 C67.6975433,42.2210665 67.5225865,42.0888387 67.3513776,41.9625518 C65.8072604,40.8244422 65.6292372,38.6184954 66.9655186,37.2437676 C70.3736836,33.7367605 71.4528961,30.9173718 71.4528961,30.9173718 C73.1220554,27.6098097 73.9573165,23.3912506 73.9573165,19.8450334 C73.9573165,14.2267947 71.525809,9.41125851 67.3968629,5.60533844 C63.2680872,1.79958811 56.7822501,0 49.0700119,0 L9.66453103,0 C4.84189069,0 0,3.89537328 0,8.70038556 L0,66.257161 C0,71.6321617 5.30543248,75.9893987 10.6999617,75.9893987 L45.4686619,75.9893987 C46.9253859,75.9893987 49.6802312,76.0662911 53.5797062,75.8059093 L53.5769805,75.8104923 C64.4592244,75.6317556 75.0256261,73.0165647 75.9521986,59.4008355 C76.3624186,53.3747106 74.0721372,48.8679322 71.3925897,45.7131365 L71.3958265,45.7139852 Z" id="Fill-2" fill="#F05556"></path>
                        <path d="M40.8202508,31.7602114 C40.2181601,32.5482846 39.5946873,33.2122856 38.4711127,33.4688158 C37.658426,33.6543254 36.6719678,33.8689277 35.6676913,33.8689277 L30.6661635,33.8689277 C30.0861336,33.8689277 29.6160684,33.3947147 29.6160684,32.8099489 L29.6160684,25.7518586 C29.6160684,24.976107 30.2395412,24.3475309 31.0086154,24.3475309 L35.9210514,24.3475309 C38.0439812,24.3475309 39.3467576,24.7520922 40.2974094,25.5615573 C41.2480611,26.3710224 41.7230476,27.5319972 41.7230476,29.0443107 C41.7230476,30.0666667 41.4220022,30.971967 40.8202508,31.7602114 M55.4689761,34.6198649 C56.5681141,32.7346499 57.1174286,30.492791 57.1174286,27.8939461 C57.1174286,24.9119316 56.399264,22.382225 54.9629348,20.3053396 C53.5266056,18.2287965 51.6361628,16.8068419 49.2916065,16.0398182 C46.9470502,15.2733078 43.556811,14.8897959 39.1212282,14.8897959 L19.9208462,14.8897959 C17.3135965,14.8897959 15.2,17.0212731 15.2,19.6505799 L15.2,56.9699994 C15.2,59.599135 17.3135965,61.7306122 19.9208462,61.7306122 L24.8952222,61.7306122 C27.502472,61.7306122 29.6160684,59.599135 29.6160684,56.9699994 L29.608432,43.6459992 C29.5990986,43.1387573 29.9065925,42.7412124 30.2726324,42.716569 L30.8835475,42.7194783 C32.1931118,42.7194783 34.0053235,43.1105201 35.0401458,43.8347603 C35.8005653,44.3885508 36.7247441,45.4211749 37.6964384,47.2743878 L43.378288,59.0525322 C44.1685745,60.6908005 45.8168573,61.7306122 47.6232993,61.7306122 L53.8982456,61.7306122 C57.2927273,61.7306122 59.5882407,58.2227022 58.2331971,55.0842709 C56.231432,50.4473881 53.3643737,44.58005 50.5860677,41.6211386 C49.9021822,40.8927912 50.0786688,39.7143607 50.9354772,39.2047229 C52.8586717,38.0333088 54.3696684,36.5050799 55.4689761,34.6198649 Z" id="Fill-4" fill="#FFFFFF"></path>
                    </g>
                </g>
            </g>
        </g>
    </g>
</svg>