<?xml version="1.0" encoding="UTF-8"?>
<svg width="1025px" height="260px" viewBox="0 0 1025 260" version="1.1" xmlns="http://www.w3.org/2000/svg" xmlns:xlink="http://www.w3.org/1999/xlink">
    <title>startechHEADER Copy</title>
    <defs>
        <polygon id="path-1" points="0.870876606 7.36860044e-14 0.870876606 259.922376 1025 213.135214 1025 49.953779"></polygon>
    </defs>
    <g id="Branding" stroke="none" stroke-width="1" fill="none" fill-rule="evenodd">
        <g id="Desktop-HD-Copy" transform="translate(-756.000000, -423.000000)">
            <g id="startechHEADER-Copy" transform="translate(756.000000, 423.000000)">
                <mask id="mask-2" fill="white">
                    <use xlink:href="#path-1"></use>
                </mask>
                <use id="background" fill="#222C7C" xlink:href="#path-1"></use>
                <g id="Group-6" mask="url(#mask-2)">
                    <g transform="translate(-16.000000, 68.000000)">
                        <path d="M230.157598,147.367452 C226.954795,143.220302 222.771709,139.535528 218.808294,136.553345 C218.235501,136.107385 217.671496,135.681125 217.119572,135.274016 C212.141826,131.60511 211.567936,124.493834 215.875685,120.062146 C226.862533,108.756662 230.341573,99.6678434 230.341573,99.6678434 C235.722415,89.0053075 238.415033,75.4060053 238.415033,63.9741209 C238.415033,45.8626934 230.576621,30.3389255 217.266203,18.069841 C203.956334,5.80130377 183.048043,0 158.186223,0 L31.1553961,0 C15.6087266,0 0,12.5574533 0,28.0472956 L0,213.592164 C0,230.919469 17.1030389,244.965825 34.4932977,244.965825 L146.576608,244.965825 C151.272625,244.965825 160.153377,245.213702 172.724053,244.374313 L172.715266,244.389087 C207.796184,243.812896 241.858926,235.382347 244.845903,191.489536 C246.168323,172.063212 238.785179,157.534782 230.147164,147.364716 L230.157598,147.367452 Z" id="Fill-2" fill="#F05556"></path>
                        <path d="M131.591598,102.384892 C129.650648,104.925391 127.640768,107.065921 124.018719,107.892893 C121.398873,108.490917 118.218844,109.182728 114.981373,109.182728 L98.8580272,109.182728 C96.9881939,109.182728 95.4728521,107.654014 95.4728521,105.768914 L95.4728521,83.01586 C95.4728521,80.5150818 97.4827315,78.4887508 99.9619838,78.4887508 L115.798126,78.4887508 C122.641782,78.4887508 126.841521,79.792929 129.906122,82.4023887 C132.970723,85.0118484 134.50193,88.7544646 134.50193,93.6296857 C134.50193,96.9254388 133.531454,99.8438409 131.591598,102.384892 M178.814462,111.603512 C182.357736,105.526174 184.128553,98.299129 184.128553,89.9212738 C184.128553,80.3082007 181.813417,72.1532253 177.183145,65.4580027 C172.552873,58.7638834 166.458683,54.1799509 158.900574,51.7073085 C151.342465,49.2363212 140.413404,48 126.114485,48 L64.2185174,48 C55.8135675,48 49,54.8712095 49,63.3472642 L49,183.653287 C49,192.128791 55.8135675,199 64.2185174,199 L80.2543347,199 C88.6592846,199 95.4728521,192.128791 95.4728521,183.653287 L95.4482347,140.700918 C95.4181467,139.065731 96.40941,137.784171 97.5894072,137.704729 L99.5588044,137.714108 C103.780426,137.714108 109.622424,138.974703 112.958365,141.309425 C115.409717,143.09467 118.388978,146.423524 121.521413,152.397698 L139.837902,190.366716 C142.385536,195.647975 147.69908,199 153.522478,199 L173.750923,199 C184.69366,199 192.093671,187.691606 187.725438,177.574295 C181.27238,162.626449 172.029889,143.712003 163.073508,134.173407 C160.868877,131.825445 161.437814,128.026557 164.199893,126.383646 C170.399665,122.607377 175.270641,117.68085 178.814462,111.603512 Z" id="Fill-4" fill="#FFFFFF"></path>
                    </g>
                </g>
            </g>
        </g>
    </g>
</svg>