<?xml version="1.0" encoding="UTF-8"?>
<svg width="1025px" height="259px" viewBox="0 0 1025 259" version="1.1" xmlns="http://www.w3.org/2000/svg" xmlns:xlink="http://www.w3.org/1999/xlink">
    <title>Group 5</title>
    <defs>
        <linearGradient x1="50%" y1="0%" x2="50%" y2="0.0102636673%" id="linearGradient-1">
            <stop stop-color="#FFF1F2" offset="0%"></stop>
            <stop stop-color="#56383A" offset="100%"></stop>
        </linearGradient>
        <polygon id="path-2" points="1024 0 476 35.2395807 477 230.960631 1024 258.989923"></polygon>
        <polygon id="path-4" points="0.250864234 0.0425652174 106.634482 0.0425652174 106.634482 88.9733774 0.250864234 88.9733774"></polygon>
    </defs>
    <g id="Branding" stroke="none" stroke-width="1" fill="none" fill-rule="evenodd">
        <g id="Desktop-HD" transform="translate(-1551.000000, -3813.000000)">
            <g id="Group-5" transform="translate(1551.000000, 3813.000000)">
                <polygon id="Path" fill="url(#linearGradient-1)" points="0 209.720978 1024.08668 259 1024 0 -5.70654635e-14 49.953779"></polygon>
                <mask id="mask-3" fill="white">
                    <use xlink:href="#path-2"></use>
                </mask>
                <use id="Mask" xlink:href="#path-2"></use>
                <g id="Group-29" mask="url(#mask-3)">
                    <g transform="translate(854.000000, 34.000000)">
                        <g id="Group-21" stroke-width="1" fill="none" transform="translate(0.000000, 1.000000)">
                            <polygon id="Fill-1" fill="#9E7678" points="169.994853 130.989582 169.474716 188.274459 160.558294 190.563224 154.273752 171.412148 155.43022 153.506073"></polygon>
                            <polygon id="Fill-3" fill="#9E7678" points="169.424495 195.426554 169.323899 220.55128 168.151055 220.55128 156.385183 206.734912 160.156376 197.664422"></polygon>
                            <polygon id="Fill-5" fill="#9E7678" points="169.323977 220.551593 169.240537 238.053631 163.425445 232.079197 168.151133 220.551593"></polygon>
                            <polygon id="Fill-7" fill="#9E7678" points="168.151211 120.000539 148.693229 145.596642 134.681486 139.269067 134.681486 121.734142 133.676303 107.278048 151.407771 106.100388"></polygon>
                            <polygon id="Fill-9" fill="#9E7678" points="154.273674 211.380172 159.218491 218.818851 139.625601 238.878228 125.782298 238.878228 122.648216 220.871143 115.239959 210.572096 127.207023 202.225115 137.229225 210.572096"></polygon>
                            <path d="M106.525119,213.921146 L115.240349,227.821297 L106.290394,238.878307 L90.5536972,248.806986 L83.6312661,232.870203 C83.6312661,232.870203 94.9612202,214.560873 94.9612202,210.572175 L106.525119,213.921146 Z" id="Fill-11" fill="#9E7678"></path>
                            <path d="M71.3633486,200.037439 L81.1172936,210.572175 L75.603211,227.821297 L59.011055,211.34658 C59.011055,211.34658 71.3633486,202.376316 71.3633486,200.037439" id="Fill-13" fill="#9E7678"></path>
                            <polygon id="Fill-15" fill="#9E7678" points="49.6594174 186.12014 57.2010229 199.986621 49.6594174 218.346847 39.5865275 209.495602 33.3012064 191.807989 33.3012064 181.609951 46.9269404 176.965866"></polygon>
                            <path d="M48.4021193,12.9368811 C49.6591835,15.8818151 49.2061101,19.1634472 49.2061101,19.1634472 L39.6034495,16.5043151 L31.3241376,11.2032774 L35.6146881,4.70735283 L37.6757431,0.533862264 L45.9051468,2.28469245 C45.9051468,2.28469245 47.145055,9.99194717 48.4021193,12.9368811" id="Fill-17" fill="#B6878A"></path>
                            <path d="M23.2287064,195.594746 L33.3015963,212.659076 L11.279578,220.871378 L0.201504587,199.078397 L8.6976055,183.427416 C8.6976055,183.427416 13.2571927,174.811859 13.3913211,174.457935 L24.4857706,179.489614 L23.2287064,195.594746 Z" id="Fill-19" fill="#9E7678"></path>
                        </g>
                        <path d="M49.4825728,147.828406 L36.442894,141.534835 L15.8185444,124.110197 L6,111.238222 L14.4645866,99.4651122 L22.0281018,91.0492999 L15.8185444,73.2495534 L28.1397167,29 L57.0688107,29 L61.0507629,52.8411697 L57.7073961,58.8203343 L58.8764383,71.2090263 L83.6206432,86.2795095 L83.6206432,108.569661 L90.574564,124.110197 L95,135.96969 C95,135.96969 78.1922755,153.53441 70.2565787,161 L49.4825728,147.828406 Z" id="Fill-22" fill="#B6878A"></path>
                        <g id="Group-26" stroke-width="1" fill="none" transform="translate(64.000000, 0.000000)">
                            <mask id="mask-5" fill="white">
                                <use xlink:href="#path-4"></use>
                            </mask>
                            <g id="Clip-25"></g>
                            <polygon id="Fill-24" fill="#B6878A" mask="url(#mask-5)" points="106.255061 88.9733774 90.4674847 84.9056904 82.5744774 79.3443513 59.5077766 76.2223861 52.0872876 65.3357513 38.8755212 63.7337513 34.3799591 56.4372991 20.4691781 55.1146817 4.0802146 56.473673 1.53330219 16.6682296 0.250864234 12.116847 2.14171825 8.05844696 7.11604672 7.37276 19.5670978 7.37276 27.3695066 0.0422556522 70.220273 3.78954261 82.5744774 14.3967948 96.0564774 16.2774035 106.634638 23.17916"></polygon>
                        </g>
                        <polygon id="Fill-27" fill="#B6878A" points="90.8354656 108.184025 96.9923305 94.5709136 106.950137 89 126.37726 99.0636613 128.585299 143.65046 134.466847 146.163842 148.755777 153.558204 151 198 120.177131 178.946166 117.037736 172.081921 79 162.276302 98.3885787 144.456551 102.986365 142.810847 105.920453 132.678582 100.105767 125.761325"></polygon>
                    </g>
                </g>
            </g>
        </g>
    </g>
</svg>