<?xml version="1.0" encoding="UTF-8"?>
<svg width="767px" height="194px" viewBox="0 0 767 194" version="1.1" xmlns="http://www.w3.org/2000/svg" xmlns:xlink="http://www.w3.org/1999/xlink">
    <title>saltopiaHEADER</title>
    <defs>
        <polygon id="path-1" points="767 0 356 26.3966975 356.75 173.004269 767 194"></polygon>
        <polygon id="path-3" points="0.187781415 0.0318387826 79.8199629 0.0318387826 79.8199629 66.5520863 0.187781415 66.5520863"></polygon>
    </defs>
    <g id="Branding" stroke="none" stroke-width="1" fill="none" fill-rule="evenodd">
        <g id="Tablet" transform="translate(0.000000, -318.000000)">
            <g id="saltopiaHEADER" transform="translate(0.000000, 318.000000)">
                <polygon id="background" fill="#56383A" points="0 157.0883 767 194 766.935083 0 -4.27397519e-14 37.4171163"></polygon>
                <mask id="mask-2" fill="white">
                    <use xlink:href="#path-1"></use>
                </mask>
                <use id="Mask" xlink:href="#path-1"></use>
                <g id="saltopia-logo" mask="url(#mask-2)">
                    <g transform="translate(640.000000, 26.000000)">
                        <g id="Group-21" stroke-width="1" fill="none" transform="translate(0.000000, 0.748000)">
                            <polygon id="Fill-1" fill="#9E7678" points="127.247609 97.9802074 126.858267 140.829296 120.183986 142.541291 115.479768 128.216287 116.345428 114.822542"></polygon>
                            <polygon id="Fill-3" fill="#9E7678" points="126.820675 146.179062 126.745375 164.972358 125.867456 164.972358 117.060254 154.637714 119.883135 147.852987"></polygon>
                            <polygon id="Fill-5" fill="#9E7678" points="126.745433 164.972592 126.682975 178.064116 122.330158 173.595239 125.867515 164.972592"></polygon>
                            <polygon id="Fill-7" fill="#9E7678" points="125.867573 89.7604029 111.302534 108.906289 100.814212 104.173262 100.814212 91.0571386 100.061794 80.24398 113.334472 79.36309"></polygon>
                            <polygon id="Fill-9" fill="#9E7678" points="115.479709 158.112368 119.181093 163.676501 104.51507 178.680915 94.1528314 178.680915 91.8068514 165.211615 86.2614896 157.507928 95.219292 151.264386 102.721291 157.507928"></polygon>
                            <path d="M79.738101,160.013017 L86.2617814,170.41033 L79.5624006,178.680973 L67.7828845,186.107625 L62.6011816,174.186912 C62.6011816,174.186912 71.0820829,160.491533 71.0820829,157.507987 L79.738101,160.013017 Z" id="Fill-11" fill="#9E7678"></path>
                            <path d="M53.4181791,149.628004 L60.7193776,157.507987 L56.5918772,170.41033 L44.1720178,158.087242 C44.1720178,158.087242 53.4181791,151.377484 53.4181791,149.628004" id="Fill-13" fill="#9E7678"></path>
                            <polygon id="Fill-15" fill="#9E7678" points="37.1719616 139.217864 42.81714 149.589992 37.1719616 163.323442 29.6320206 156.70271 24.9272188 143.472376 24.9272188 135.844243 35.1265986 132.370468"></polygon>
                            <path d="M36.2308261,9.67678709 C37.1717865,11.8795977 36.8326438,14.3342585 36.8326438,14.3342585 L29.6446874,12.3452277 L23.4473077,8.38005146 L26.6589478,3.52109992 L28.2017258,0.399328974 L34.3617473,1.70894995 C34.3617473,1.70894995 35.2898658,7.47397648 36.2308261,9.67678709" id="Fill-17" fill="#B6878A"></path>
                            <path d="M17.3875697,146.30487 L24.9275107,159.068989 L8.44319288,165.211791 L0.150833843,148.910641 L6.51048833,137.203707 C6.51048833,137.203707 9.92351263,130.759271 10.0239129,130.494535 L18.3285301,134.258231 L17.3875697,146.30487 Z" id="Fill-19" fill="#9E7678"></path>
                        </g>
                        <path d="M37.0395867,110.575647 L27.2788914,105.868056 L11.8407818,92.8344271 L4.49122807,83.2061899 L10.8272929,74.3999039 L16.4888715,68.1048763 L11.8407818,54.7906659 L21.0636476,21.692 L42.7181741,21.692 L45.6988166,39.5251949 L43.1961795,43.99761 L44.0712521,53.2643517 L62.59323,64.5370731 L62.59323,81.2101062 L67.798504,92.8344271 L71.1111111,101.705328 C71.1111111,101.705328 58.5298905,114.843739 52.5897197,120.428 L37.0395867,110.575647 Z" id="Fill-22" fill="#B6878A"></path>
                        <g id="Group-26" stroke-width="1" fill="none" transform="translate(47.906433, 0.000000)">
                            <mask id="mask-4" fill="white">
                                <use xlink:href="#path-3"></use>
                            </mask>
                            <g id="Clip-25"></g>
                            <polygon id="Fill-24" fill="#B6878A" mask="url(#mask-4)" points="79.5359523 66.5520863 67.7183511 63.5094564 61.8101351 59.3495748 44.5438328 57.0143448 38.9893147 48.871142 29.0998053 47.672846 25.7347062 42.2150997 15.3219579 41.2257819 3.05419572 42.2423074 1.14773497 12.4678357 0.187781415 9.06340152 1.60315752 6.02771832 5.32663146 5.51482448 14.6467165 5.51482448 20.487116 0.0316072278 52.5625435 2.83457787 61.8101351 10.7688025 71.9019246 12.1754978 79.8200799 17.3380117"></polygon>
                        </g>
                        <polygon id="Fill-27" fill="#B6878A" points="67.9937988 80.9216507 72.6024462 70.7390434 80.056243 66.572 94.598183 74.0996187 96.250984 107.450544 100.653547 109.330553 111.349353 114.861537 113.02924 148.104 89.9571509 133.851732 87.6071941 128.717277 59.1345029 121.382674 73.6475911 108.0535 77.0892091 106.822514 79.2854854 99.2435795 74.9329721 94.0694714"></polygon>
                    </g>
                </g>
            </g>
        </g>
    </g>
</svg>