<?xml version="1.0" encoding="UTF-8"?>
<svg width="320px" height="81px" viewBox="0 0 320 81" version="1.1" xmlns="http://www.w3.org/2000/svg" xmlns:xlink="http://www.w3.org/1999/xlink">
    <title>saltopiaHEADER</title>
    <defs>
        <polygon id="path-1" points="320 0 149 11.0213015 149.312044 72.2337413 320 81"></polygon>
        <polygon id="path-3" points="0.077753242 0.0132097077 33.0504534 0.0132097077 33.0504534 27.6120358 0.077753242 27.6120358"></polygon>
    </defs>
    <g id="Branding" stroke="none" stroke-width="1" fill="none" fill-rule="evenodd">
        <g id="Mobile" transform="translate(0.000000, -458.000000)">
            <g id="saltopiaHEADER" transform="translate(0.000000, 458.000000)">
                <polygon id="background" fill="#56383A" points="0 65.5884139 320 81 319.972916 0 -1.7831448e-14 15.6226104"></polygon>
                <mask id="mask-2" fill="white">
                    <use xlink:href="#path-1"></use>
                </mask>
                <use id="Mask" xlink:href="#path-1"></use>
                <g id="saltopia-logo" mask="url(#mask-2)">
                    <g transform="translate(267.000000, 11.000000)">
                        <g id="Group-21" stroke-width="1" fill="none" transform="translate(0.000000, 0.310340)">
                            <polygon id="Fill-1" fill="#9E7678" points="52.6884633 40.6513626 52.527251 58.4291759 49.7636816 59.1394719 47.8158414 53.196119 48.1742788 47.6391399"></polygon>
                            <polygon id="Fill-3" fill="#9E7678" points="52.5116857 60.6487599 52.4805067 68.4459781 52.1169937 68.4459781 48.4702615 64.1582006 49.6391107 61.3432607"></polygon>
                            <polygon id="Fill-5" fill="#9E7678" points="52.4805309 68.4460753 52.4546693 73.8776652 50.6523309 72.0235568 52.1170178 68.4460753"></polygon>
                            <polygon id="Fill-7" fill="#9E7678" points="52.117042 37.2410182 46.0862056 45.184524 41.7433846 43.2208215 41.7433846 37.7790256 41.4318365 33.2927151 46.9275546 32.9272395"></polygon>
                            <polygon id="Fill-9" fill="#9E7678" points="47.8158172 65.5998124 49.3484211 67.9083353 43.275771 74.133571 38.9851567 74.133571 38.0137744 68.5452446 35.717648 65.3490339 39.4267381 62.7586283 42.5330346 65.3490339"></polygon>
                            <path d="M33.0165574,66.3883796 L35.7177689,70.7021583 L32.9438065,74.1335953 L28.0663506,77.2148659 L25.9208018,72.2690378 C25.9208018,72.2690378 29.432425,66.5869125 29.432425,65.3490582 L33.0165574,66.3883796 Z" id="Fill-11" fill="#9E7678"></path>
                            <path d="M22.1184648,62.0797038 L25.1416173,65.3490582 L23.4325742,70.7021583 L18.2899761,65.5893876 C18.2899761,65.5893876 22.1184648,62.805552 22.1184648,62.0797038" id="Fill-13" fill="#9E7678"></path>
                            <polygon id="Fill-15" fill="#9E7678" points="15.3915153 57.7606033 17.728972 62.063933 15.3915153 67.7618535 12.2695085 65.0149542 10.3214266 59.5257728 10.3214266 56.3609095 14.5446072 54.9196622"></polygon>
                            <path d="M15.0018264,4.0148372 C15.3914428,4.92876925 15.2510166,5.94719235 15.2510166,5.94719235 L12.2747534,5.12195617 L9.70865084,3.47682986 L11.0384706,1.46088188 L11.6772771,0.165679042 L14.227911,0.709032428 C14.227911,0.709032428 14.61221,3.10090514 15.0018264,4.0148372" id="Fill-17" fill="#B6878A"></path>
                            <path d="M7.19954059,60.7009568 L10.3215474,65.9967083 L3.49600955,68.5453175 L0.0624546381,61.7820745 L2.69574907,56.9249423 C2.69574907,56.9249423 4.10895445,54.2511868 4.15052642,54.1413498 L7.58915698,55.7028832 L7.19954059,60.7009568 Z" id="Fill-19" fill="#9E7678"></path>
                        </g>
                        <path d="M15.3367039,45.8771303 L11.295166,43.9239809 L4.9028237,38.5164112 L1.85964912,34.5217171 L4.48317597,30.8680452 L6.82742337,28.2562785 L4.9028237,22.7322976 L8.72166658,8.99987234 L17.687994,8.99987234 L18.9221663,16.3987511 L17.8859181,18.2543276 L18.2482528,22.0990395 L25.9175093,26.7760197 L25.9175093,33.6935547 L28.0728181,38.5164112 L29.4444444,42.1968915 C29.4444444,42.1968915 24.2350328,47.6479342 21.7754308,49.9648085 L15.3367039,45.8771303 Z" id="Fill-22" fill="#B6878A"></path>
                        <g id="Group-26" stroke-width="1" fill="none" transform="translate(19.836257, 0.000000)">
                            <mask id="mask-4" fill="white">
                                <use xlink:href="#path-3"></use>
                            </mask>
                            <g id="Clip-25"></g>
                            <polygon id="Fill-24" fill="#B6878A" mask="url(#mask-4)" points="32.9328553 27.6120358 28.0396298 26.3496681 25.5932591 24.6237597 18.4439308 23.6548877 16.1440131 20.2763249 12.0491381 19.7791595 10.6557768 17.5147754 6.34424818 17.1043138 1.26462792 17.5260637 0.475234012 5.17282546 0.077753242 3.76034744 0.66380741 2.50086186 2.20555834 2.28806548 6.06465605 2.28806548 8.48294648 0.0131136371 21.7641782 1.17604827 25.5932591 4.46790742 29.7718906 5.05153632 33.0505018 7.19343038"></polygon>
                        </g>
                        <polygon id="Fill-27" fill="#B6878A" points="28.1536823 33.5738763 30.0619504 29.3491776 33.1482881 27.6202979 39.1695602 30.7434588 39.8539231 44.5805448 41.6768591 45.3605488 46.1055916 47.6553184 46.8011696 61.4474043 37.2478828 55.5342292 36.2748538 53.4039765 24.4853801 50.3608966 30.4947057 44.8307074 31.9197506 44.319979 32.8291463 41.1755276 31.0269338 39.0288233"></polygon>
                    </g>
                </g>
            </g>
        </g>
    </g>
</svg>