<?xml version="1.0" encoding="UTF-8"?>
<svg width="768px" height="262px" viewBox="0 0 768 262" version="1.1" xmlns="http://www.w3.org/2000/svg" xmlns:xlink="http://www.w3.org/1999/xlink">
    <title>Group 5</title>
    <defs>
        <linearGradient x1="50%" y1="0%" x2="50%" y2="0.0102636673%" id="linearGradient-1">
            <stop stop-color="#FFF1F2" offset="0%"></stop>
            <stop stop-color="#56383A" offset="100%"></stop>
        </linearGradient>
        <polygon id="path-2" points="768 0 358 26.3801027 358 234.434883 767.251825 262"></polygon>
        <polygon id="path-4" points="0.242658394 0.0411214953 103.146438 0.0411214953 103.146438 85.9555888 0.242658394 85.9555888"></polygon>
    </defs>
    <g id="Branding" stroke="none" stroke-width="1" fill="none" fill-rule="evenodd">
        <g id="Tablet" transform="translate(0.000000, -279.000000)">
            <g id="Group-5" transform="translate(0.000000, 279.000000)">
                <polygon id="Path" fill="url(#linearGradient-1)" points="0 210.354628 767.251462 262 768 0 -2.55795385e-12 50.0795508"></polygon>
                <mask id="mask-3" fill="white">
                    <use xlink:href="#path-2"></use>
                </mask>
                <use id="Mask" xlink:href="#path-2"></use>
                <g id="Group-29" mask="url(#mask-3)">
                    <g transform="translate(604.000000, 43.000000)">
                        <g id="Group-21" stroke-width="1" fill="none" transform="translate(0.000000, 1.495327)">
                            <polygon id="Fill-1" fill="#9E7678" points="164.245027 125.468383 163.742483 180.338708 155.127645 182.531001 149.055669 164.187142 150.173022 147.035806"></polygon>
                            <polygon id="Fill-3" fill="#9E7678" points="163.693961 187.189343 163.596767 211.255064 162.463593 211.255064 151.095685 198.021055 154.739322 189.332885"></polygon>
                            <polygon id="Fill-5" fill="#9E7678" points="163.596843 211.255364 163.516224 228.019692 157.89782 222.29708 162.463668 211.255364"></polygon>
                            <polygon id="Fill-7" fill="#9E7678" points="162.463744 114.942527 143.6639 139.459757 130.126083 133.398889 130.126083 116.60306 129.154898 102.756288 146.286625 101.628266"></polygon>
                            <polygon id="Fill-9" fill="#9E7678" points="149.055594 202.470517 153.83316 209.595656 134.90297 228.809533 121.527897 228.809533 118.49982 211.561445 111.342137 201.696502 122.904432 193.701345 132.587648 201.696502"></polygon>
                            <path d="M102.922064,204.90439 L111.342513,218.21865 L102.695278,228.809608 L87.4908516,238.319794 L80.8025615,223.054745 C80.8025615,223.054745 91.7492966,205.517152 91.7492966,201.696577 L102.922064,204.90439 Z" id="Fill-11" fill="#9E7678"></path>
                            <path d="M68.9495883,191.605879 L78.3736204,201.696577 L73.0460436,218.21865 L57.0150929,202.438341 C57.0150929,202.438341 68.9495883,193.846173 68.9495883,191.605879" id="Fill-13" fill="#9E7678"></path>
                            <polygon id="Fill-15" fill="#9E7678" points="47.9797607 178.275193 55.2662825 191.557203 47.9797607 209.143548 38.2475714 200.665382 32.1748421 183.7233 32.1748421 173.955108 45.3397056 169.506771"></polygon>
                            <path d="M46.7649888,12.3915928 C47.9795346,15.212398 47.5417858,18.3557096 47.5417858,18.3557096 L38.2639211,15.8086597 L30.2646447,10.7310602 L34.4100736,4.50893834 L36.4014165,0.511360019 L44.3524727,2.18839288 C44.3524727,2.18839288 45.5504429,9.57078752 46.7649888,12.3915928" id="Fill-17" fill="#B6878A"></path>
                            <path d="M22.4430296,187.350446 L32.1752188,203.695516 L10.8980628,211.56167 L0.194688991,190.687261 L8.40342179,175.695967 C8.40342179,175.695967 12.8087876,167.443556 12.9383794,167.104549 L23.6575755,171.924143 L22.4430296,187.350446 Z" id="Fill-19" fill="#9E7678"></path>
                        </g>
                        <path d="M48.522584,142.083426 L35.9957015,136.023347 L16.1824218,119.245162 L6.75,106.850738 L14.8817096,95.5144099 L22.1477832,87.410824 L16.1824218,70.2714476 L28.0190537,27.6635514 L55.8104867,27.6635514 L59.6358452,50.6202144 L56.4239592,56.3775521 L57.5470278,68.306624 L81.318146,82.8179927 L81.318146,104.28118 L87.998598,119.245162 L92.25,130.664669 C92.25,130.664669 76.1032535,147.577739 68.4796346,154.766355 L48.522584,142.083426 Z" id="Fill-22" fill="#B6878A"></path>
                        <g id="Group-26" stroke-width="1" fill="none" transform="translate(61.500000, 0.000000)">
                            <mask id="mask-5" fill="white">
                                <use xlink:href="#path-4"></use>
                            </mask>
                            <g id="Clip-25"></g>
                            <polygon id="Fill-24" fill="#B6878A" mask="url(#mask-5)" points="102.779428 85.9555888 87.5082679 82.0258692 79.8734431 76.6531589 57.5612606 73.6370841 50.3834978 63.1197009 37.603892 61.5720374 33.255381 54.5230654 19.7996255 53.2453084 3.94674964 54.5582056 1.48314745 16.1028785 0.242658394 11.7058692 2.07166204 7.7851215 6.88327883 7.12269159 18.9270526 7.12269159 26.4742423 0.0408224299 67.9233482 3.66100935 79.8734431 13.908486 92.9144431 15.7253084 103.146589 22.392972"></polygon>
                        </g>
                        <polygon id="Fill-27" fill="#B6878A" points="87.8423212 104.403762 93.74265 91.3310668 103.285548 85.9813084 121.903208 95.6454606 124.019245 138.462244 129.655729 140.875849 143.349286 147.976669 145.5 190.654206 115.961417 172.356774 112.95283 165.765027 76.5 156.348674 95.0807213 139.236334 99.4869334 137.655962 102.298768 127.92593 96.7263605 121.283276"></polygon>
                    </g>
                </g>
            </g>
        </g>
    </g>
</svg>