<?xml version="1.0" encoding="UTF-8"?>
<svg width="322px" height="110px" viewBox="0 0 322 110" version="1.1" xmlns="http://www.w3.org/2000/svg" xmlns:xlink="http://www.w3.org/1999/xlink">
    <title>Group 5</title>
    <defs>
        <linearGradient x1="50%" y1="0%" x2="50%" y2="0.0102636673%" id="linearGradient-1">
            <stop stop-color="#FFF1F2" offset="0%"></stop>
            <stop stop-color="#56383A" offset="100%"></stop>
        </linearGradient>
        <polygon id="path-2" points="322 0 150 11.0756157 150 98.4268594 321.686131 110"></polygon>
        <polygon id="path-4" points="0.101475328 0.017305296 43.133965 0.017305296 43.133965 36.1729769 0.101475328 36.1729769"></polygon>
    </defs>
    <g id="Branding" stroke="none" stroke-width="1" fill="none" fill-rule="evenodd">
        <g id="Mobile" transform="translate(0.000000, -667.000000)">
            <g id="Group-5" transform="translate(0.000000, 667.000000)">
                <polygon id="Path" fill="url(#linearGradient-1)" points="0 88.3168284 321.68616 110 322 0 -1.07247544e-12 21.0257656"></polygon>
                <mask id="mask-3" fill="white">
                    <use xlink:href="#path-2"></use>
                </mask>
                <use id="Mask" xlink:href="#path-2"></use>
                <g id="Group-29" mask="url(#mask-3)">
                    <g transform="translate(253.000000, 18.000000)">
                        <g id="Group-21" stroke-width="1" fill="none" transform="translate(0.000000, 0.629283)">
                            <polygon id="Fill-1" fill="#9E7678" points="68.6842841 52.8012779 68.4741291 75.8925397 64.8715608 76.8151297 62.3323709 69.0954222 62.7996272 61.8775683"></polygon>
                            <polygon id="Fill-3" fill="#9E7678" points="68.4538382 78.775515 68.4131936 88.9031728 67.9393207 88.9031728 63.1854681 83.3338605 64.7091711 79.6775889"></polygon>
                            <polygon id="Fill-5" fill="#9E7678" points="68.4132251 88.903299 68.379512 95.9582872 66.0299973 93.5500213 67.9393522 88.903299"></polygon>
                            <polygon id="Fill-7" fill="#9E7678" points="67.9393837 48.3716468 60.0776307 58.6893146 54.416362 56.138699 54.416362 49.0704542 54.0102302 43.2432713 61.174407 42.768562"></polygon>
                            <polygon id="Fill-9" fill="#9E7678" points="62.3323394 85.2063425 64.3302303 88.2048388 56.4139694 96.2906784 50.8207569 96.2906784 49.5544702 89.0321081 46.5612571 84.8806111 51.396399 81.5159827 55.4457437 84.8806111"></polygon>
                            <path d="M43.0401358,86.2305973 L46.5614147,91.8336821 L42.9452982,96.29071 L36.5870834,100.292913 L33.7901621,93.8688719 C33.7901621,93.8688719 38.3678877,86.488468 38.3678877,84.8806427 L43.0401358,86.2305973 Z" id="Fill-11" fill="#9E7678"></path>
                            <path d="M28.8334642,80.6341408 L32.7744231,84.8806427 L30.5465273,91.8336821 L23.8426752,85.192802 C23.8426752,85.192802 28.8334642,81.5769311 28.8334642,80.6341408" id="Fill-13" fill="#9E7678"></path>
                            <polygon id="Fill-15" fill="#9E7678" points="20.0642636 75.0241437 23.1113545 80.6136563 20.0642636 88.0145763 15.994439 84.4466814 13.454934 77.3168886 13.454934 73.206108 18.9602405 71.3340995"></polygon>
                            <path d="M19.556268,5.2147953 C20.064169,6.40188418 19.8811104,7.72469447 19.8811104,7.72469447 L16.0012761,6.65281097 L12.6561242,4.51598785 L14.3896672,1.89751155 L15.2224105,0.215197341 L18.5473977,0.920948669 C18.5473977,0.920948669 19.048367,4.02770641 19.556268,5.2147953" id="Fill-17" fill="#B6878A"></path>
                            <path d="M9.38526692,78.8433125 L13.4550915,85.7218629 L4.55737173,89.0322028 L0.0814153962,80.2475557 L3.5141582,73.9387196 C3.5141582,73.9387196 5.35640209,70.4658297 5.410595,70.3231644 L9.89316792,72.3514104 L9.38526692,78.8433125 Z" id="Fill-19" fill="#9E7678"></path>
                        </g>
                        <path d="M20.2912624,59.793442 L15.0527479,57.2431585 L6.76719459,50.1823392 L2.82272727,44.9663521 L6.22326038,40.1956475 L9.26180025,36.7853884 L6.76719459,29.5725675 L11.7170588,11.6417445 L23.3389308,11.6417445 L24.9386262,21.3026736 L23.5954738,23.7255532 L24.0651207,28.7457043 L34.0057701,34.8525719 L34.0057701,43.8849966 L36.7994137,50.1823392 L38.5772727,54.9880482 C38.5772727,54.9880482 31.8249969,62.1056317 28.6369381,65.1308411 L20.2912624,59.793442 Z" id="Fill-22" fill="#B6878A"></path>
                        <g id="Group-26" stroke-width="1" fill="none" transform="translate(25.718182, 0.000000)">
                            <mask id="mask-5" fill="white">
                                <use xlink:href="#path-4"></use>
                            </mask>
                            <g id="Clip-25"></g>
                            <polygon id="Fill-24" fill="#B6878A" mask="url(#mask-5)" points="42.9804883 36.1729769 36.5943666 34.5192199 33.4016216 32.2582044 24.0710726 30.9889396 21.0694627 26.5628741 15.7252639 25.9115657 13.9067957 22.9451234 8.27984341 22.4074006 1.65045894 22.9599115 0.620225295 6.77662804 0.101475328 4.92621994 0.8663314 3.27623863 2.87846206 2.99746604 7.91494925 2.99746604 11.0710468 0.0171794393 28.4043092 1.54067477 33.4016216 5.85315452 38.8551307 6.61773396 43.1340281 9.42370903"></polygon>
                        </g>
                        <polygon id="Fill-27" fill="#B6878A" points="36.7340616 43.9365833 39.2014718 38.4351573 43.1921383 36.1838006 50.977705 40.250798 51.8625933 58.2695276 54.2196683 59.2852531 59.9460651 62.2735148 60.8454545 80.2336449 48.4929564 72.5334758 47.2348199 69.759449 31.9909091 65.7967336 39.7610289 58.5952907 41.6036267 57.9302174 42.7794846 53.8354955 40.4492053 51.0400452"></polygon>
                    </g>
                </g>
            </g>
        </g>
    </g>
</svg>