<?xml version="1.0" encoding="UTF-8"?>
<svg width="1026px" height="414px" viewBox="0 0 1026 414" version="1.1" xmlns="http://www.w3.org/2000/svg" xmlns:xlink="http://www.w3.org/1999/xlink">
    <title>Group 5</title>
    <defs>
        <linearGradient x1="50%" y1="0%" x2="50%" y2="0.0102636673%" id="linearGradient-1">
            <stop stop-color="#FFF1F2" offset="0%"></stop>
            <stop stop-color="#56383A" offset="100%"></stop>
        </linearGradient>
        <polygon id="path-2" points="0.323544526 0.055 137.528584 0.055 137.528584 114.9656 0.323544526 114.9656"></polygon>
    </defs>
    <g id="Branding" stroke="none" stroke-width="1" fill="none" fill-rule="evenodd">
        <g id="Desktop" transform="translate(1.000000, -191.000000)">
            <g id="Group-5" transform="translate(-1.000000, 191.000000)">
                <polygon id="Path" fill="url(#linearGradient-1)" points="0 281 1024 349.989923 1026 2.84217094e-14 -3.41726647e-12 66.8982373"></polygon>
                <g id="Group-29" transform="translate(806.000000, 57.000000)">
                    <g id="Group-21" transform="translate(0.000000, 2.000000)">
                        <polygon id="Fill-1" fill="#9E7678" points="218.99337 167.813963 218.32331 241.203022 206.836861 244.135214 198.740893 219.600302 200.230695 196.66039"></polygon>
                        <polygon id="Fill-3" fill="#9E7678" points="218.258615 250.365746 218.129023 282.553648 216.618124 282.553648 201.460913 264.853161 206.319096 253.232733"></polygon>
                        <polygon id="Fill-5" fill="#9E7678" points="218.129123 282.554049 218.021633 304.976339 210.530426 297.322345 216.618224 282.554049"></polygon>
                        <polygon id="Fill-7" fill="#9E7678" points="216.618325 153.73563 191.551866 186.527425 173.501444 178.421014 173.501444 155.956592 172.206531 137.436536 195.048834 135.927806"></polygon>
                        <polygon id="Fill-9" fill="#9E7678" points="198.740792 270.804316 205.110879 280.334191 179.870627 306.03275 162.037196 306.03275 157.99976 282.963433 148.456182 269.769071 163.872577 259.075549 176.783531 269.769071"></polygon>
                        <path d="M137.229418,274.059621 L148.456684,291.867445 L136.927038,306.032851 L116.654469,318.752725 L107.736749,298.335722 C107.736749,298.335722 122.332395,274.87919 122.332395,269.769171 L137.229418,274.059621 Z" id="Fill-11" fill="#9E7678"></path>
                        <path d="M91.9327844,256.272863 L104.498161,269.769171 L97.3947248,291.867445 L76.0201239,270.761281 C76.0201239,270.761281 91.9327844,259.269256 91.9327844,256.272863" id="Fill-13" fill="#9E7678"></path>
                        <polygon id="Fill-15" fill="#9E7678" points="63.9730142 238.44307 73.6883766 256.207759 63.9730142 279.729495 50.9967619 268.389948 42.8997894 245.729913 42.8997894 232.664957 60.4529408 226.715306"></polygon>
                        <path d="M62.3533183,16.5737553 C63.9727128,20.3465824 63.3890477,24.5507616 63.3890477,24.5507616 L51.0185615,21.1440824 L40.3528596,14.3527931 L45.8800982,6.03070503 L48.535222,0.683944025 L59.1366303,2.92697547 C59.1366303,2.92697547 60.7339239,12.8009283 62.3533183,16.5737553" id="Fill-17" fill="#B6878A"></path>
                        <path d="M29.9240394,250.581221 L42.9002917,272.442753 L14.5307505,282.963734 L0.259585321,255.044212 L11.2045624,234.993356 C11.2045624,234.993356 17.0783835,223.955756 17.2511725,223.502334 L31.5434339,229.948542 L29.9240394,250.581221 Z" id="Fill-19" fill="#9E7678"></path>
                    </g>
                    <path d="M64.6967787,190.036583 L47.9942687,181.931227 L21.5765625,159.490405 L9,142.912861 L19.8422795,127.750523 L29.5303776,116.911977 L21.5765625,93.9880612 L37.3587382,37 L74.4139822,37 L79.5144603,67.7045367 L75.2319456,75.404976 L76.7293704,91.3601097 L108.424195,110.769065 L108.424195,139.476078 L117.331464,159.490405 L123,174.763995 C123,174.763995 101.471005,197.385225 91.3061794,207 L64.6967787,190.036583 Z" id="Fill-22" fill="#B6878A"></path>
                    <g id="Group-26" transform="translate(82.000000, 0.000000)">
                        <mask id="mask-3" fill="white">
                            <use xlink:href="#path-2"></use>
                        </mask>
                        <g id="Clip-25"></g>
                        <polygon id="Fill-24" fill="#B6878A" mask="url(#mask-3)" points="137.039238 114.9656 116.677691 109.7096 106.497924 102.5236 76.7483474 98.4896 67.1779971 84.4226 50.1385226 82.3526 44.340508 72.9246 26.3995007 71.2156 5.26233285 72.9716 1.97752993 21.5376 0.323544526 15.6566 2.76221606 10.4126 9.17770511 9.5266 25.2360701 9.5266 35.2989898 0.0546 90.5644642 4.8966 106.497924 18.6026 123.885924 21.0326 137.528785 29.9506"></polygon>
                    </g>
                    <polygon id="Fill-27" fill="#B6878A" points="117.123095 139.640032 124.9902 122.155302 137.714064 115 162.53761 127.925804 165.358993 185.193251 172.874305 188.421448 191.132381 197.918794 194 255 154.615223 230.527185 150.603774 221.710724 102 209.116351 126.774295 186.228597 132.649245 184.114849 136.398357 171.100931 128.968481 162.216381"></polygon>
                </g>
                <polygon id="Rectangle" fill="#FFFFFF" transform="translate(512.000000, 347.050881) scale(-1, -1) translate(-512.000000, -347.050881) " points="0.880534174 281 1024 294.582939 1024 413.101763 -3.80029341e-13 344.111839"></polygon>
            </g>
        </g>
    </g>
</svg>