<?xml version="1.0" encoding="UTF-8"?>
<svg width="321px" height="129px" viewBox="0 0 321 129" version="1.1" xmlns="http://www.w3.org/2000/svg" xmlns:xlink="http://www.w3.org/1999/xlink">
    <title>Group 5</title>
    <defs>
        <linearGradient x1="50%" y1="0%" x2="50%" y2="0.0102636673%" id="linearGradient-1">
            <stop stop-color="#FFF1F2" offset="0%"></stop>
            <stop stop-color="#56383A" offset="100%"></stop>
        </linearGradient>
        <polygon id="path-2" points="0.100864031 0.0172334897 42.8741218 0.0172334897 42.8741218 36.0228816 0.100864031 36.0228816"></polygon>
    </defs>
    <g id="Branding" stroke="none" stroke-width="1" fill="none" fill-rule="evenodd">
        <g id="Mobile" transform="translate(1.000000, -113.000000)">
            <g id="Group-5" transform="translate(-1.000000, 113.000000)">
                <polygon id="Path" fill="url(#linearGradient-1)" points="0 87.5139481 320.374269 109 321 0 -1.06914477e-12 20.8346223"></polygon>
                <g id="Group-29" transform="translate(252.000000, 18.000000)">
                    <g id="Group-21" transform="translate(0.000000, 0.626672)">
                        <polygon id="Fill-1" fill="#9E7678" points="68.2705234 52.5821855 68.0616343 75.5776329 64.4807683 76.4963947 61.9568747 68.8087192 62.4213162 61.6208149"></polygon>
                        <polygon id="Fill-3" fill="#9E7678" points="68.0414657 78.4486456 68.0010659 88.5342799 67.5300476 88.5342799 62.8048328 82.9880769 64.3193568 79.3469765"></polygon>
                        <polygon id="Fill-5" fill="#9E7678" points="68.0010972 88.5344057 67.9675873 95.5601201 65.6322262 93.161847 67.530079 88.5344057"></polygon>
                        <polygon id="Fill-7" fill="#9E7678" points="67.5301103 48.1709346 59.7157173 58.4457904 54.0885526 55.9057583 54.0885526 48.8668424 53.6848674 43.0638386 60.8058865 42.5910991"></polygon>
                        <polygon id="Fill-9" fill="#9E7678" points="61.9568434 84.8527892 63.9426988 87.8388436 56.0741262 95.8911321 50.5146077 95.8911321 49.2559493 88.6626803 46.2807676 84.5284094 51.0867822 81.1777421 55.1117332 84.5284094"></polygon>
                        <path d="M42.7808578,85.872794 L46.2809242,91.4526294 L42.6865915,95.8911635 L36.3666793,99.8767603 L33.5866069,93.4793745 C33.5866069,93.4793745 38.1367558,86.1295946 38.1367558,84.5284409 L42.7808578,85.872794 Z" id="Fill-11" fill="#9E7678"></path>
                        <path d="M28.6597686,80.2995593 L32.5769868,84.5284409 L30.3625121,91.4526294 L23.6990446,84.8393048 C23.6990446,84.8393048 28.6597686,81.2384376 28.6597686,80.2995593" id="Fill-13" fill="#9E7678"></path>
                        <polygon id="Fill-15" fill="#9E7678" points="19.9433945 74.7128402 22.9721295 80.2791598 19.9433945 87.6493706 15.8980869 84.0962802 13.3738801 76.9960716 13.3738801 72.9023483 18.8460222 71.0381074"></polygon>
                        <path d="M19.4384592,5.19315714 C19.9433005,6.37532034 19.7613447,7.6926418 19.7613447,7.6926418 L15.9048829,6.62520595 L12.5798824,4.49724932 L14.3029824,1.88963806 L15.1307093,0.214304406 L18.4356664,0.917127305 C18.4356664,0.917127305 18.9336178,4.01099394 19.4384592,5.19315714" id="Fill-17" fill="#B6878A"></path>
                        <path d="M9.32872917,78.5161619 L13.3740367,85.3661706 L4.52991769,88.6627746 L0.080924942,79.9145783 L3.49298857,73.6319199 C3.49298857,73.6319199 5.32413461,70.1734403 5.37800106,70.031367 L9.83357052,72.051197 L9.32872917,78.5161619 Z" id="Fill-19" fill="#9E7678"></path>
                    </g>
                    <path d="M20.1690259,59.5453364 L14.9620687,57.005635 L6.72642836,49.9741137 L2.80572289,44.7797697 L6.18577086,40.0288606 L9.20600627,36.632752 L6.72642836,29.4498598 L11.6464741,11.5934386 L23.1983348,11.5934386 L24.7883935,21.2142807 L23.4533324,23.6271069 L23.9201501,28.6264275 L33.8009161,34.7079554 L33.8009161,43.7029011 L36.5777305,49.9741137 L38.3448795,54.7598821 C38.3448795,54.7598821 31.63328,61.8479319 28.4644264,64.8605887 L20.1690259,59.5453364 Z" id="Fill-22" fill="#B6878A"></path>
                    <g id="Group-26" transform="translate(25.563253, 0.000000)">
                        <mask id="mask-3" fill="white">
                            <use xlink:href="#path-2"></use>
                        </mask>
                        <g id="Clip-25"></g>
                        <polygon id="Fill-24" fill="#B6878A" mask="url(#mask-3)" points="42.7215697 36.0228816 36.3739186 34.3759867 33.2004071 32.1243529 23.9260661 30.8603548 20.9425382 26.4526547 15.6305334 25.8040489 13.8230198 22.8499154 8.22996484 22.3144239 1.64051641 22.8646422 0.616488998 6.74850925 0.100864031 4.90577919 0.861112536 3.26264428 2.86112192 2.98502843 7.86726883 2.98502843 11.0043537 0.0171081553 28.2331989 1.53428193 33.2004071 5.82886757 38.6210637 6.59027448 42.8741846 9.38460651"></polygon>
                    </g>
                    <polygon id="Fill-27" fill="#B6878A" points="36.5127721 43.7542738 38.9653184 38.2756753 42.9319447 36.0336604 50.6706104 40.0837822 51.550168 58.0277454 53.8930438 59.0392562 59.5849442 62.0151184 60.4789157 79.9007252 48.2008301 72.232507 46.9502728 69.4699907 31.7981928 65.5237181 39.5215046 58.3521567 41.3530024 57.689843 42.5217769 53.6121117 40.2055354 50.8282608"></polygon>
                </g>
                <polygon id="Rectangle" fill="#FFFFFF" transform="translate(160.000000, 108.500000) scale(-1, -1) translate(-160.000000, -108.500000) " points="0.275166929 88 320 92.2156931 320 129 -1.18759169e-13 107.587819"></polygon>
            </g>
        </g>
    </g>
</svg>