<?xml version="1.0" encoding="UTF-8"?>
<svg width="300px" height="306px" viewBox="0 0 300 306" version="1.1" xmlns="http://www.w3.org/2000/svg" xmlns:xlink="http://www.w3.org/1999/xlink">
    <title>Group 8</title>
    <g id="Branding" stroke="none" stroke-width="1" fill="none" fill-rule="evenodd">
        <g id="Desktop" transform="translate(-353.000000, -4295.000000)" fill-rule="nonzero">
            <g id="startech-content" transform="translate(19.000000, 4295.000000)">
                <g id="Group-8" transform="translate(334.000000, 0.000000)">
                    <g id="starfinaltests1-01" transform="translate(14.000000, 0.000000)" fill="#231F20">
                        <path d="M248.460169,82.9084538 C245.114367,81.0152295 240.858477,82.176827 238.953733,85.5031288 C238.658009,86.0364392 238.43248,86.6053423 238.282691,87.1958453 L181.343487,91.4338144 L176,115.897893 L191.993181,121.5444 C191.722543,125.010485 194.080639,128.138051 197.502698,128.851726 C200.924756,129.5654 204.348071,127.643554 205.501019,124.361475 C206.671121,121.093469 205.231302,117.468645 202.131091,115.877492 C199.03088,114.286339 195.225036,115.218879 193.223426,118.060122 L180.336923,113.513263 L184.400459,94.9798702 L238.332398,90.9519462 C239.125333,93.6138863 241.439223,95.5486169 244.212812,95.8687808 C246.9864,96.1889448 249.684555,94.8327704 251.069779,92.422262 L251.069779,92.422262 C251.99718,90.8176083 252.243222,88.9116556 251.753462,87.1261468 C251.263702,85.340638 250.07852,83.8227852 248.460169,82.9084538 L248.460169,82.9084538 Z M195.870316,120.951331 C196.470836,119.272675 198.326306,118.395886 200.014625,118.992969 C201.702944,119.590052 202.584779,121.434904 201.984259,123.11356 C201.699735,123.921319 201.099312,124.580678 200.319079,124.942188 C199.543437,125.314222 198.650513,125.362982 197.83856,125.077641 C197.026606,124.7923 196.362821,124.196473 195.994583,123.42245 C195.618833,122.649329 195.574003,121.757863 195.870316,120.951331 L195.870316,120.951331 Z M247.826407,90.5318559 C247.178995,91.6695009 245.904925,92.306043 244.600463,92.14358 C243.296001,91.981117 242.219203,91.0517881 241.874011,89.7905202 C241.647535,88.958186 241.75911,88.0706963 242.184679,87.3194012 C242.612409,86.5781126 243.318593,86.0359517 244.1481,85.8120186 C244.431694,85.7347084 244.723948,85.6931969 245.01797,85.6884627 C245.581248,85.6900943 246.134152,85.8392486 246.621016,86.1209085 C247.373187,86.5431336 247.924003,87.2472349 248.150485,88.0760111 C248.376966,88.9047872 248.260255,89.7892235 247.826407,90.5318559 L247.826407,90.5318559 Z" id="Shape"></path>
                        <path d="M200.602912,222.223717 C199.997779,222.084052 199.376207,222.029346 198.75604,222.061168 L167.558881,143.775232 L152.30971,143 L100.347722,186.763101 L92.7730514,168.170035 L76.3009513,172.558849 C75.6980784,171.523632 74.8383355,170.662175 73.8051786,170.0581 C72.2063794,169.111357 70.2929265,168.854217 68.5016615,169.345387 C65.7601167,170.069652 63.7252476,172.37929 63.3480262,175.194919 C62.9708048,178.010547 64.325724,180.776142 66.7795784,182.199235 C67.8448531,182.819079 69.0542777,183.146835 70.2861391,183.149519 C70.8966954,183.14455 71.5043528,183.064767 72.0955743,182.911948 C73.8923101,182.437729 75.4247665,181.262455 76.3508668,179.648471 C76.9540772,178.603179 77.2725256,177.417397 77.2743027,176.209942 L90.5642925,172.671383 L97.3403155,189.326368 L55.4113336,224.511902 C54.0077459,223.374295 52.2180801,222.827359 50.4197881,222.986445 C47.5956553,223.222176 45.1919391,225.14068 44.3311067,227.846071 C43.4702742,230.551462 44.3221555,233.510004 46.488946,235.340143 C47.7481004,236.407525 49.3445007,236.992414 50.9938158,236.990637 C51.1932833,237.003121 51.3933338,237.003121 51.5928013,236.990637 C53.7749843,236.829966 55.7530535,235.64548 56.9279319,233.795914 C58.1028103,231.946347 58.3363044,229.649252 57.5576981,227.600326 L98.7379482,192.989965 L98.7379482,192.989965 L100.447553,191.552035 L100.69713,191.339471 L100.69713,191.339471 L153.507681,146.826145 L164.888404,147.413821 L173.411468,168.795222 L153.033484,170.370694 L152.159964,187.400792 C148.737653,188.161775 146.404704,191.341784 146.701043,194.841767 C146.997383,198.341751 149.831636,201.082513 153.332977,201.254939 L153.694864,201.254939 C157.139007,201.267186 160.080399,198.76745 160.630483,195.360718 C161.180567,191.953987 159.175908,188.652426 155.903623,187.575844 L156.602439,173.821727 L174.871495,172.408804 L195.124691,223.186505 C192.529044,224.883346 191.35887,228.090492 192.250221,231.064693 C193.141571,234.038894 195.881478,236.069534 198.98066,236.052857 C202.5479,236.062166 205.551641,233.382335 205.954705,229.830861 C206.357769,226.279387 204.031238,222.992198 200.552997,222.198709 L200.602912,222.223717 Z M73.0689256,177.77291 C72.648871,178.536134 71.9405509,179.098389 71.1029396,179.333481 C70.2653282,179.568574 69.3685843,179.456814 68.6139713,179.023284 C67.3367576,178.283993 66.7148297,176.776929 67.0979784,175.349712 C67.4811272,173.922495 68.7736947,172.931446 70.2487025,172.933955 C71.7257886,172.931022 73.0184256,173.928132 73.3933761,175.359687 C73.6026537,176.175757 73.4862674,177.041424 73.0689256,177.77291 Z M53.4895886,232.139185 C52.9318745,232.802161 52.131286,233.212266 51.2683508,233.277026 C49.9538748,233.388676 48.7019994,232.694807 48.0978675,231.519742 C47.4937355,230.344677 47.6566735,228.920512 48.510522,227.91292 C49.0634782,227.250663 49.8600017,226.840334 50.7192808,226.775062 L51.0062947,226.775062 C52.7006425,226.769533 54.1139564,228.071285 54.2507992,229.763474 C54.3156911,230.624509 54.0425688,231.476914 53.4895886,232.139185 L53.4895886,232.139185 Z M157.001763,194.440399 C156.901091,196.240758 155.367311,197.621119 153.570075,197.528824 C152.707384,197.488054 151.897567,197.100369 151.32388,196.453502 C150.744586,195.812646 150.443943,194.966959 150.488437,194.10346 C150.532931,193.239961 150.918896,192.429795 151.560978,191.852125 C152.199551,191.266233 153.04535,190.960394 153.910162,191.002664 C154.774974,191.044934 155.587049,191.431806 156.165679,192.077192 C156.731097,192.716673 157.030324,193.54902 157.001763,194.402888 L157.001763,194.440399 Z M202.200207,229.838496 C201.861556,231.272463 200.605884,232.301147 199.136016,232.348772 C197.666148,232.396397 196.346774,231.451146 195.916374,230.042097 C195.485974,228.633047 196.051335,227.109799 197.296013,226.324945 C197.812584,226.001302 198.408866,225.828122 199.018097,225.824795 C199.269939,225.829236 199.52073,225.858554 199.766828,225.912321 C200.619533,226.097553 201.362973,226.616614 201.831707,227.353994 C202.300441,228.091374 202.455581,228.985895 202.262601,229.838496 L202.200207,229.838496 Z" id="Shape"></path>
                        <path d="M80.810358,142 L125.169371,109.626391 L105.022002,92.5659736 L111.124629,70.401159 L128.177183,81.4960465 L139.127111,68.4667298 C142.291926,69.930752 146.047234,68.8192003 147.915141,65.8655182 C149.783048,62.9118362 149.18788,59.0263259 146.522351,56.7727932 L146.522351,56.7727932 C143.863328,54.5234082 139.959042,54.5893652 137.37688,56.927292 C134.794718,59.2652188 134.326823,63.1578973 136.280875,66.0455732 L127.443874,76.5663721 L112.118947,66.5822213 L126.598703,13.9782271 L127.071004,13.9782271 C130.331024,13.9604517 133.141973,11.6729544 133.834556,8.47417775 C134.527139,5.27540112 132.915768,2.02249878 129.957365,0.647224175 C126.998962,-0.728050426 123.486269,0.142825358 121.505317,2.74267729 C119.524366,5.34252922 119.605978,8.97469328 121.701687,11.4821894 C122.101815,11.9557494 122.561371,12.3752486 123.068874,12.7302083 L100.696719,93.8514331 L119.029457,109.389268 L80.6239233,137.407291 L61.8064545,124.689979 L77.6782561,111.897786 L68.8163967,97.358366 C69.6448447,96.4898425 70.2319649,95.418344 70.5191663,94.2507991 C71.1859857,91.4920635 70.1309198,88.601757 67.8465254,86.9292169 C65.562131,85.2566768 62.4989398,85.1317641 60.0870004,86.6127942 C57.675061,88.0938243 56.3900597,90.8887061 56.8318986,93.6926512 C57.2737374,96.4965963 59.3552761,98.7566062 62.10475,99.4175971 C62.6425682,99.5449867 63.1928211,99.6119588 63.7453747,99.6172801 C64.392859,99.6135534 65.0368128,99.521181 65.6594369,99.342716 L72.7812398,111.049133 L58.5749209,122.505946 L13.4080243,92.1166869 C14.5619403,89.2681713 13.7260071,85.9969916 11.3487453,84.0583021 C8.97148361,82.1196126 5.61153425,81.9689926 3.07168104,83.6872574 C0.531827831,85.4055222 -0.591080392,88.5888909 0.305453761,91.5293242 C1.20198791,94.4697574 3.9072848,96.4762728 6.96981501,96.4722726 C7.820971,96.4629209 8.66331415,96.2979872 9.45561009,95.9855453 C10.0304113,95.754449 10.5701095,95.4435791 11.0589479,95.0620113 L80.810358,142 Z M139.586983,60.0176422 C140.207484,59.2869768 141.116475,58.8671179 142.072778,58.8694176 C142.836902,58.8653096 143.577389,59.1352846 144.160846,59.6307564 C145.528617,60.7919872 145.700262,62.8465761 144.544275,64.2203893 C143.388288,65.5942024 141.342191,65.7672741 139.973611,64.6070046 C138.605031,63.4467351 138.431953,61.3922672 139.586983,60.0176422 L139.586983,60.0176422 Z M125.045081,4.53072449 C126.423717,3.38347098 128.467356,3.57477509 129.611042,4.95814183 C130.754727,6.34150857 130.565898,8.39372624 129.189154,9.54326773 C127.81241,10.6928092 125.768459,10.5048993 124.622496,9.12343383 C123.487919,7.73437594 123.676254,5.68753651 125.045081,4.53072449 L125.045081,4.53072449 Z M60.9612842,94.2882396 C60.2753609,93.1638705 60.3321607,91.7351794 61.1051611,90.669291 C61.8781614,89.6034025 63.2148699,89.110588 64.4911132,89.4209662 C65.3337055,89.6166844 66.0606536,90.1483716 66.5046072,90.8936284 C66.974751,91.6350262 67.1144687,92.5401451 66.8899055,93.3896661 C66.6953328,94.2323829 66.1712413,94.9610381 65.4357154,95.4114566 C63.8905817,96.3374979 61.8906416,95.8354527 60.9612842,94.2882396 L60.9612842,94.2882396 Z M8.15056767,92.5035727 C6.93535996,92.9953272 5.54499515,92.7079064 4.62206065,91.774148 C3.69912615,90.8403896 3.42338644,89.4421664 3.92228063,88.2256976 C4.42117482,87.0092289 5.59753085,86.2114523 6.90767013,86.2010775 C7.33631598,86.2062292 7.75934597,86.2996793 8.15056767,86.4756417 C9.34956807,87.0081427 10.1136127,88.2107081 10.0891875,89.5269259 C10.0647624,90.8431437 9.25663144,92.0162932 8.03870689,92.5035727 L8.15056767,92.5035727 Z" id="Shape"></path>
                    </g>
                    <path d="M12.1,305.572 C17.864,305.572 22.528,301.128 22.528,295.32 C22.528,290.04 18.876,287.884 14.564,285.992 L12.364,285.024 C10.12,284.012 7.172,282.692 7.172,279.832 C7.172,276.796 9.724,274.684 12.672,274.684 C15.488,274.684 17.072,276.004 18.392,278.292 L21.34,276.4 C19.58,273.144 16.456,271.252 12.76,271.252 C7.832,271.252 3.476,274.552 3.476,279.7 C3.476,284.452 6.82,286.432 10.692,288.192 L12.716,289.072 C15.796,290.48 18.832,291.8 18.832,295.672 C18.832,299.412 15.576,302.14 12.012,302.14 C8.448,302.14 5.852,299.368 5.368,295.98 L1.76,296.992 C2.816,302.14 6.776,305.572 12.1,305.572 Z M47.9844444,305 L47.9844444,275.256 L56.0804444,275.256 L56.0804444,271.824 L36.2804444,271.824 L36.2804444,275.256 L44.2884444,275.256 L44.2884444,305 L47.9844444,305 Z M68.5568889,305 L72.5608889,295.584 L86.7288889,295.584 L90.6448889,305 L94.7368889,305 L79.8208889,270.24 L64.5088889,305 L68.5568889,305 Z M85.2768889,292.152 L74.0568889,292.152 L79.7328889,278.864 L85.2768889,292.152 Z M113.285333,305 L113.285333,290.436 L114.209333,290.436 L124.241333,305 L128.773333,305 L118.213333,290.128 C123.317333,289.688 126.529333,286.08 126.529333,280.976 C126.529333,273.496 120.677333,271.824 114.385333,271.824 L109.589333,271.824 L109.589333,305 L113.285333,305 Z M114.65328,287.179222 L113.285333,287.18 L113.285333,275.256 L114.385333,275.256 C118.829333,275.256 122.833333,275.784 122.833333,281.24 C122.833333,286.296071 118.758844,287.150325 114.65328,287.179222 Z M157.353778,305 L157.353778,279.128 L164.481778,279.128 L164.481778,271.824 L141.601778,271.824 L141.601778,279.128 L148.729778,279.128 L148.729778,305 L157.353778,305 Z M197.726222,305 L197.726222,297.696 L187.474222,297.696 L187.474222,291.976 L197.198222,291.976 L197.198222,284.672 L187.474222,284.672 L187.474222,279.128 L197.726222,279.128 L197.726222,271.824 L178.850222,271.824 L178.850222,305 L197.726222,305 Z M230.398667,305.88 C233.082667,305.88 235.150667,305.22 238.010667,304.34 L238.010667,294 C236.206667,296.156 233.390667,297.52 230.574667,297.52 C225.206667,297.52 221.598667,293.736 221.598667,288.5 C221.598667,283.352 225.162667,279.304 230.442667,279.304 C233.390667,279.304 236.250667,280.58 238.010667,282.956 L238.010667,272.616 C235.458667,271.56 232.906667,270.944 230.134667,270.944 C225.470667,270.944 220.762667,272.968 217.506667,276.312 C214.338667,279.568 212.622667,283.924 212.622667,288.456 C212.622667,293.384 214.294667,297.696 217.946667,300.996 C221.378667,304.12 225.778667,305.88 230.398667,305.88 Z M263.203111,305 L263.203111,291.404 L275.655111,291.404 L275.655111,305 L284.279111,305 L284.279111,271.824 L275.655111,271.824 L275.655111,284.628 L263.203111,284.628 L263.203111,271.824 L254.579111,271.824 L254.579111,305 L263.203111,305 Z" id="STARTECH" fill="#000000"></path>
                </g>
            </g>
        </g>
    </g>
</svg>