<?xml version="1.0" encoding="UTF-8"?>
<svg width="1025px" height="260px" viewBox="0 0 1025 260" version="1.1" xmlns="http://www.w3.org/2000/svg" xmlns:xlink="http://www.w3.org/1999/xlink">
    <title>startechHEADER</title>
    <defs>
        <linearGradient x1="50%" y1="0%" x2="50%" y2="0.0101769809%" id="linearGradient-1">
            <stop stop-color="#24314D" offset="0%"></stop>
            <stop stop-color="#7D7D7D" offset="100%"></stop>
        </linearGradient>
        <polygon id="path-2" points="0.870876606 7.36860044e-14 0.870876606 259.922376 1025 213.135214 1025 49.953779"></polygon>
    </defs>
    <g id="Branding" stroke="none" stroke-width="1" fill="none" fill-rule="evenodd">
        <g id="Desktop-HD" transform="translate(-1536.000000, -4123.000000)">
            <g id="startechHEADER" transform="translate(1536.000000, 4123.000000)">
                <mask id="mask-3" fill="white">
                    <use xlink:href="#path-2"></use>
                </mask>
                <use id="Mask" fill="url(#linearGradient-1)" xlink:href="#path-2"></use>
                <g id="starfinaltests-01" mask="url(#mask-3)" fill-rule="nonzero">
                    <g transform="translate(-41.000000, 28.000000)" id="Shape">
                        <path d="M277.040979,93.0244266 C273.298964,90.8895141 268.539086,92.1994007 266.408781,95.9503367 C266.078037,96.5517293 265.8258,97.1932583 265.658272,97.8591447 L201.976268,102.638131 L196,130.225283 L213.88711,136.592621 C213.584423,140.501186 216.221768,144.028015 220.04907,144.832797 C223.876372,145.637579 227.70508,143.470391 228.994561,139.769323 C230.303227,136.084124 228.692904,131.996557 225.225563,130.202278 C221.758221,128.408 217.501685,129.459587 215.263042,132.663542 L200.850506,127.536232 L205.39525,106.636875 L265.713866,102.094748 C266.600701,105.09651 269.188605,107.278228 272.290644,107.639263 C275.392684,108.000299 278.410358,106.470996 279.959622,103.752764 L279.959622,103.752764 C280.996846,101.94326 281.272024,99.7939946 280.724267,97.7805486 C280.176509,95.7671025 278.850977,94.0554812 277.040979,93.0244266 L277.040979,93.0244266 Z M218.223379,135.923841 C218.895014,134.030888 220.970211,133.042169 222.858462,133.715476 C224.746713,134.388782 225.732976,136.469147 225.061342,138.3621 C224.743125,139.272976 224.071598,140.016509 223.19897,140.42417 C222.331476,140.843698 221.332811,140.898682 220.424705,140.576914 C219.516599,140.255147 218.774208,139.583257 218.362362,138.710422 C217.942116,137.838605 217.891977,136.833335 218.223379,135.923841 L218.223379,135.923841 Z M276.332166,101.621029 C275.608087,102.903905 274.18314,103.621708 272.724202,103.438505 C271.265265,103.255302 270.060951,102.207336 269.674881,100.785055 C269.421585,99.8464651 269.546373,98.8456788 270.022338,97.9984737 C270.50072,97.1625525 271.290532,96.5511796 272.218269,96.2986593 C272.535447,96.2114797 272.86231,96.1646688 273.19115,96.1593303 C273.821132,96.1611702 274.439512,96.3293654 274.984031,96.6469819 C275.825275,97.1231081 276.441319,97.9170947 276.694621,98.8516721 C276.947923,99.7862494 276.81739,100.783592 276.332166,101.621029 L276.332166,101.621029 Z" fill="#909090"></path>
                        <path d="M223.003236,247.337383 C222.330865,247.179889 221.64023,247.118199 220.951156,247.154083 L186.287646,158.874198 L169.344122,158 L111.60858,207.34988 L103.192279,186.383231 L84.8899459,191.332319 C84.2200871,190.164947 83.2648172,189.193517 82.1168651,188.512326 C80.3404216,187.444721 78.2143628,187.154755 76.2240684,187.708628 C73.1779075,188.525353 70.9169418,191.129838 70.4978069,194.304908 C70.078672,197.479979 71.5841378,200.598628 74.3106426,202.203392 C75.4942812,202.902366 76.8380863,203.271963 78.2068212,203.27499 C78.8852171,203.269386 79.560392,203.179419 80.2173048,203.007091 C82.2136779,202.472333 83.9164072,201.147024 84.9454075,199.326999 C85.6156413,198.148266 85.9694729,196.811107 85.9714474,195.449509 L100.738103,191.459219 L108.267017,210.240373 L61.6792595,249.917676 C60.1197177,248.634844 58.1312001,248.018085 56.1330979,248.197481 C52.9951725,248.463305 50.3243768,250.626724 49.3678963,253.677484 C48.4114158,256.728244 49.3579505,260.064473 51.7654956,262.128247 C53.164556,263.33189 54.9383341,263.991446 56.7709065,263.989442 C56.992537,264.003519 57.2148154,264.003519 57.4364459,263.989442 C59.8610937,263.808259 62.0589484,262.472563 63.3643688,260.386881 C64.6697893,258.3012 64.9292271,255.710859 64.064109,253.400368 L109.819942,214.371663 L109.819942,214.371663 L111.719503,212.750167 L111.996811,212.510467 L111.996811,212.510467 L170.675201,162.31459 L183.320449,162.977288 L192.79052,187.088229 L170.148316,188.864825 L169.177737,208.068978 C165.37517,208.927108 162.783005,212.513076 163.11227,216.459865 C163.441536,220.406655 166.590706,223.497302 170.481085,223.69174 L170.883182,223.69174 C174.710008,223.70555 177.978221,220.886699 178.589425,217.045066 C179.20063,213.203432 176.973231,209.480396 173.337358,208.266378 L174.113821,192.756415 L194.412773,191.163119 L216.916323,248.42308 C214.032271,250.336539 212.732078,253.953108 213.722467,257.306994 C214.712856,260.66088 217.757197,262.950751 221.200733,262.931945 C225.164333,262.942443 228.501823,259.920506 228.949672,255.915652 C229.397522,251.910799 226.812487,248.203968 222.947774,247.309183 L223.003236,247.337383 Z M81.2988063,197.212005 C80.8320789,198.072662 80.0450566,198.706693 79.1143773,198.971798 C78.183698,199.236903 77.1873159,199.110875 76.348857,198.622001 C74.9297307,197.788332 74.2386996,196.088878 74.6644205,194.479463 C75.0901413,192.870047 76.5263275,191.752482 78.165225,191.755311 C79.8064318,191.752004 81.2426952,192.876404 81.6593068,194.490711 C81.8918374,195.41096 81.7625193,196.387137 81.2988063,197.212005 Z M59.5439873,258.518656 C58.924305,259.266266 58.0347622,259.728726 57.0759454,259.801752 C55.6154165,259.927656 54.2244438,259.145208 53.5531861,257.820135 C52.8819284,256.495062 53.0629705,254.889088 54.0116911,253.752867 C54.6260869,253.006066 55.511113,252.543355 56.4658676,252.46975 L56.7847719,252.46975 C58.6673805,252.463516 60.2377293,253.931449 60.3897769,255.839662 C60.461879,256.810617 60.1584098,257.77184 59.5439873,258.518656 L59.5439873,258.518656 Z M174.557514,216.007259 C174.445657,218.037451 172.741457,219.594027 170.744528,219.48995 C169.785983,219.443975 168.886186,219.0068 168.248755,218.277353 C167.605095,217.554685 167.271048,216.601039 167.320486,215.627306 C167.369924,214.653573 167.798773,213.739982 168.512198,213.088566 C169.221723,212.42788 170.1615,212.082997 171.122402,212.130663 C172.083304,212.17833 172.98561,212.61459 173.628532,213.342365 C174.256774,214.063482 174.589249,215.002087 174.557514,215.964959 L174.557514,216.007259 Z M224.778008,255.924262 C224.401729,257.541289 223.006538,258.701294 221.373351,258.754998 C219.740165,258.808703 218.274193,257.742782 217.795971,256.153854 C217.317749,254.564926 217.945928,252.84722 219.328904,251.962171 C219.902871,251.597213 220.565406,251.401925 221.24233,251.398173 C221.522154,251.403181 221.800811,251.436241 222.074254,251.496873 C223.021704,251.705752 223.847747,252.291075 224.368563,253.122589 C224.889379,253.954103 225.061756,254.962818 224.847335,255.924262 L224.778008,255.924262 Z" fill="#B0B0B0"></path>
                        <path d="M90.0303317,158 L139.45044,121.978661 L117.004378,102.995943 L123.803278,78.333684 L142.801426,90.6786996 L155.000674,76.1812909 C158.526575,77.8102734 162.710341,76.5734763 164.791365,73.2869851 C166.872389,70.0004938 166.209316,65.6771795 163.239666,63.1697277 L163.239666,63.1697277 C160.277265,60.6668908 155.927523,60.7402796 153.050752,63.3416348 C150.173981,65.94299 149.652702,70.2742801 151.8297,73.487328 L141.98445,85.1935689 L124.911042,74.0844435 L141.042851,15.5532386 L141.569039,15.5532386 C145.201006,15.5334603 148.332668,12.9882169 149.104271,9.42901468 C149.875873,5.86981251 148.080654,2.25038596 144.784715,0.720150842 C141.488776,-0.810084277 137.575306,0.158918357 135.36834,3.05171135 C133.161374,5.94450434 133.252297,9.98592633 135.587114,12.7759573 C136.032894,13.3028761 136.544883,13.7696428 137.11029,14.164598 L112.185606,104.426242 L132.609999,121.714819 L89.822626,152.889802 L68.8581977,138.739554 L86.540876,124.505987 L76.6679319,108.328323 C77.5909008,107.361937 78.2450078,106.169707 78.5649772,104.870607 C79.3078767,101.801028 78.1324342,98.5850536 75.5874041,96.7240583 C73.0423741,94.8630629 69.6296913,94.7240756 66.9425642,96.3719823 C64.255437,98.019889 62.8238249,101.129687 63.3160749,104.24957 C63.8083249,107.369452 66.1273546,109.884111 69.1905268,110.61958 C69.7897068,110.761323 70.4027402,110.835842 71.0183369,110.841762 C71.7396953,110.837616 72.4571203,110.734835 73.1507821,110.536261 L81.0851397,123.561711 L65.2579656,136.309433 L14.9377989,102.496032 C16.2233697,99.3265568 15.2920616,95.6867935 12.6435686,93.5296601 C9.9950757,91.3725267 6.25177642,91.2049354 3.4221413,93.1168076 C0.592506174,95.0286797 -0.658519094,98.5707378 0.340304191,101.842487 C1.33912748,105.114237 4.35308239,107.346839 7.7650288,107.342388 C8.71329655,107.331982 9.65174597,107.148465 10.5344381,106.800818 C11.1748207,106.543683 11.7760951,106.197785 12.3207071,105.773224 L90.0303317,158 Z M155.513014,66.7801935 C156.204311,65.9671995 157.217012,65.5000326 158.282424,65.5025915 C159.13373,65.4980206 159.958702,65.7984153 160.608727,66.3497149 C162.132553,67.6417886 162.323782,69.9278805 161.035904,71.4564895 C159.748026,72.9850985 157.468481,73.1776712 155.943754,71.8866671 C154.419027,70.595663 154.226203,68.3097058 155.513014,66.7801935 L155.513014,66.7801935 Z M139.31197,5.04122866 C140.847899,3.76470715 143.124706,3.97756665 144.398879,5.5168057 C145.673052,7.05604475 145.462678,9.33949821 143.928856,10.6185655 C142.395034,11.8976328 140.11788,11.6885499 138.84117,10.1514264 C137.577145,8.60585492 137.786967,6.3283857 139.31197,5.04122866 L139.31197,5.04122866 Z M67.9165985,104.912267 C67.1524155,103.661208 67.2156958,102.071538 68.0768908,100.885549 C68.9380858,99.6995605 70.4273047,99.1512176 71.8491597,99.496568 C72.7878866,99.7143389 73.5977752,100.305935 74.0923812,101.135164 C74.6161655,101.9601 74.7718242,102.967204 74.5216397,103.912445 C74.3048674,104.850116 73.7209803,105.660873 72.9015352,106.162043 C71.1801111,107.192427 68.95199,106.633814 67.9165985,104.912267 L67.9165985,104.912267 Z M9.08049821,102.92651 C7.72664264,103.473674 6.17764561,103.153868 5.14940985,102.114897 C4.1211741,101.075926 3.81397415,99.520157 4.36978915,98.1666213 C4.92560416,96.8130857 6.23617531,95.9254187 7.69579357,95.913875 C8.17334532,95.9196072 8.64464047,96.0235869 9.08049821,96.219376 C10.4162973,96.811877 11.2675148,98.1499428 11.2403029,99.6144668 C11.213091,101.078991 10.3127572,102.384326 8.95587479,102.92651 L9.08049821,102.92651 Z" fill="#B0B0B0"></path>
                    </g>
                </g>
            </g>
        </g>
    </g>
</svg>