<?xml version="1.0" encoding="UTF-8"?>
<svg width="768px" height="262px" viewBox="0 0 768 262" version="1.1" xmlns="http://www.w3.org/2000/svg" xmlns:xlink="http://www.w3.org/1999/xlink">
    <title>startechHEADER</title>
    <defs>
        <linearGradient x1="50%" y1="0%" x2="50%" y2="0.0101769809%" id="linearGradient-1">
            <stop stop-color="#24314D" offset="0%"></stop>
            <stop stop-color="#7D7D7D" offset="100%"></stop>
        </linearGradient>
        <polygon id="path-2" points="0.870876606 5.51714737e-14 0.870876606 262 766.870877 226.968698 766.870877 37.4022669"></polygon>
    </defs>
    <g id="Branding" stroke="none" stroke-width="1" fill="none" fill-rule="evenodd">
        <g id="Tablet" transform="translate(0.000000, -403.000000)">
            <g id="startechHEADER" transform="translate(0.129123, 403.000000)">
                <mask id="mask-3" fill="white">
                    <use xlink:href="#path-2"></use>
                </mask>
                <use id="Mask" fill="url(#linearGradient-1)" xlink:href="#path-2"></use>
                <g id="starfinaltests-01" mask="url(#mask-3)" fill="#FFFFFF" fill-rule="nonzero">
                    <g transform="translate(-20.129123, 34.000000)" id="Shape">
                        <path d="M246.478856,82.4877801 C243.150716,80.5885264 238.917292,81.7538233 237.022603,85.0907183 C236.728441,85.6257272 236.504101,86.1964421 236.355103,86.7888257 L179.716477,91.0402915 L174.401198,115.582281 L190.309952,121.24677 C190.040743,124.723895 192.386391,127.861421 195.790385,128.577368 C199.194378,129.293315 202.599622,127.365349 203.746483,124.072817 C204.910408,120.794403 203.47819,117.158035 200.394345,115.561815 C197.3105,113.965595 193.524746,114.901104 191.533702,117.751396 L178.715227,113.190057 L182.757311,94.5976405 L236.404548,90.5568887 C237.193297,93.2273064 239.494973,95.1681985 242.253919,95.489382 C245.012866,95.8105656 247.696778,94.4500722 249.07469,92.031887 L249.07469,92.031887 C249.997195,90.422123 250.241938,88.5101004 249.754763,86.7189053 C249.267589,84.9277101 248.088664,83.4050234 246.478856,82.4877801 L246.478856,82.4877801 Z M194.16662,120.651813 C194.763969,118.96781 196.609645,118.08823 198.289051,118.687214 C199.968458,119.286199 200.845638,121.136926 200.248288,122.820928 C199.965266,123.631259 199.368012,124.292718 198.591899,124.65538 C197.820351,125.028599 196.93214,125.077514 196.124473,124.791264 C195.316806,124.505014 194.656525,123.90729 194.290231,123.130802 C193.916465,122.355218 193.871871,121.460913 194.16662,120.651813 L194.16662,120.651813 Z M245.848439,90.1354606 C245.204445,91.2767286 243.937101,91.9152979 242.639525,91.7523175 C241.341949,91.5893371 240.270835,90.6570486 239.927465,89.3917639 C239.702185,88.556779 239.813171,87.6664629 240.236493,86.9127751 C240.661965,86.1691257 241.364422,85.6252382 242.189549,85.4005919 C242.471646,85.3230355 242.762357,85.2813918 243.054827,85.2766425 C243.615132,85.2782793 244.165117,85.4279086 244.649411,85.7104655 C245.397612,86.1340353 245.94552,86.840379 246.170806,87.6717945 C246.396092,88.5032101 246.279996,89.390463 245.848439,90.1354606 L245.848439,90.1354606 Z"></path>
                        <path d="M199.004876,220.294304 C198.406542,220.155307 197.791955,220.100862 197.178757,220.132532 L166.332153,142.220573 L151.254334,141.449045 L99.876231,185.003086 L92.3866757,166.498841 L76.0996691,170.866689 C75.5035705,169.836417 74.6534884,168.979076 73.6319408,168.377886 C72.051107,167.435665 70.1591552,167.179754 68.3880183,167.668578 C65.6772796,168.389383 63.6652759,170.687988 63.2922932,173.490166 C62.9193106,176.292344 64.2590048,179.044727 66.6852858,180.461022 C67.7385903,181.077905 68.9344248,181.404096 70.152444,181.406767 C70.7561397,181.401822 71.356969,181.32242 71.941547,181.170331 C73.7180932,180.698377 75.2333298,179.528717 76.1490237,177.922444 C76.7454559,176.882145 77.060326,175.702027 77.0620831,174.50034 L90.2027362,170.978685 L96.9026184,187.554109 L55.4447835,222.571558 C54.0569677,221.439386 52.287412,220.895063 50.509327,221.053389 C47.7169283,221.287993 45.3402222,223.197333 44.4890627,225.8898 C43.6379033,228.582267 44.4802121,231.526676 46.6226549,233.348073 C47.8676605,234.410355 49.4461223,234.99245 51.0769045,234.990682 C51.2741306,235.003106 51.4719332,235.003106 51.6691593,234.990682 C53.8268216,234.830778 55.7826636,233.651951 56.9443402,231.81122 C58.1060167,229.970489 58.336887,227.684367 57.5670298,225.645229 L98.2845463,191.200204 L98.2845463,191.200204 L99.9749401,189.769143 L100.221713,189.557595 L100.221713,189.557595 L152.438843,145.256912 L163.691684,145.841781 L172.118976,167.121041 L151.969975,168.688987 L151.10627,185.637731 C147.722415,186.395078 145.415681,189.559896 145.70869,193.04316 C146.0017,196.526424 148.804105,199.254094 152.266102,199.425696 L152.623923,199.425696 C156.029365,199.437884 158.937705,196.95009 159.481608,193.559632 C160.025511,190.169175 158.043378,186.883386 154.807862,185.811947 L155.498826,172.123534 L173.562597,170.717361 L193.588212,221.252493 C191.021731,222.941228 189.864707,226.133053 190.746041,229.093046 C191.627376,232.053039 194.336495,234.073979 197.400852,234.057381 C200.928007,234.066647 203.897996,231.399617 204.296531,227.865109 C204.695067,224.330601 202.394678,221.059114 198.955521,220.269416 L199.004876,220.294304 Z M72.903961,176.055842 C72.4886264,176.81542 71.7882656,177.374989 70.9600663,177.608958 C70.131867,177.842928 69.2451996,177.731702 68.499066,177.300243 C67.2362041,176.564483 66.6212646,175.064619 67.000108,173.64422 C67.3789514,172.223821 68.6569947,171.237506 70.1154281,171.240003 C71.5759165,171.237084 72.8540285,172.22943 73.2247657,173.654147 C73.4316916,174.466319 73.3166132,175.32785 72.903961,176.055842 Z M53.5446327,230.162406 C52.9931856,230.822214 52.2015931,231.230361 51.3483546,231.294811 C50.0486491,231.405928 48.8108407,230.715373 48.2134973,229.545922 C47.6161538,228.37647 47.7772608,226.959109 48.6215148,225.95633 C49.1682576,225.297236 49.9558308,224.888867 50.8054544,224.823907 L51.0892431,224.823907 C52.7645519,224.818405 54.1619847,226.113938 54.2972899,227.798043 C54.3614526,228.654966 54.0913992,229.503299 53.5446327,230.162406 L53.5446327,230.162406 Z M155.893663,192.64371 C155.794123,194.435468 154.277577,195.809234 152.500536,195.717381 C151.647539,195.676805 150.846822,195.290973 150.279581,194.647196 C149.706796,194.0094 149.409532,193.167754 149.453526,192.30838 C149.49752,191.449006 149.879148,190.64271 150.514015,190.067799 C151.145412,189.484706 151.981707,189.180328 152.836801,189.222396 C153.691896,189.264464 154.494846,189.649489 155.066974,190.291791 C155.626038,190.928218 155.921903,191.756589 155.893663,192.606378 L155.893663,192.64371 Z M200.584222,227.872707 C200.249377,229.299824 199.007814,230.323594 197.554463,230.370991 C196.101111,230.418388 194.796562,229.477653 194.370999,228.075335 C193.945435,226.673017 194.504444,225.157045 195.735136,224.37594 C196.245902,224.053844 196.835483,223.881491 197.437868,223.87818 C197.68688,223.8826 197.934853,223.911777 198.178187,223.965288 C199.02131,224.149635 199.756395,224.666216 200.219863,225.400074 C200.68333,226.133931 200.836726,227.024179 200.645915,227.872707 L200.584222,227.872707 Z"></path>
                        <path d="M79.9724738,140.700637 L123.871549,108.623261 L103.933079,91.7189539 L109.972431,69.7569571 L126.848175,80.7503215 L137.684568,67.8402288 C140.816568,69.2908546 144.532939,68.189474 146.381479,65.2628195 C148.230019,62.3361649 147.641022,58.4862088 145.00313,56.253297 L145.00313,56.253297 C142.371678,54.0244948 138.507873,54.0898482 135.952484,56.406382 C133.397095,58.7229158 132.934052,62.5799745 134.867844,65.4412269 L126.122469,75.8657558 L110.956439,65.9729645 L125.286062,13.8503201 L125.753466,13.8503201 C128.979683,13.8327073 131.761488,11.5661417 132.446889,8.39663526 C133.132291,5.22712885 131.537628,2.00399201 128.609899,0.641301786 C125.68217,-0.721388441 122.205898,0.141518443 120.245486,2.71758057 C118.285074,5.2936427 118.36584,8.89257086 120.43982,11.3771223 C120.835799,11.846349 121.29059,12.2620096 121.792832,12.6137212 L99.6526422,92.9926508 L117.795297,108.388307 L79.7879722,136.149953 L61.1656128,123.54901 L76.8728472,110.873871 L68.1028722,96.4674937 C68.9227304,95.6069176 69.503763,94.5452237 69.7879866,93.3883624 C70.4478921,90.6548705 69.4037657,87.7910116 67.143057,86.133776 C64.8823484,84.4765404 61.850918,84.3527707 59.4639868,85.8202487 C57.0770557,87.2877267 55.805378,90.0570341 56.2426356,92.8353218 C56.6798932,95.6136096 58.7398495,97.8529394 61.4608153,98.5078819 C61.9930571,98.6341058 62.5376047,98.7004652 63.0844292,98.7057378 C63.7252001,98.7020452 64.362477,98.610518 64.9786454,98.433686 L72.0266058,110.032984 L57.9675854,121.384962 L13.2690028,91.2737783 C14.4109545,88.4513279 13.5836886,85.2100809 11.2310756,83.2891313 C8.87846256,81.3681817 5.55335092,81.2189399 3.03983224,82.9214819 C0.526313561,84.6240238 -0.58495176,87.7782632 0.302286657,90.6917902 C1.18952507,93.6053172 3.86677202,95.593472 6.89754831,95.5895085 C7.73987907,95.5802423 8.57348836,95.4168178 9.35756936,95.1072349 C9.92641075,94.8782533 10.460513,94.5702279 10.9442829,94.1921517 L79.9724738,140.700637 Z M138.139672,59.4684542 C138.753739,58.7444746 139.653305,58.3284577 140.599693,58.3307363 C141.355894,58.3266659 142.088703,58.5941705 142.66611,59.0851085 C144.0197,60.2357135 144.189566,62.2715021 143.045564,63.6327442 C141.901563,64.9939863 139.876681,65.1654743 138.522291,64.0158218 C137.167901,62.8661693 136.996618,60.8305007 138.139672,59.4684542 L138.139672,59.4684542 Z M123.748548,4.48926635 C125.112889,3.35251072 127.135339,3.54206431 128.267166,4.91277263 C129.398993,6.28348095 129.212122,8.31691992 127.849653,9.45594259 C126.487184,10.5949653 124.464425,10.4087748 123.330345,9.03995036 C122.207532,7.66360297 122.393913,5.63549303 123.748548,4.48926635 L123.748548,4.48926635 Z M60.3292056,93.4254604 C59.6503944,92.3113797 59.7066052,90.8957618 60.4715907,89.8396267 C61.2365761,88.7834916 62.559425,88.2951865 63.8224355,88.6027246 C64.6562913,88.7966519 65.3757021,89.323474 65.8150526,90.0619113 C66.2803216,90.796525 66.4185907,91.6933616 66.1963559,92.5351092 C66.0038006,93.3701147 65.4851432,94.0921024 64.7572435,94.5383994 C63.2281306,95.455967 61.248927,94.9585157 60.3292056,93.4254604 L60.3292056,93.4254604 Z M8.06605831,91.6571239 C6.86345051,92.1443787 5.48750173,91.8595879 4.5741367,90.9343738 C3.66077167,90.0091597 3.38789097,88.6237308 3.88161236,87.4183933 C4.37533376,86.2130558 5.53949271,85.4225792 6.83604778,85.4122994 C7.26024921,85.417404 7.678893,85.5099989 8.06605831,85.6843512 C9.25262684,86.2119795 10.0087494,87.4035409 9.98457753,88.7077147 C9.96040563,90.0118886 9.16065382,91.1743032 7.95535736,91.6571239 L8.06605831,91.6571239 Z"></path>
                    </g>
                </g>
            </g>
        </g>
    </g>
</svg>