<?xml version="1.0" encoding="UTF-8"?>
<svg width="202px" height="189px" viewBox="0 0 202 189" version="1.1" xmlns="http://www.w3.org/2000/svg" xmlns:xlink="http://www.w3.org/1999/xlink">
    <title>Group 41</title>
    <g id="Branding" stroke="none" stroke-width="1" fill="none" fill-rule="evenodd">
        <g id="Desktop-HD" transform="translate(-1685.000000, -3130.000000)" stroke="#231F20" stroke-width="2">
            <g id="Group-9" transform="translate(1086.000000, 3039.000000)">
                <g id="Group-41" transform="translate(600.000000, 92.000000)">
                    <path d="M161.8135,97.9736 C161.0525,100.1146 158.7015,101.2326 156.5615,100.4716 C154.4205,99.7106 153.3025,97.3596 154.0635,95.2186 C154.8245,93.0786 157.1755,91.9596 159.3155,92.7206 C161.4565,93.4816 162.5745,95.8326 161.8135,97.9736 Z" id="Stroke-1"></path>
                    <polyline id="Stroke-3" points="190.837 69.8105 123.53 75.8645 116.749 94.9455 106.704 95.8995"></polyline>
                    <polyline id="Stroke-5" points="145.0176 73.2461 141.2376 90.6611 153.9946 95.1941"></polyline>
                    <path d="M198.5967,71.8467 C197.4727,73.8207 194.9607,74.5087 192.9877,73.3837 C191.0137,72.2597 190.3257,69.7477 191.4497,67.7747 C192.5747,65.8007 195.0847,65.1127 197.0587,66.2367 C199.0327,67.3617 199.7217,69.8717 198.5967,71.8467 Z" id="Stroke-7"></path>
                    <path d="M122.0079,158.2734 C119.7389,158.1584 117.9939,156.2254 118.1099,153.9574 C118.2249,151.6884 120.1569,149.9434 122.4259,150.0584 C124.6949,150.1734 126.4409,152.1064 126.3239,154.3754 C126.2089,156.6434 124.2769,158.3894 122.0079,158.2734 Z" id="Stroke-9"></path>
                    <polyline id="Stroke-11" points="157.3067 178.0107 132.2207 115.2607 111.9967 114.2307 108.2037 104.8797"></polyline>
                    <polyline id="Stroke-13" points="140.8858 135.0967 123.1178 136.4637 122.4298 149.9857"></polyline>
                    <path d="M157.5792,186.0283 C155.3662,185.5163 153.9872,183.3073 154.4992,181.0943 C155.0112,178.8823 157.2192,177.5023 159.4332,178.0133 C161.6452,178.5253 163.0242,180.7343 162.5132,182.9473 C162.0012,185.1613 159.7932,186.5403 157.5792,186.0283 Z" id="Stroke-15"></path>
                    <path d="M51.3321,140.751 C50.7491,138.556 52.0551,136.304 54.2501,135.72 C56.4451,135.136 58.6981,136.442 59.2821,138.638 C59.8651,140.833 58.5591,143.086 56.3631,143.669 C54.1681,144.253 51.9161,142.946 51.3321,140.751 Z" id="Stroke-17"></path>
                    <polyline id="Stroke-19" points="43.3321 180.3935 95.4081 137.3255 90.2061 117.7535 97.9491 111.2845"></polyline>
                    <polyline id="Stroke-21" points="79.171 151.6387 72.437 135.1407 59.353 138.6187"></polyline>
                    <path d="M35.7823,183.1055 C35.5933,180.8415 37.2733,178.8525 39.5373,178.6635 C41.8013,178.4735 43.7903,180.1555 43.9793,182.4185 C44.1693,184.6825 42.4873,186.6705 40.2233,186.8605 C37.9603,187.0495 35.9713,185.3685 35.7823,183.1055 Z" id="Stroke-23"></path>
                    <path d="M47.6456,69.1553 C49.5836,67.9693 52.1156,68.5803 53.3006,70.5173 C54.4856,72.4553 53.8756,74.9873 51.9386,76.1723 C49.9996,77.3573 47.4686,76.7473 46.2836,74.8093 C45.0976,72.8723 45.7086,70.3413 47.6456,69.1553 Z" id="Stroke-25"></path>
                    <polyline id="Stroke-27" points="7.3682 72.79 63.4962 110.425 80.7712 99.858 89.1812 105.436"></polyline>
                    <polyline id="Stroke-29" points="45.1475 98.9433 59.0415 87.7843 51.9765 76.2343"></polyline>
                    <path d="M2.6163,66.3262 C4.7323,65.4992 7.1173,66.5442 7.9443,68.6592 C8.7713,70.7742 7.7263,73.1602 5.6113,73.9872 C3.4963,74.8142 1.1103,73.7692 0.2833,71.6542 C-0.5437,69.5382 0.5013,67.1532 2.6163,66.3262 Z" id="Stroke-31"></path>
                    <path d="M115.4708,45.1064 C117.2068,46.5714 117.4268,49.1664 115.9618,50.9014 C114.4968,52.6374 111.9028,52.8574 110.1658,51.3924 C108.4298,49.9274 108.2098,47.3334 109.6748,45.5964 C111.1398,43.8614 113.7348,43.6414 115.4708,45.1064 Z" id="Stroke-33"></path>
                    <polyline id="Stroke-35" points="99.3155 8.0312 81.3085 73.1662 96.7855 86.2252 94.1455 95.9652"></polyline>
                    <polyline id="Stroke-37" points="86.4161 52.1318 101.3881 61.7958 110.1181 51.4478"></polyline>
                    <path d="M103.9503,1.4834 C105.4023,3.2304 105.1643,5.8234 103.4173,7.2754 C101.6713,8.7274 99.0773,8.4884 97.6253,6.7424 C96.1733,4.9954 96.4123,2.4024 98.1583,0.9504 C99.9053,-0.5016 102.4983,-0.2636 103.9503,1.4834 Z" id="Stroke-39"></path>
                </g>
            </g>
        </g>
    </g>
</svg>