<?xml version="1.0" encoding="UTF-8"?>
<svg width="324px" height="110px" viewBox="0 0 324 110" version="1.1" xmlns="http://www.w3.org/2000/svg" xmlns:xlink="http://www.w3.org/1999/xlink">
    <title>startechHEADER</title>
    <defs>
        <linearGradient x1="50%" y1="0%" x2="50%" y2="0.0101769809%" id="linearGradient-1">
            <stop stop-color="#24314D" offset="0%"></stop>
            <stop stop-color="#7D7D7D" offset="100%"></stop>
        </linearGradient>
        <polygon id="path-2" points="0.870876606 2.31635958e-14 0.870876606 110 322.870877 95.2922015 322.870877 15.7032418"></polygon>
    </defs>
    <g id="Branding" stroke="none" stroke-width="1" fill="none" fill-rule="evenodd">
        <g id="Mobile" transform="translate(3.000000, -533.000000)">
            <g id="startechHEADER" transform="translate(-2.870877, 533.000000)">
                <mask id="mask-3" fill="white">
                    <use xlink:href="#path-2"></use>
                </mask>
                <use id="Mask" fill="url(#linearGradient-1)" xlink:href="#path-2"></use>
                <g id="starfinaltests-01" mask="url(#mask-3)" fill="#FFFFFF" fill-rule="nonzero">
                    <g transform="translate(-7.129123, 14.000000)" id="Shape">
                        <path d="M103.521119,34.7501712 C102.123301,33.9500601 100.345263,34.4409724 99.5494934,35.8467282 C99.4259451,36.0721149 99.3317226,36.3125437 99.2691433,36.562101 L75.4809203,38.3531441 L73.248503,48.6921098 L79.9301798,51.0784266 C79.8171119,52.5432577 80.8022841,53.8650242 82.2319615,54.166636 C83.6616389,54.4682478 85.0918411,53.6560406 85.573523,52.2689742 C86.0623714,50.8878551 85.46084,49.3559382 84.165625,48.6834881 C82.87041,48.0110379 81.2803933,48.4051461 80.4441549,49.6059073 L75.0603951,47.6843217 L76.7580706,39.8517719 L99.28991,38.1494978 C99.6211848,39.2744823 100.587889,40.0921347 101.746646,40.2274418 C102.905404,40.3627489 104.032647,39.7896049 104.61137,38.7708801 L104.61137,38.7708801 C104.998822,38.0927241 105.101614,37.2872338 104.897001,36.5326452 C104.692387,35.7780566 104.197239,35.1365843 103.521119,34.7501712 L103.521119,34.7501712 Z M81.5499802,50.827785 C81.8008672,50.1183542 82.5760509,49.7478074 83.2814015,50.0001456 C83.9867522,50.2524838 84.3551678,51.0321517 84.1042809,51.7415825 C83.9854117,52.082956 83.734565,52.3616132 83.4085974,52.5143941 C83.0845475,52.6716225 82.711499,52.6922292 82.3722788,52.5716388 C82.0330586,52.4510485 81.7557406,52.1992411 81.6018969,51.872125 C81.4449151,51.5453899 81.426186,51.1686401 81.5499802,50.827785 L81.5499802,50.827785 Z M103.256344,37.97196 C102.985867,38.4527495 102.453582,38.7217638 101.9086,38.653104 C101.363619,38.5844441 100.913751,38.1916928 100.769535,37.658658 C100.674918,37.3068984 100.721532,36.931829 100.899327,36.614318 C101.078025,36.3010359 101.373057,36.0719088 101.719611,35.9772706 C101.838092,35.9445979 101.96019,35.9270544 102.083027,35.9250537 C102.318355,35.9257432 102.549349,35.9887785 102.752753,36.1078131 C103.066997,36.2862532 103.297118,36.5838192 103.391738,36.9340751 C103.486359,37.2843311 103.437599,37.65811 103.256344,37.97196 L103.256344,37.97196 Z"></path>
                        <path d="M83.5820477,92.8048345 C83.3307475,92.7462782 83.072621,92.7233418 82.8150778,92.7366837 L69.8595044,59.914199 L63.5268201,59.589172 L41.948017,77.9374704 L38.8024038,70.1420648 L31.961861,71.982137 C31.7114996,71.5481077 31.3544651,71.1869297 30.9254152,70.9336628 C30.261465,70.5367271 29.4668452,70.4289178 28.7229677,70.6348476 C27.5844574,70.9385061 26.7394159,71.9068545 26.5827632,73.0873466 C26.4261104,74.2678386 26.988782,75.4273532 28.00782,76.024005 C28.4502079,76.2838834 28.9524584,76.4212999 29.4640265,76.4224252 C29.7175787,76.4203418 29.969927,76.3868918 30.2154497,76.3228201 C30.9615992,76.1239972 31.5979985,75.6312468 31.9825899,74.9545613 C32.2330915,74.5163079 32.3653369,74.0191518 32.3660749,73.5129093 L37.8851492,72.0293183 L40.6990997,79.0121564 L23.2868091,93.7641884 C22.7039264,93.2872308 21.960713,93.05792 21.2139173,93.1246191 C20.0411099,93.2234526 19.0428933,94.0278126 18.6854063,95.1620859 C18.3279194,96.2963593 18.6816891,97.53677 19.5815151,98.3040816 C20.1044174,98.7515964 20.7673714,98.9968194 21.4522999,98.9960746 C21.5351348,99.0013085 21.6182119,99.0013085 21.7010469,98.9960746 C22.6072651,98.9287107 23.4287187,98.4320984 23.9166229,97.6566415 C24.404527,96.8811846 24.5014925,95.9180952 24.1781525,95.059054 L41.2795094,80.5481711 L41.2795094,80.5481711 L41.9894748,79.9452985 L42.0931194,79.8561782 L42.0931194,79.8561782 L64.0243141,61.1933375 L68.7505073,61.4397289 L72.2899699,70.4041833 L63.8273894,71.064722 L63.4646333,78.2048313 C62.0434144,78.5238841 61.0745861,79.8571479 61.19765,81.3245654 C61.3207139,82.7919829 62.4977241,83.9410863 63.9517629,84.0133784 L64.1020475,84.0133784 C65.5323334,84.0185128 66.7538362,82.9704634 66.9822753,81.5421429 C67.2107144,80.1138225 66.3782187,78.7295967 65.0193021,78.2782245 L65.309507,72.5116164 L72.8962908,71.9192285 L81.307049,93.2084971 C80.2291272,93.9199217 79.7431769,95.2645628 80.1133373,96.5115386 C80.4834978,97.7585143 81.6213277,98.6098891 82.9083579,98.6028968 C84.3897631,98.6068 85.6371584,97.483243 85.8045431,95.9942374 C85.9719279,94.5052317 85.0057649,93.127031 83.5613188,92.7943497 L83.5820477,92.8048345 Z M30.6196636,74.1682057 C30.4452231,74.4881983 30.1510715,74.7239313 29.8032278,74.8224973 C29.4553841,74.9210633 29.0829838,74.8742063 28.7696077,74.6924428 C28.2392057,74.3824843 27.9809312,73.7506268 28.1400454,73.1522458 C28.2991596,72.5538648 28.8359378,72.1383536 29.4484798,72.1394054 C30.0618849,72.138176 30.598692,72.5562281 30.7544016,73.1564281 C30.8413105,73.4985767 30.7929775,73.8615197 30.6196636,74.1682057 Z M22.4887457,96.9620347 C22.2571379,97.2399966 21.9246691,97.4119391 21.5663089,97.4390904 C21.0204326,97.4859014 20.5005531,97.1949871 20.2496689,96.7023245 C19.9987846,96.209662 20.0664496,95.6125606 20.4210362,95.1901133 C20.6506682,94.9124525 20.9814489,94.7404165 21.3382908,94.7130501 L21.4574821,94.7130501 C22.1611118,94.7107323 22.7480336,95.2565101 22.8048617,95.9659842 C22.8318101,96.3269855 22.7183877,96.6843684 22.4887457,96.9620347 L22.4887457,96.9620347 Z M65.4753383,81.1562862 C65.4335315,81.9111121 64.7965824,82.4898476 64.0502253,82.4511518 C63.6919665,82.4340582 63.3556652,82.2715162 63.117424,82.0003079 C62.8768544,81.7316197 62.7520035,81.3770538 62.770481,81.0150196 C62.7889586,80.6529854 62.9492422,80.313312 63.2158863,80.0711154 C63.4810732,79.8254721 63.8323169,79.6972446 64.1914566,79.7149669 C64.5505962,79.7326892 64.8878352,79.894891 65.128129,80.1654781 C65.362936,80.4335896 65.4871993,80.7825629 65.4753383,81.1405591 L65.4753383,81.1562862 Z M84.2453731,95.9974384 C84.1047381,96.5986494 83.5832819,97.0299396 82.9728743,97.0499069 C82.3624667,97.0698743 81.8145561,96.6735646 81.6358194,96.0828008 C81.4570827,95.4920369 81.6918663,94.8533934 82.208757,94.5243322 C82.4232788,94.3886406 82.6709028,94.3160325 82.9239046,94.3146373 C83.0284897,94.3164995 83.1326383,94.3287912 83.2348384,94.3513339 C83.5889501,94.4289952 83.897686,94.6466186 84.0923423,94.9557757 C84.2869986,95.2649328 84.3514249,95.6399733 84.2712842,95.9974384 L84.2453731,95.9974384 Z"></path>
                        <path d="M33.588439,59.2738854 L52.0260508,45.7604376 L43.6518931,38.6390487 L46.1884208,29.3869734 L53.2762335,34.0182205 L57.8275184,28.5795006 C59.1429587,29.1906153 60.7038345,28.7266295 61.4802212,27.4936984 C62.2566079,26.2607674 62.0092292,24.6388709 60.9013148,23.6981974 L60.9013148,23.6981974 C59.7961046,22.7592553 58.1733067,22.7867871 57.1000434,23.7626886 C56.0267801,24.73859 55.832302,26.3634786 56.6444943,27.5688573 L52.9714369,31.9604673 L46.6017044,27.7928659 L52.6201459,5.83481572 L52.8164556,5.83481572 C54.171467,5.82739586 55.3398248,4.87254479 55.6276935,3.53730592 C55.9155621,2.20206705 55.2458036,0.844234933 54.0161574,0.270165433 C52.7865113,-0.303904067 51.3264772,0.0596184079 50.5031042,1.14485309 C49.6797312,2.23008778 49.7136528,3.74623198 50.5847245,4.79291536 C50.7510357,4.99058956 50.9420478,5.16569767 51.1529893,5.31386554 L41.8541097,39.1756273 L49.4740249,45.6614571 L33.5109483,57.3567887 L25.6895574,52.0483063 L32.2865958,46.708567 L28.6032063,40.6394974 C28.9475468,40.2769568 29.1915805,39.82969 29.3109544,39.3423314 C29.5881147,38.1907752 29.1495816,36.9842985 28.2000839,36.2861439 C27.2505863,35.5879893 25.9773856,35.5358481 24.9748745,36.1540622 C23.9723634,36.7722763 23.4382588,37.9389207 23.621907,39.1093483 C23.8055551,40.279776 24.6707368,41.2231532 25.8135424,41.4990652 C26.037084,41.5522403 26.265794,41.580196 26.4954603,41.5824172 C26.764584,41.5808616 27.0322403,41.5423033 27.2910311,41.4678081 L30.2511744,46.3543208 L24.3463859,51.1366435 L5.57298119,38.4515066 C6.05260087,37.2624743 5.70514923,35.8970128 4.71705175,35.0877617 C3.72895427,34.2785106 2.33240739,34.2156385 1.27672954,34.9328796 C0.221051696,35.6501207 -0.245679739,36.9789279 0.126960396,38.2063286 C0.499600531,39.4337294 1.62404425,40.2712925 2.89697029,40.2696227 C3.25074921,40.2657191 3.60086511,40.1968722 3.93017913,40.0664522 C4.16909251,39.9699876 4.39341548,39.8402237 4.59659884,39.680949 L33.588439,59.2738854 Z M58.0186621,25.0526679 C58.2765703,24.7476723 58.6543881,24.5724141 59.0518709,24.573374 C59.3694757,24.5716593 59.6772553,24.6843527 59.9197664,24.8911734 C60.4882739,25.3758963 60.5596176,26.2335264 60.0791371,26.8069859 C59.5986566,27.3804453 58.7482059,27.4526892 58.1793621,26.9683675 C57.6105184,26.4840458 57.5385796,25.6264663 58.0186621,25.0526679 L58.0186621,25.0526679 Z M51.9743903,1.89122285 C52.5474135,1.4123343 53.3968425,1.49218879 53.8722099,2.06963613 C54.3475772,2.64708346 54.2690914,3.50372371 53.6968544,3.98356731 C53.1246174,4.4634109 52.2750586,4.38497323 51.7987448,3.80831951 C51.3271634,3.22849657 51.4054436,2.37410132 51.9743903,1.89122285 L51.9743903,1.89122285 Z M25.3382664,39.3579599 C25.0531656,38.8886238 25.0767742,38.2922571 25.3980681,37.8473321 C25.719362,37.4024071 26.2749585,37.1966956 26.8054229,37.3262542 C27.1556424,37.4079512 27.4577949,37.629889 27.6423221,37.9409754 C27.8377351,38.250451 27.8958081,38.6282672 27.8024695,38.9828758 C27.7215963,39.3346441 27.5037601,39.6388006 27.1980423,39.8268151 C26.5558148,40.2133648 25.7245493,40.0038002 25.3382664,39.3579599 L25.3382664,39.3579599 Z M3.38774449,38.6130011 C2.88264922,38.8182702 2.30475073,38.6982945 1.92113741,38.3085234 C1.5375241,37.9187524 1.42291421,37.3351036 1.63027719,36.8273231 C1.83764018,36.3195427 2.32658694,35.9865334 2.87114007,35.9822027 C3.04930467,35.9843532 3.22513506,36.0233613 3.38774449,36.0968118 C3.88610327,36.3190892 4.20367476,36.8210662 4.19352256,37.3704841 C4.18337037,37.919902 3.84747461,38.4096001 3.34125009,38.6130011 L3.38774449,38.6130011 Z"></path>
                    </g>
                </g>
            </g>
        </g>
    </g>
</svg>