<?xml version="1.0" encoding="UTF-8"?>
<svg width="202px" height="190px" viewBox="0 0 202 190" version="1.1" xmlns="http://www.w3.org/2000/svg" xmlns:xlink="http://www.w3.org/1999/xlink">
    <title>Group 79</title>
    <g id="Branding" stroke="none" stroke-width="1" fill="none" fill-rule="evenodd">
        <g id="Desktop-HD" transform="translate(-1398.000000, -3130.000000)">
            <g id="Group-9" transform="translate(1086.000000, 3039.000000)">
                <g id="Group-79" transform="translate(313.000000, 92.000000)">
                    <path d="M158.4363,96.4289 C157.6753,98.5689 155.3243,99.6879 153.1833,98.9269 C151.0423,98.1659 149.9243,95.8149 150.6853,93.6739 C151.4463,91.5329 153.7973,90.4149 155.9383,91.1759 C158.0783,91.9369 159.1973,94.2879 158.4363,96.4289 Z" id="Stroke-1" stroke="#231F20" stroke-width="2"></path>
                    <polyline id="Stroke-3" stroke="#231F20" stroke-width="2" points="81.4295 64.256 91.0825 38.01 102.3945 7.257"></polyline>
                    <polyline id="Stroke-5" stroke="#231F20" stroke-width="2" points="91.0828 38.0099 108.2218 50.0949 102.4898 59.5909 106.7408 63.8119"></polyline>
                    <line x1="106.1043" y1="14.0773" x2="120.2443" y2="54.6413" id="Stroke-7" stroke="#231F20" stroke-width="2"></line>
                    <polyline id="Stroke-9" stroke="#231F20" stroke-width="2" points="200.2097 72.1174 117.163887 71.5674 110.598901 92.0404 98.2097 92.0144"></polyline>
                    <polyline id="Stroke-11" stroke="#231F20" stroke-width="2" points="141.6395 71.7013 137.8595 89.1153 150.6165 93.6493"></polyline>
                    <line x1="195.8465" y1="72.9015" x2="152.6825" y2="107.4255" id="Stroke-13" stroke="#231F20" stroke-width="2"></line>
                    <line x1="143.3983" y1="122.048" x2="156.4333" y2="163.572" id="Stroke-15" stroke="#231F20" stroke-width="2"></line>
                    <line x1="100.6649" y1="140.1164" x2="161.1769" y2="181.6624" id="Stroke-17" stroke="#231F20" stroke-width="2"></line>
                    <polyline id="Stroke-19" stroke="#231F20" stroke-width="2" points="119.5848 153.1066 131.9168 128.8436 121.4418 119.3216"></polyline>
                    <line x1="53.575" y1="175.2404" x2="93.83" y2="147.9084" id="Stroke-21" stroke="#231F20" stroke-width="2"></line>
                    <line x1="77.1834" y1="158.4806" x2="68.0374" y2="146.4176" id="Stroke-23" stroke="#231F20" stroke-width="2"></line>
                    <polyline id="Stroke-25" stroke="#231F20" stroke-width="2" points="45.6834 179.0754 57.4064 135.2764 77.3144 134.0734"></polyline>
                    <line x1="28.5428" y1="87.1427" x2="59.9428" y2="111.5667" id="Stroke-27" stroke="#231F20" stroke-width="2"></line>
                    <line x1="36.4373" y1="93.2834" x2="45.6833" y2="85.4624" id="Stroke-29" stroke="#231F20" stroke-width="2"></line>
                    <line x1="7.1141" y1="71.9133" x2="68.2291" y2="72.8043" id="Stroke-31" stroke="#231F20" stroke-width="2"></line>
                    <path d="M7.9793,70.507 C8.7553,72.642 7.6553,75.001 5.5203,75.778 C3.3853,76.555 1.0263,75.454 0.2493,73.32 C-0.5277,71.185 0.5733,68.825 2.7083,68.048 C4.8413,67.272 7.2023,68.372 7.9793,70.507 Z" id="Stroke-33" stroke="#231F20" stroke-width="2"></path>
                    <path d="M28.0418,81.1799 C29.8958,82.4929 30.3338,85.0599 29.0208,86.9129 C27.7068,88.7669 25.1408,89.2049 23.2868,87.8919 C21.4338,86.5779 20.9948,84.0109 22.3088,82.1589 C23.6218,80.3049 26.1878,79.8669 28.0418,81.1799 Z" id="Stroke-35" stroke="#231F20" stroke-width="2"></path>
                    <path d="M64.2264,110.8166 C66.0804,112.1296 66.5174,114.6966 65.2044,116.5496 C63.8914,118.4036 61.3244,118.8416 59.4704,117.5286 C57.6174,116.2146 57.1794,113.6486 58.4934,111.7956 C59.8054,109.9416 62.3724,109.5036 64.2264,110.8166 Z" id="Stroke-37" stroke="#231F20" stroke-width="2"></path>
                    <path d="M50.7332,79.3195 C52.5872,80.6325 53.0252,83.1995 51.7122,85.0525 C50.3982,86.9065 47.8322,87.3445 45.9782,86.0315 C44.1252,84.7175 43.6862,82.1515 45.0002,80.2985 C46.3132,78.4445 48.8792,78.0065 50.7332,79.3195 Z" id="Stroke-39" stroke="#231F20" stroke-width="2"></path>
                    <path d="M99.7947,92.5773 C99.0337,94.7183 96.6827,95.8363 94.5417,95.0753 C92.4007,94.3143 91.2827,91.9633 92.0437,89.8233 C92.8047,87.6823 95.1557,86.5643 97.2967,87.3253 C99.4367,88.0863 100.5557,90.4373 99.7947,92.5773" id="Fill-41" fill="#FEFEFE"></path>
                    <path d="M99.7947,92.5773 C99.0337,94.7183 96.6827,95.8363 94.5417,95.0753 C92.4007,94.3143 91.2827,91.9633 92.0437,89.8233 C92.8047,87.6823 95.1557,86.5643 97.2967,87.3253 C99.4367,88.0863 100.5557,90.4373 99.7947,92.5773 Z" id="Stroke-43" stroke="#231F20" stroke-width="2"></path>
                    <path d="M102.6072,137.5802 C102.7802,139.8452 101.0842,141.8202 98.8192,141.9932 C96.5532,142.1662 94.5782,140.4702 94.4052,138.2052 C94.2322,135.9402 95.9282,133.9642 98.1932,133.7912 C100.4582,133.6192 102.4342,135.3142 102.6072,137.5802 Z" id="Stroke-45" stroke="#231F20" stroke-width="2"></path>
                    <path d="M84.7703,131.674 C86.0953,133.519 85.6743,136.088 83.8303,137.413 C81.9843,138.738 79.4153,138.318 78.0893,136.473 C76.7643,134.628 77.1853,132.058 79.0303,130.733 C80.8743,129.407 83.4453,129.828 84.7703,131.674 Z" id="Stroke-47" stroke="#231F20" stroke-width="2"></path>
                    <path d="M48.5135,180.7892 C49.8385,182.6342 49.4175,185.2042 47.5735,186.5292 C45.7285,187.8542 43.1585,187.4332 41.8325,185.5882 C40.5075,183.7432 40.9285,181.1742 42.7735,179.8492 C44.6175,178.5232 47.1885,178.9442 48.5135,180.7892 Z" id="Stroke-49" stroke="#231F20" stroke-width="2"></path>
                    <path d="M70.7557,143.0988 C71.7617,145.1348 70.9257,147.6018 68.8887,148.6078 C66.8527,149.6128 64.3857,148.7778 63.3797,146.7408 C62.3737,144.7028 63.2097,142.2378 65.2467,141.2318 C67.2827,140.2258 69.7497,141.0618 70.7557,143.0988" id="Fill-51" fill="#FEFEFE"></path>
                    <path d="M70.7557,143.0988 C71.7617,145.1348 70.9257,147.6018 68.8887,148.6078 C66.8527,149.6128 64.3857,148.7778 63.3797,146.7408 C62.3737,144.7028 63.2097,142.2378 65.2467,141.2318 C67.2827,140.2258 69.7497,141.0618 70.7557,143.0988 Z" id="Stroke-53" stroke="#231F20" stroke-width="2"></path>
                    <path d="M83.5994,65.1281 C84.6614,67.1361 83.8934,69.6251 81.8844,70.6871 C79.8764,71.7481 77.3884,70.9811 76.3274,68.9721 C75.2654,66.9641 76.0334,64.4761 78.0404,63.4141 C80.0494,62.3531 82.5374,63.1201 83.5994,65.1281 Z" id="Stroke-55" stroke="#231F20" stroke-width="2"></path>
                    <path d="M112.1541,63.7707 C113.2161,65.7787 112.4481,68.2677 110.4391,69.3297 C108.4311,70.3907 105.9431,69.6237 104.8821,67.6147 C103.8201,65.6067 104.5881,63.1187 106.5951,62.0567 C108.6041,60.9957 111.0921,61.7627 112.1541,63.7707" id="Fill-57" fill="#FEFEFE"></path>
                    <path d="M112.1541,63.7707 C113.2161,65.7787 112.4481,68.2677 110.4391,69.3297 C108.4311,70.3907 105.9431,69.6237 104.8821,67.6147 C103.8201,65.6067 104.5881,63.1187 106.5951,62.0567 C108.6041,60.9957 111.0921,61.7627 112.1541,63.7707 Z" id="Stroke-59" stroke="#231F20" stroke-width="2"></path>
                    <path d="M125.4949,57.8664 C125.1909,60.1174 123.1199,61.6964 120.8689,61.3924 C118.6179,61.0884 117.0389,59.0164 117.3429,56.7654 C117.6469,54.5144 119.7189,52.9364 121.9699,53.2404 C124.2209,53.5444 125.7989,55.6154 125.4949,57.8664" id="Fill-61" fill="#FEFEFE"></path>
                    <path d="M125.4949,57.8664 C125.1909,60.1174 123.1199,61.6964 120.8689,61.3924 C118.6179,61.0884 117.0389,59.0164 117.3429,56.7654 C117.6469,54.5144 119.7189,52.9364 121.9699,53.2404 C124.2209,53.5444 125.7989,55.6154 125.4949,57.8664 Z" id="Stroke-63" stroke="#231F20" stroke-width="2"></path>
                    <path d="M122.1649,116.9728 C122.3379,119.2378 120.6429,121.2138 118.3769,121.3868 C116.1119,121.5588 114.1369,119.8638 113.9639,117.5988 C113.7909,115.3328 115.4859,113.3578 117.7519,113.1848 C120.0169,113.0118 121.9929,114.7078 122.1649,116.9728 Z" id="Stroke-65" stroke="#231F20" stroke-width="2"></path>
                    <path d="M161.8719,166.7463 C162.1729,168.9973 160.5909,171.0663 158.3389,171.3663 C156.0879,171.6663 154.0179,170.0843 153.7189,167.8333 C153.4189,165.5813 154.9999,163.5133 157.2519,163.2133 C159.5039,162.9123 161.5719,164.4943 161.8719,166.7463 Z" id="Stroke-67" stroke="#231F20" stroke-width="2"></path>
                    <path d="M106.9627,2.1916 C108.0247,4.1996 107.2567,6.6886 105.2477,7.7506 C103.2397,8.8116 100.7517,8.0446 99.6907,6.0356 C98.6287,4.0276 99.3967,1.5396 101.4037,0.4776 C103.4127,-0.5834 105.9007,0.1836 106.9627,2.1916 Z" id="Stroke-69" stroke="#231F20" stroke-width="2"></path>
                    <path d="M199.3328,74.7873 C198.2088,76.7613 195.6968,77.4493 193.7238,76.3253 C191.7498,75.2003 191.0618,72.6893 192.1858,70.7163 C193.3098,68.7423 195.8208,68.0543 197.7948,69.1783 C199.7688,70.3023 200.4568,72.8133 199.3328,74.7873" id="Fill-71" fill="#FEFEFE"></path>
                    <path d="M199.3328,74.7873 C198.2088,76.7613 195.6968,77.4493 193.7238,76.3253 C191.7498,75.2003 191.0618,72.6893 192.1858,70.7163 C193.3098,68.7423 195.8208,68.0543 197.7948,69.1783 C199.7688,70.3023 200.4568,72.8133 199.3328,74.7873 Z" id="Stroke-73" stroke="#231F20" stroke-width="2"></path>
                    <path d="M135.242,128.4474 C135.415,130.7124 133.719,132.6884 131.454,132.8614 C129.189,133.0344 127.213,131.3384 127.04,129.0734 C126.867,126.8074 128.563,124.8324 130.828,124.6594 C133.094,124.4864 135.069,126.1824 135.242,128.4474" id="Fill-75" fill="#FEFEFE"></path>
                    <path d="M135.242,128.4474 C135.415,130.7124 133.719,132.6884 131.454,132.8614 C129.189,133.0344 127.213,131.3384 127.04,129.0734 C126.867,126.8074 128.563,124.8324 130.828,124.6594 C133.094,124.4864 135.069,126.1824 135.242,128.4474 Z" id="Stroke-77" stroke="#231F20" stroke-width="2"></path>
                </g>
            </g>
        </g>
    </g>
</svg>