<?xml version="1.0" encoding="UTF-8"?>
<svg width="1025px" height="350px" viewBox="0 0 1025 350" version="1.1" xmlns="http://www.w3.org/2000/svg" xmlns:xlink="http://www.w3.org/1999/xlink">
    <title>startechHEADER</title>
    <defs>
        <linearGradient x1="50%" y1="0%" x2="50%" y2="0.0101769809%" id="linearGradient-1">
            <stop stop-color="#24314D" offset="0%"></stop>
            <stop stop-color="#7D7D7D" offset="100%"></stop>
        </linearGradient>
        <polygon id="path-2" points="0.870876606 7.36860044e-14 0.870876606 349.922376 1025 303.135214 1025 49.953779"></polygon>
    </defs>
    <g id="Branding" stroke="none" stroke-width="1" fill="none" fill-rule="evenodd">
        <g id="startechHEADER">
            <mask id="mask-3" fill="white">
                <use xlink:href="#path-2"></use>
            </mask>
            <use id="Mask" fill="url(#linearGradient-1)" xlink:href="#path-2"></use>
            <g id="starfinaltests-01" mask="url(#mask-3)" fill="#FFFFFF" fill-rule="nonzero">
                <g transform="translate(-27.000000, 45.000000)" id="Shape">
                    <path d="M329.295752,110.217715 C324.849357,107.679988 319.193502,109.237023 316.662198,113.695683 C316.269197,114.410546 315.969479,115.173118 315.770418,115.964644 L240.101213,121.645326 L233,154.437601 L254.254096,162.006323 C253.894432,166.652353 257.028218,170.844622 261.575954,171.801249 C266.123689,172.757877 270.673095,170.181785 272.205302,165.782403 C273.760305,161.401884 271.846862,156.543077 267.726845,154.410255 C263.606828,152.277433 258.549061,153.527433 255.889026,157.335908 L238.763543,151.241182 L244.163767,126.398549 L315.836476,120.999417 C316.890245,124.56755 319.965284,127.160912 323.651236,127.590068 C327.337189,128.019224 330.922896,126.201373 332.763786,122.970266 L332.763786,122.970266 C333.996252,120.819347 334.323229,118.26456 333.672364,115.871218 C333.021499,113.477877 331.446454,111.443308 329.295752,110.217715 L329.295752,110.217715 Z M259.406604,161.211359 C260.204663,158.961245 262.670486,157.785975 264.914172,158.58632 C267.157859,159.386666 268.329772,161.859552 267.531713,164.109666 C267.153595,165.192406 266.355664,166.076228 265.318776,166.560805 C264.287989,167.05949 263.10134,167.124848 262.022296,166.74237 C260.943253,166.359891 260.061118,165.56123 259.571748,164.52371 C259.072397,163.487398 259.01282,162.292454 259.406604,161.211359 L259.406604,161.211359 Z M328.453515,120.436318 C327.593138,121.961246 325.899967,122.814483 324.166405,122.596714 C322.432844,122.378944 321.001836,121.133248 320.543094,119.442612 C320.242119,118.32693 320.390396,117.137316 320.955955,116.130261 C321.524385,115.136619 322.462867,114.409893 323.565238,114.109727 C323.94212,114.006099 324.330509,113.950455 324.721249,113.94411 C325.469816,113.946297 326.204597,114.146227 326.851613,114.523771 C327.851209,115.089732 328.583214,116.033528 328.884197,117.14444 C329.185179,118.255353 329.030075,119.440874 328.453515,120.436318 L328.453515,120.436318 Z"></path>
                    <path d="M265.870514,294.350687 C265.07114,294.164963 264.250052,294.092216 263.430819,294.134532 L222.219757,190.030894 L202.07579,189 L133.434645,247.195613 L123.428599,222.470791 L101.669158,228.30698 C100.87277,226.930362 99.7370604,225.784807 98.372273,224.981516 C96.260279,223.722549 93.7326314,223.380608 91.3663924,224.033759 C87.7448456,224.996878 85.0568086,228.068205 84.5585037,231.812392 C84.0601989,235.556579 85.8500305,239.234232 89.0915418,241.126642 C90.4987566,241.950903 92.0963915,242.386749 93.7236652,242.390318 C94.5302026,242.38371 95.3329105,242.277616 96.1139068,242.074399 C98.4873726,241.443789 100.511729,239.880924 101.735096,237.734669 C102.531929,236.344653 102.952596,234.767815 102.954943,233.162157 L120.510856,228.456626 L129.461898,250.604213 L74.0742308,297.393486 C72.2201088,295.880712 69.8559824,295.153403 67.4804608,295.364954 C63.7498162,295.678425 60.5745368,298.229628 59.4373878,301.827222 C58.3002388,305.424816 59.4255634,309.359048 62.287867,311.792744 C63.9511944,313.212134 66.0600194,313.989912 68.2387444,313.98755 C68.5022384,314.00415 68.7665027,314.00415 69.0299968,313.98755 C71.9126336,313.77389 74.5256386,312.198777 76.0776385,309.739247 C77.6296383,307.279717 77.9380811,304.22507 76.9095518,301.500434 L131.308154,255.476018 L131.308154,255.476018 L133.56652,253.563876 L133.896208,253.281212 L133.896208,253.281212 L203.658294,194.087959 L218.69209,194.869443 L229.950952,223.302157 L203.031886,225.397199 L201.877977,248.043606 C197.357147,249.055552 194.27535,253.284287 194.66681,257.938521 C195.058271,262.592754 198.802284,266.237385 203.427512,266.466675 L203.905561,266.466675 C208.455232,266.48296 212.340774,263.158843 213.067428,258.628615 C213.794082,254.098387 211.145953,249.708014 206.823304,248.276389 L207.746432,229.986339 L231.87963,228.107452 L258.633851,295.630991 C255.205033,297.887428 253.659248,302.15225 254.836711,306.107304 C256.014174,310.062358 259.633557,312.762679 263.727539,312.740501 C268.439818,312.752881 272.407723,309.189276 272.940166,304.466571 C273.472609,299.743866 270.39929,295.372603 265.804576,294.317433 L265.870514,294.350687 Z M97.3996919,235.240572 C96.8448049,236.255498 95.9091228,237.003176 94.8026486,237.3158 C93.6961743,237.628423 92.5115866,237.479806 91.5147522,236.903303 C89.8275687,235.920203 89.0060096,233.91613 89.5121444,232.018234 C90.0182791,230.120339 91.7257449,228.802455 93.6742119,228.805791 C95.6254244,228.801891 97.332982,230.127835 97.828287,232.031499 C98.10474,233.116698 97.9509952,234.26785 97.3996919,235.240572 Z M71.5356293,307.53615 C70.7988959,308.417767 69.7413284,308.96312 68.6014017,309.049236 C66.8649951,309.197708 65.2112832,308.27501 64.4132323,306.712423 C63.6151815,305.149837 63.8304205,303.256 64.9583438,301.916117 C65.6887922,301.035455 66.74099,300.489806 67.876087,300.403007 L68.2552288,300.403007 C70.4934413,300.395656 72.3604115,302.126709 72.5411793,304.37696 C72.6269006,305.521954 72.2661094,306.655471 71.5356293,307.53615 L71.5356293,307.53615 Z M208.273933,257.404786 C208.140948,259.798881 206.114843,261.634466 203.740717,261.511734 C202.601113,261.457518 201.531354,260.941981 200.77352,260.081785 C200.00828,259.229582 199.611135,258.104999 199.669911,256.956729 C199.728687,255.808459 200.238542,254.731111 201.086724,253.962932 C201.930271,253.183821 203.047561,252.777119 204.189967,252.833329 C205.332373,252.88954 206.405114,253.403998 207.169477,254.262223 C207.916387,255.112597 208.311663,256.219442 208.273933,257.354905 L208.273933,257.404786 Z M267.98052,304.476724 C267.533167,306.383595 265.87444,307.751526 263.932762,307.814856 C261.991085,307.878187 260.248207,306.621205 259.679654,304.747469 C259.111101,302.873733 259.857937,300.848137 261.502141,299.804447 C262.184525,299.374072 262.972205,299.14378 263.776992,299.139355 C264.109672,299.145261 264.440964,299.184247 264.766057,299.255746 C265.89247,299.502066 266.874544,300.192305 267.493736,301.172864 C268.112929,302.153423 268.317866,303.342946 268.062942,304.476724 L267.98052,304.476724 Z"></path>
                    <path d="M106.843225,188 L165.49239,145.139166 L138.854593,122.552134 L146.923167,93.2071683 L169.469162,107.896174 L183.946582,90.646093 C188.130935,92.5843759 193.096007,91.112744 195.565656,87.2022354 C198.035305,83.2917268 197.248405,78.1475301 193.724182,75.1639798 L193.724182,75.1639798 C190.208561,72.1859208 185.046519,72.273244 181.632519,75.3685274 C178.218519,78.4638108 177.599894,83.6174978 180.183439,87.4406181 L168.499618,101.369563 L148.237802,88.1511099 L167.382178,18.5063852 L168.00663,18.5063852 C172.316857,18.4828515 176.033347,15.454334 176.949044,11.2193339 C177.864741,6.98433387 175.73427,2.67767443 171.822825,0.856888344 C167.911379,-0.963897747 163.26708,0.189092728 160.64797,3.63115021 C158.028859,7.07320769 158.136762,11.8819883 160.9076,15.2017719 C161.436628,15.8287386 162.044228,16.384132 162.715223,16.8540786 L133.13593,124.25401 L157.374517,144.825228 L106.596731,181.919512 L81.7172587,165.082507 L102.702124,148.146364 L90.9854372,128.896992 C92.0807678,127.747115 92.8570274,126.328512 93.2367501,124.782748 C94.1183838,121.130338 92.7234309,117.303735 89.7031242,115.089386 C86.6828174,112.875037 82.6328264,112.70966 79.4438864,114.67046 C76.2549464,116.63126 74.555985,120.331526 75.1401612,124.043792 C75.7243373,127.756057 78.4764389,130.748183 82.1116493,131.623298 C82.8227243,131.791954 83.5502399,131.880622 84.2807974,131.887667 C85.1368673,131.882733 85.9882693,131.760437 86.8114703,131.524159 L96.2275453,147.022795 L77.4446941,162.19097 L17.7273878,121.957304 C19.2530351,118.18603 18.147808,113.855172 15.004717,111.288456 C11.861626,108.721741 7.41927683,108.522328 4.06121587,110.797214 C0.703154918,113.0721 -0.781495552,117.286701 0.403854973,121.179669 C1.5892055,125.072637 5.16600742,127.72915 9.21512454,127.723854 C10.3404784,127.711473 11.4541805,127.49311 12.5017127,127.079454 C13.2616848,126.773496 13.9752454,126.361922 14.621562,125.856747 L106.843225,188 Z M184.554601,79.459977 C185.374995,78.4926171 186.576816,77.9367477 187.841189,77.9397924 C188.851475,77.9343536 189.830507,78.2917853 190.601923,78.947762 C192.410319,80.4851662 192.63726,83.2053262 191.108874,85.0241774 C189.580489,86.8430286 186.875245,87.0721657 185.06578,85.5360343 C183.256316,83.9999028 183.027482,81.2799031 184.554601,79.459977 L184.554601,79.459977 Z M165.328061,5.99842397 C167.15082,4.47952496 169.852813,4.73280082 171.364934,6.56430045 C172.877055,8.39580008 172.627395,11.1128207 170.807137,12.6347488 C168.986878,14.156677 166.284472,13.9078949 164.769341,12.0789124 C163.269263,10.239878 163.518268,7.52997792 165.328061,5.99842397 L165.328061,5.99842397 Z M80.5998187,124.832317 C79.6929269,123.343716 79.7680246,121.452209 80.7900451,120.041033 C81.8120657,118.629857 83.5793918,117.977398 85.2667739,118.388321 C86.3808052,118.647441 87.341938,119.351365 87.9289103,120.338043 C88.5505096,121.319612 88.7352371,122.517939 88.4383314,123.642657 C88.1810776,124.758366 87.4881513,125.723065 86.5156774,126.319393 C84.4727825,127.54542 81.8285664,126.88074 80.5998187,124.832317 L80.5998187,124.832317 Z M10.7762539,122.469519 C9.16956988,123.120574 7.33130232,122.740045 6.11104663,121.503802 C4.89079095,120.267558 4.52622233,118.416389 5.18583412,116.805853 C5.8454459,115.195317 7.40076226,114.139106 9.13295984,114.12537 C9.69969294,114.132191 10.259001,114.255913 10.7762539,114.488878 C12.3615095,115.193879 13.3716892,116.786008 13.3393956,118.528606 C13.3071019,120.271204 12.2386335,121.824388 10.6283574,122.469519 L10.7762539,122.469519 Z"></path>
                </g>
            </g>
        </g>
    </g>
</svg>