<?xml version="1.0" encoding="UTF-8"?>
<svg width="241px" height="203px" viewBox="0 0 241 203" version="1.1" xmlns="http://www.w3.org/2000/svg" xmlns:xlink="http://www.w3.org/1999/xlink">
    <title>Group 22</title>
    <g id="Branding" stroke="none" stroke-width="1" fill="none" fill-rule="evenodd">
        <g id="Desktop-HD" transform="translate(-1084.000000, -3130.000000)" stroke="#231F20" stroke-width="2">
            <g id="Group-9" transform="translate(1086.000000, 3039.000000)">
                <g id="Group-22" transform="translate(0.000000, 92.000000)">
                    <polyline id="Stroke-1" points="152.8095 55.7414 130.7655 0.9874 90.9445 52.1854 0.6345 69.5824 61.7885 109.0744 62.0925 130.9234"></polyline>
                    <polyline id="Stroke-3" points="131.7577 142.2214 178.9307 179.5534 176.2157 132.7194 211.8497 91.3154"></polyline>
                    <polyline id="Stroke-4" points="135.4091 133.0729 168.8621 159.5469 166.9361 126.3349 192.2071 96.9729"></polyline>
                    <polyline id="Stroke-5" points="129.0116 152.238 188.5556 199.359 185.1286 140.243 230.1086 87.982"></polyline>
                    <polyline id="Stroke-7" points="145.9404 63.9216 128.2664 20.0236 96.3414 61.0706 23.9384 75.0186 72.9664 106.6796 73.2104 124.1966"></polyline>
                    <polyline id="Stroke-8" points="138.2519 71.3107 125.1409 38.7437 101.4559 69.1957 47.7409 79.5427 84.1149 103.0317 84.2949 116.0277"></polyline>
                    <g id="Group-21" transform="translate(57.000000, 62.526000)">
                        <path d="M9.9897,72.9082 C9.9897,75.6092 7.7997,77.8002 5.0977,77.8002 C2.3957,77.8002 0.2057,75.6092 0.2057,72.9082 C0.2057,70.2062 2.3957,68.0152 5.0977,68.0152 C7.7997,68.0152 9.9897,70.2062 9.9897,72.9082 Z" id="Stroke-9"></path>
                        <path d="M31.831,58.3936 C31.831,61.0956 29.641,63.2856 26.939,63.2856 C24.237,63.2856 22.047,61.0956 22.047,58.3936 C22.047,55.6916 24.237,53.5016 26.939,53.5016 C29.641,53.5016 31.831,55.6916 31.831,58.3936 Z" id="Stroke-11"></path>
                        <path d="M95.8095,5.6924 C95.8095,8.3944 93.6205,10.5844 90.9175,10.5844 C88.2165,10.5844 86.0265,8.3944 86.0265,5.6924 C86.0265,2.9904 88.2165,0.8004 90.9175,0.8004 C93.6205,0.8004 95.8095,2.9904 95.8095,5.6924 Z" id="Stroke-13"></path>
                        <path d="M75.7577,76.7999 C75.7577,79.5019 73.5677,81.6919 70.8647,81.6919 C68.1637,81.6919 65.9737,79.5019 65.9737,76.7999 C65.9737,74.0989 68.1637,71.9079 70.8647,71.9079 C73.5677,71.9079 75.7577,74.0989 75.7577,76.7999 Z" id="Stroke-15"></path>
                        <path d="M143.1845,31.0293 C143.1845,33.7313 140.9945,35.9213 138.2915,35.9213 C135.5905,35.9213 133.4005,33.7313 133.4005,31.0293 C133.4005,28.3273 135.5905,26.1373 138.2915,26.1373 C140.9945,26.1373 143.1845,28.3273 143.1845,31.0293 Z" id="Stroke-17"></path>
                        <path d="M180.4218,21.2457 C180.4218,23.9477 178.2318,26.1377 175.5298,26.1377 C172.8278,26.1377 170.6388,23.9477 170.6388,21.2457 C170.6388,18.5437 172.8278,16.3537 175.5298,16.3537 C178.2318,16.3537 180.4218,18.5437 180.4218,21.2457 Z" id="Stroke-19"></path>
                    </g>
                </g>
            </g>
        </g>
    </g>
</svg>