<?xml version="1.0" encoding="UTF-8"?>
<svg width="319px" height="81px" viewBox="0 0 319 81" version="1.1" xmlns="http://www.w3.org/2000/svg" xmlns:xlink="http://www.w3.org/1999/xlink">
    <title>startechHEADER</title>
    <defs>
        <polygon id="path-1" points="0 2.29628801e-14 1.41664458e-13 81 319 66.4196466 319 15.5671711"></polygon>
    </defs>
    <g id="Branding" stroke="none" stroke-width="1" fill="none" fill-rule="evenodd">
        <g id="Mobile" transform="translate(0.000000, -205.000000)">
            <g id="startechHEADER" transform="translate(159.500000, 245.500000) scale(-1, 1) translate(-159.500000, -245.500000) translate(0.000000, 205.000000)">
                <mask id="mask-2" fill="white">
                    <use xlink:href="#path-1"></use>
                </mask>
                <use id="background" fill="#7D7D7D" xlink:href="#path-1"></use>
                <g id="starfinaltests-01" mask="url(#mask-2)" fill-rule="nonzero">
                    <g transform="translate(31.000000, 50.000000) scale(-1, 1) translate(-31.000000, -50.000000) translate(-13.000000, 9.000000)" id="Shape">
                        <path d="M86.7601642,28.8939507 C85.5882875,28.2308339 84.0976497,28.6376926 83.4305078,29.8027561 C83.3269297,29.9895523 83.2479372,30.1888151 83.1954732,30.3956434 L63.2523545,31.8800256 L61.3807829,40.4487622 L66.9824402,42.4264958 C66.8876485,43.6405198 67.7135785,44.7359745 68.9121643,44.9859446 C70.11075,45.2359147 71.3097758,44.5627729 71.7135991,43.4131988 C72.1234306,42.2685538 71.6191301,40.9989305 70.5332723,40.4416167 C69.4474146,39.8843029 68.1144066,40.2109322 67.4133369,41.2061 L62.8998027,39.6135268 L64.3230676,33.1220596 L83.2128832,31.7112474 C83.4906111,32.643613 84.3010578,33.3212676 85.272515,33.4334076 C86.2439722,33.5455476 87.1890089,33.0705368 87.6741876,32.2262372 L87.6741876,32.2262372 C87.9990122,31.6641945 88.0851891,30.9966195 87.9136493,30.371231 C87.7421095,29.7458424 87.3269962,29.2142025 86.7601642,28.8939507 L86.7601642,28.8939507 Z M68.3404178,42.2187689 C68.5507516,41.6308062 69.2006354,41.3237041 69.7919739,41.5328372 C70.3833124,41.7419703 70.6921777,42.388144 70.4818439,42.9761067 C70.3821886,43.2590306 70.1718885,43.4899763 69.8986099,43.6165981 C69.6269391,43.7469061 69.3141898,43.7639845 69.0298008,43.6640415 C68.7454119,43.5640986 68.5129192,43.3554054 68.3839427,43.0842978 C68.2523353,42.8135061 68.2366335,42.5012631 68.3404178,42.2187689 L68.3404178,42.2187689 Z M86.5381871,31.5641075 C86.3114293,31.9625766 85.8651827,32.1855305 85.4082912,32.1286266 C84.9513996,32.0717226 84.5742479,31.7462179 84.4533434,31.3044488 C84.3740196,31.0129172 84.413099,30.7020669 84.5621557,30.4389199 C84.7119694,30.1792777 84.9593125,29.9893815 85.2498495,29.9109472 C85.3491792,29.8838687 85.4515419,29.8693289 85.5545239,29.8676708 C85.7518136,29.8682423 85.9454699,29.9204847 86.1159954,30.0191383 C86.3794456,30.167026 86.5723703,30.413643 86.6516962,30.7039284 C86.7310221,30.9942138 86.6901435,31.3039946 86.5381871,31.5641075 L86.5381871,31.5641075 Z" fill="#B0B0B0"></path>
                        <path d="M69.8373123,76.8244901 C69.6267478,76.7755715 69.4104636,76.7564102 69.1946681,76.7675561 L58.3391916,49.3472887 L53.0330347,49.0757576 L34.952153,64.4041294 L32.3164433,57.8917611 L26.5847518,59.4289779 C26.3749739,59.066385 26.0758146,58.7646529 25.7163136,58.5530709 C25.1599897,58.2214664 24.4941777,58.1314013 23.8708826,58.3034374 C22.9169248,58.5571171 22.2088643,59.366086 22.077605,60.3522822 C21.9463457,61.3384783 22.4178083,62.3071497 23.2716603,62.8055992 C23.6423372,63.0227045 24.0631729,63.1375037 24.4918159,63.1384438 C24.7042673,63.1367034 24.91571,63.1087588 25.1214335,63.0552327 C25.7466322,62.8891338 26.2798713,62.4774846 26.6021205,61.9121741 C26.8120158,61.5460523 26.9228242,61.1307226 26.9234426,60.707802 L31.5478756,59.4683937 L33.9056851,65.301934 L19.3159247,77.625945 C18.8275273,77.2274893 18.2047887,77.0359205 17.5790484,77.0916417 C16.596353,77.1742083 15.7599472,77.8461796 15.4604088,78.7937641 C15.1608704,79.7413486 15.4572941,80.7776015 16.2112584,81.4186221 C16.6493983,81.7924809 17.2048875,81.9973429 17.7787892,81.9967207 C17.8481966,82.0010931 17.9178069,82.0010931 17.9872144,81.9967207 C18.7465347,81.9404441 19.4348308,81.5255687 19.8436458,80.8777434 C20.2524607,80.2299181 20.3337081,79.4253426 20.0627815,78.7076901 L34.3920104,66.5851377 L34.3920104,66.5851377 L34.9868906,66.0814912 L35.0737344,66.0070391 L35.0737344,66.0070391 L53.449885,50.4158952 L57.4099628,50.6217334 L60.375679,58.1107379 L53.2848817,58.6625593 L52.9809284,64.6274857 C51.7900889,64.8940259 50.9783075,66.0078492 51.0814228,67.2337461 C51.184538,68.4596429 52.170755,69.4196166 53.3890943,69.4800102 L53.5150178,69.4800102 C54.7134545,69.4842996 55.7369518,68.6087475 55.928361,67.4155128 C56.1197702,66.222278 55.4222219,65.0658805 54.2835856,64.6887991 L54.5267482,59.8713109 L60.8837153,59.3764234 L67.9310906,77.1617143 C67.0278998,77.7560463 66.620722,78.8793744 66.9308794,79.9211117 C67.2410369,80.9628491 68.1944248,81.674097 69.2728275,81.6682556 C70.5140971,81.6715164 71.5592897,80.7328844 71.6995415,79.4889526 C71.8397932,78.2450208 71.030245,77.0936566 69.8199435,76.815731 L69.8373123,76.8244901 Z M25.4601244,61.2552439 C25.3139606,61.5225692 25.067491,61.7195033 24.7760327,61.8018464 C24.4845745,61.8841895 24.1725402,61.8450446 23.9099623,61.6931973 C23.4655384,61.4342546 23.2491301,60.9063939 23.382452,60.4064998 C23.5157738,59.9066057 23.9655403,59.559483 24.4787893,59.5603616 C24.9927615,59.5593345 25.4425522,59.90858 25.5730213,60.4099936 C25.6458423,60.6958284 25.6053441,60.999035 25.4601244,61.2552439 Z M18.6472273,80.2974612 C18.4531631,80.5296736 18.1745875,80.6733164 17.8743174,80.6959989 C17.4169276,80.7351053 16.9813205,80.4920722 16.7711045,80.0804965 C16.5608886,79.6689207 16.6175851,79.1700956 16.9146933,78.8171784 C17.1071019,78.5852175 17.3842632,78.4414967 17.683261,78.4186346 L17.7831314,78.4186346 C18.3727028,78.4166982 18.8644846,78.8726471 18.912101,79.4653496 C18.934681,79.7669341 18.8396443,80.0654957 18.6472273,80.2974612 L18.6472273,80.2974612 Z M54.6656983,67.0931638 C54.6306684,67.7237537 54.0969687,68.2072358 53.4715959,68.1749089 C53.1714109,68.1606287 52.889624,68.0248393 52.6900016,67.7982689 C52.4884284,67.5738038 52.3838158,67.2775955 52.3992981,66.9751481 C52.4147804,66.6727007 52.5490821,66.3889338 52.7725032,66.1866001 C52.9947034,65.9813869 53.2890105,65.8742643 53.5899337,65.8890697 C53.8908568,65.9038751 54.1734294,66.0393803 54.3747716,66.2654317 C54.5715164,66.489415 54.6756366,66.7809512 54.6656983,67.0800252 L54.6656983,67.0931638 Z M70.3931127,79.4916268 C70.2752747,79.9938851 69.8383464,80.3541897 69.3268858,80.3708707 C68.8154252,80.3875516 68.3563308,80.0564701 68.2065673,79.5629395 C68.0568038,79.0694088 68.253529,78.5358789 68.6866318,78.2609775 C68.8663797,78.1476192 69.0738639,78.0869617 69.2858541,78.0857961 C69.373486,78.0873518 69.4607521,78.0976204 69.5463855,78.1164529 C69.8430958,78.181332 70.1017856,78.3631369 70.2648882,78.6214102 C70.4279907,78.8796835 70.4819735,79.1929964 70.4148236,79.4916268 L70.3931127,79.4916268 Z" fill="#B0B0B0"></path>
                        <path d="M28.1945523,49.0757576 L43.6713123,37.8873113 L36.6419405,31.991164 L38.7711333,24.330917 L44.7207312,28.1653537 L48.5411362,23.6623707 C49.6453331,24.1683425 50.9555516,23.7841858 51.6072602,22.7633817 C52.2589689,21.7425776 52.0513161,20.39973 51.1213189,19.6209003 L51.1213189,19.6209003 C50.1935918,18.843504 48.8313952,18.866299 47.9304846,19.6742956 C47.0295741,20.4822923 46.8663267,21.8276173 47.5480911,22.8256094 L44.4648811,26.4616388 L39.1180486,23.0110771 L44.1700031,4.83093018 L44.3347879,4.83093018 C45.4722012,4.82478692 46.4529353,4.03421887 46.6945758,2.9287091 C46.9362164,1.82319934 46.3740127,0.698983518 45.3418325,0.223683216 C44.3096523,-0.251617086 43.0840816,0.0493610047 42.3929321,0.94788004 C41.7017826,1.84639907 41.7302568,3.10168924 42.4614451,3.96828976 C42.6010488,4.13195393 42.7613867,4.27693452 42.9384537,4.39960997 L35.1328588,32.4354238 L41.5291102,37.8053604 L28.1295056,47.4884992 L21.5641331,43.0933462 L27.101769,38.6723141 L24.0098861,33.6474336 C24.2989298,33.3472684 24.5037747,32.9769543 24.6039786,32.5734462 C24.8366304,31.6200164 24.4685203,30.6211151 23.6715002,30.0430787 C22.8744801,29.4650423 21.8057396,29.421872 20.9642194,29.9337218 C20.1226991,30.4455716 19.6743651,31.4114937 19.8285217,32.3805481 C19.9826782,33.3496026 20.7089224,34.1306709 21.6682077,34.3591119 C21.8558512,34.4031383 22.0478332,34.4262841 22.240618,34.4281232 C22.4665238,34.4268352 22.6911978,34.3949109 22.90843,34.3332327 L25.393211,38.3790163 L20.4366583,42.3385359 L4.67802953,31.8358887 C5.08062824,30.8514305 4.78897302,29.720898 3.95955175,29.0508793 C3.13013047,28.3808606 1.95785169,28.3288057 1.07170261,28.9226448 C0.185553535,29.5164838 -0.20622662,30.6166685 0.106572131,31.6328938 C0.419370882,32.6491191 1.36324288,33.3425787 2.43175279,33.3411962 C2.72871921,33.3379642 3.02261084,33.2809625 3.29904111,33.1729813 C3.49958796,33.0931136 3.68788744,32.9856757 3.85844207,32.8538044 L28.1945523,49.0757576 Z M48.7015845,20.7423328 C48.9180759,20.489812 49.2352209,20.3447071 49.5688729,20.3455019 C49.8354742,20.3440822 50.0938283,20.4373866 50.297395,20.6086236 C50.7746073,21.0099495 50.8344941,21.7200235 50.4311728,22.1948187 C50.0278515,22.6696139 49.3139726,22.7294282 48.8364782,22.3284345 C48.3589837,21.9274408 48.2985974,21.2174086 48.7015845,20.7423328 L48.7015845,20.7423328 Z M43.6279479,1.56583617 C44.1089507,1.16934086 44.8219719,1.23545631 45.2210011,1.71355328 C45.6200304,2.19165026 45.5541484,2.90090475 45.0738056,3.2981908 C44.5934628,3.69547685 43.8803326,3.63053445 43.4805089,3.15309456 C43.0846575,2.6730307 43.1503669,1.96563495 43.6279479,1.56583617 L43.6279479,1.56583617 Z M21.2692551,32.5863859 C21.029938,32.1977995 21.0497553,31.7040382 21.3194534,31.335663 C21.5891514,30.9672877 22.055526,30.7969691 22.5008045,30.904237 C22.794783,30.971878 23.0484136,31.1556312 23.203308,31.4131949 C23.3673401,31.6694249 23.4160873,31.9822375 23.3377377,32.2758353 C23.2698517,32.5670815 23.0869974,32.8189076 22.830374,32.974574 C22.2912804,33.2946175 21.5935058,33.1211088 21.2692551,32.5863859 L21.2692551,32.5863859 Z M2.84371474,31.969598 C2.4197315,32.1395502 1.93463635,32.0402165 1.61262657,31.7175059 C1.2906168,31.3947953 1.19441183,30.9115639 1.3684749,30.4911475 C1.54253796,30.0707312 1.95296593,29.7950164 2.41007058,29.7914309 C2.55962416,29.7932113 2.70721837,29.825508 2.84371474,29.8863213 C3.26204329,30.0703557 3.52861673,30.4859671 3.52009485,30.9408571 C3.51157297,31.3957472 3.2296179,31.8011922 2.80468677,31.969598 L2.84371474,31.969598 Z" fill="#909090"></path>
                    </g>
                </g>
            </g>
        </g>
    </g>
</svg>