<?xml version="1.0" encoding="UTF-8"?>
<svg width="768px" height="195px" viewBox="0 0 768 195" version="1.1" xmlns="http://www.w3.org/2000/svg" xmlns:xlink="http://www.w3.org/1999/xlink">
    <title>startechHEADER</title>
    <defs>
        <polygon id="path-1" points="0 5.52810077e-14 3.41060513e-13 195 768 159.899149 768 37.476523"></polygon>
    </defs>
    <g id="Branding" stroke="none" stroke-width="1" fill="none" fill-rule="evenodd">
        <g id="Tablet" transform="translate(0.000000, -512.000000)">
            <g id="startechHEADER" transform="translate(384.000000, 609.500000) scale(-1, 1) translate(-384.000000, -609.500000) translate(0.000000, 512.000000)">
                <mask id="mask-2" fill="white">
                    <use xlink:href="#path-1"></use>
                </mask>
                <use id="background" fill="#7D7D7D" xlink:href="#path-1"></use>
                <g id="starfinaltests-01" mask="url(#mask-2)" fill-rule="nonzero">
                    <g transform="translate(73.500000, 120.000000) scale(-1, 1) translate(-73.500000, -120.000000) translate(-32.000000, 21.000000)" id="Shape">
                        <path d="M208.027212,69.76832 C205.217371,68.1671356 201.643228,69.1495505 200.043604,71.9627525 C199.795252,72.413797 199.605849,72.8949437 199.480055,73.3943585 L151.661895,76.9785983 L147.174377,97.6689624 L160.605624,102.444466 C160.378339,105.375889 162.358694,108.021012 165.232576,108.624598 C168.106457,109.228184 170.981394,107.602793 171.949652,104.826992 C172.932317,102.063093 171.723141,98.9974175 169.119551,97.6517086 C166.51596,96.3059997 163.31977,97.09469 161.638797,99.4976561 L150.816572,95.6521743 L154.229173,79.9776562 L199.521799,76.5710609 C200.187715,78.8223826 202.130945,80.4586707 204.460235,80.7294476 C206.789524,81.0002246 209.055465,79.8532473 210.218791,77.8145726 L210.218791,77.8145726 C210.997632,76.4574453 211.20426,74.845496 210.792955,73.3354114 C210.381649,71.8253269 209.38632,70.5416109 208.027212,69.76832 L208.027212,69.76832 Z M163.861683,101.942881 C164.366007,100.523166 165.924251,99.781627 167.342119,100.286607 C168.759988,100.791587 169.500562,102.35186 168.996239,103.771575 C168.757293,104.454732 168.253051,105.012382 167.597803,105.318127 C166.946411,105.632773 166.196523,105.674011 165.514636,105.432686 C164.832749,105.19136 164.275295,104.687442 163.966044,104.032817 C163.650486,103.378954 163.612837,102.625001 163.861683,101.942881 L163.861683,101.942881 Z M207.494971,76.2157718 C206.951268,77.177929 205.88129,77.7162811 204.785789,77.5788788 C203.690288,77.4414766 202.785981,76.6555017 202.496085,75.5887911 C202.305888,74.8848488 202.39959,74.1342591 202.756987,73.4988553 C203.116199,72.8719144 203.709261,72.4133847 204.405889,72.2239945 C204.644055,72.1586098 204.889492,72.1235016 205.136415,72.1194977 C205.609462,72.1208776 206.073797,72.2470241 206.482671,72.4852365 C207.114352,72.8423311 207.576933,73.437821 207.767135,74.138754 C207.957337,74.8396871 207.859321,75.5876943 207.494971,76.2157718 L207.494971,76.2157718 Z" fill="#B0B0B0"></path>
                        <path d="M167.450828,185.503037 C166.945952,185.384917 166.427362,185.338649 165.909943,185.365562 L139.881471,119.155648 L127.158754,118.5 L83.8057306,155.51241 L77.4860176,139.787423 L63.7429843,143.499239 C63.2399942,142.62371 62.5226919,141.895137 61.6607065,141.384244 C60.3267934,140.583541 58.7303579,140.366067 57.2358663,140.781471 C54.9485355,141.394014 53.2507997,143.347378 52.9360756,145.728681 C52.6213516,148.109984 53.7517903,150.448971 55.7990946,151.652544 C56.6878767,152.176774 57.696926,152.453972 58.7246949,152.456242 C59.2340954,152.45204 59.7410773,152.384564 60.2343463,152.255318 C61.7334022,151.85425 63.0119641,150.860268 63.7846299,149.49525 C64.2879015,148.6112 64.55359,147.60833 64.5550726,146.587132 L75.6432017,143.594414 L81.2965859,157.68028 L46.3143194,187.438257 C45.1432756,186.476133 43.6501182,186.013564 42.1497639,186.14811 C39.7935281,186.347479 37.7880552,187.970043 37.0698438,190.258113 C36.3516325,192.546183 37.0623757,195.048355 38.8701764,196.596185 C39.9207164,197.498917 41.2526281,197.993584 42.6286878,197.992082 C42.7951079,198.002639 42.9620144,198.002639 43.1284344,197.992082 C44.9490775,197.856194 46.5994239,196.854422 47.5796506,195.290161 C48.5598773,193.7259 48.7546865,191.783144 48.1050783,190.050276 L82.4626614,160.778747 L82.4626614,160.778747 L83.8890217,159.562625 L84.0972495,159.382851 L84.0972495,159.382851 L128.158247,121.735942 L137.653434,122.232966 L144.764412,140.316172 L127.762614,141.648619 L127.033817,156.051734 C124.178509,156.695331 122.232078,159.384807 122.479321,162.344899 C122.726563,165.304991 125.091242,167.622977 128.012487,167.768805 L128.314418,167.768805 C131.187942,167.779162 133.64201,165.665024 134.100957,162.783799 C134.559903,159.902574 132.887373,157.110297 130.157234,156.199783 L130.740271,144.567312 L145.982545,143.37234 L162.880229,186.31731 C160.714623,187.752404 159.738322,190.464831 160.481995,192.980245 C161.225668,195.49566 163.511632,197.213064 166.097348,197.198959 C169.073574,197.206832 171.579661,194.940379 171.915946,191.936739 C172.252231,188.933099 170.311156,186.152976 167.409183,185.481887 L167.450828,185.503037 Z M61.0464346,147.909003 C60.6959738,148.554496 60.1050069,149.03002 59.4061694,149.228849 C58.707332,149.427677 57.9591589,149.333156 57.3295688,148.966501 C56.2639614,148.341249 55.7450734,147.066658 56.0647428,145.859597 C56.3844122,144.652536 57.4628295,143.814361 58.6934607,143.816483 C59.925826,143.814003 61.0043013,144.657303 61.3171307,145.868033 C61.4917356,146.55822 61.394632,147.290353 61.0464346,147.909003 Z M44.7109655,193.888992 C44.2456525,194.4497 43.577704,194.796544 42.8577383,194.851314 C41.7610423,194.945742 40.7165752,194.358906 40.2125347,193.365101 C39.7084942,192.371296 39.8444369,191.166816 40.5568214,190.31465 C41.0181649,189.75455 41.6827219,189.407516 42.3996372,189.352313 L42.6390992,189.352313 C44.0527306,189.347637 45.2318893,190.448587 45.3460603,191.879747 C45.400201,192.607963 45.172329,193.32888 44.7109655,193.888992 L44.7109655,193.888992 Z M131.073436,162.005444 C130.989443,163.528088 129.709777,164.69552 128.210304,164.617463 C127.490542,164.582981 126.814894,164.2551 126.336254,163.708015 C125.852936,163.166014 125.602104,162.450779 125.639226,161.72048 C125.676349,160.99018 125.998367,160.304986 126.53407,159.816425 C127.066846,159.32091 127.772514,159.062248 128.494045,159.097998 C129.215577,159.133747 129.893109,159.460943 130.375873,160.006774 C130.847613,160.547612 131.097265,161.251565 131.073436,161.973719 L131.073436,162.005444 Z M168.783486,191.943196 C168.500943,193.155966 167.453308,194.02597 166.226965,194.066249 C165.000622,194.106527 163.899839,193.307086 163.540747,192.11539 C163.181655,190.923694 163.653348,189.635415 164.69181,188.971629 C165.122797,188.69791 165.620287,188.551444 166.128582,188.54863 C166.338699,188.552386 166.54794,188.577181 166.753265,188.622654 C167.464696,188.779314 168.084963,189.218306 168.476039,189.841942 C168.867114,190.465577 168.99655,191.222113 168.835543,191.943196 L168.783486,191.943196 Z" fill="#B0B0B0"></path>
                        <path d="M67.6028469,118.5 L104.711897,91.4839955 L87.85738,77.2469569 L92.9626037,58.750263 L107.228117,68.0090247 L116.388406,57.1359682 C119.035969,58.357705 122.177516,57.4301073 123.740135,54.9652388 C125.302755,52.5003703 124.80486,49.2578846 122.574981,47.3772958 L122.574981,47.3772958 C120.350544,45.5001681 117.084368,45.5552097 114.92423,47.5062261 C112.764092,49.4572425 112.37267,52.70571 114.007355,55.115496 L106.614658,63.8951767 L93.7944121,55.5633326 L105.907621,11.664929 L106.30273,11.664929 C109.029937,11.6500952 111.38147,9.74116264 111.960858,7.07176101 C112.540246,4.40235938 111.192235,1.68778947 108.717348,0.540113132 C106.242462,-0.607563207 103.303877,0.119188767 101.646689,2.28878351 C99.9895014,4.45837825 100.057775,7.48944475 101.810965,9.58196795 C102.145697,9.97715704 102.530143,10.3272321 102.954701,10.6234485 L84.2390137,78.3196818 L99.57548,91.2861142 L67.4468829,114.667352 L51.70491,104.054665 L64.9826506,93.37949 L57.5691588,81.2462421 C58.2622067,80.521453 58.7533689,79.62728 58.9936306,78.6529556 C59.5514661,76.3507713 58.6688385,73.9387902 56.7578017,72.5430437 C54.8467649,71.1472972 52.2842166,71.0430567 50.2664806,72.2789867 C48.2487445,73.5149167 47.1737618,75.8472653 47.5433872,78.1871772 C47.9130126,80.5270892 49.6543481,82.4130834 51.9544525,82.9646849 C52.4043706,83.0709924 52.8646911,83.1268811 53.3269363,83.1313218 C53.8685968,83.1282119 54.4073039,83.0511264 54.9281673,82.9021961 L60.8859946,92.6712833 L49.0015329,102.232074 L11.216639,76.8720239 C12.1819609,74.4949176 11.4826512,71.7650951 9.49392521,70.147245 C7.50519919,68.529395 4.69439439,68.4037016 2.56965058,69.8376057 C0.444906771,71.2715098 -0.494475192,73.9280533 0.255530905,76.3818656 C1.005537,78.8356779 3.26868464,80.510129 5.83067999,80.5067909 C6.54272446,80.4989868 7.24739644,80.3613485 7.91020084,80.1006135 C8.3910575,79.907762 8.8425483,79.6483389 9.25149179,79.3299179 L67.6028469,118.5 Z M116.773117,50.0851451 C117.292205,49.4753996 118.052632,49.1250245 118.852638,49.1269436 C119.491876,49.1235154 120.111338,49.3488114 120.599436,49.7622861 C121.743661,50.7313414 121.887253,52.4459104 120.920198,53.5923671 C119.953144,54.7388238 118.241457,54.8832534 117.096556,53.9150003 C115.951654,52.9467472 115.806864,51.2322794 116.773117,50.0851451 L116.773117,50.0851451 Z M104.60792,3.78092149 C105.761234,2.82353036 107.470864,2.98317498 108.427628,4.13760427 C109.384391,5.29203356 109.226424,7.00462366 108.074693,7.96392413 C106.922962,8.9232246 105.21307,8.76641246 104.254402,7.61356978 C103.305258,6.45439119 103.462812,4.74628927 104.60792,3.78092149 L104.60792,3.78092149 Z M50.9978729,78.6842 C50.4240558,77.745906 50.4715723,76.5536533 51.1182348,75.6641618 C51.7648972,74.7746704 52.8831363,74.3634132 53.9507925,74.622426 C54.6556729,74.7857542 55.2638098,75.229451 55.6352044,75.851373 C56.0285086,76.4700747 56.1453911,77.2254027 55.9575301,77.934334 C55.7947581,78.6375871 55.3563233,79.245655 54.7410104,79.6215325 C53.4484108,80.3943204 51.7753377,79.9753602 50.9978729,78.6842 L50.9978729,78.6842 Z M6.81845239,77.1948829 C5.80185622,77.6052555 4.63873033,77.3654008 3.86663872,76.5861728 C3.0945471,75.8069449 2.86387383,74.6401177 3.28122958,73.624966 C3.69858533,72.6098143 4.68267968,71.944064 5.77869197,71.9354063 C6.13728065,71.9397054 6.49117132,72.0176901 6.81845239,72.164532 C7.82149015,72.6089078 8.46066058,73.6124571 8.44022743,74.7108501 C8.41979428,75.8092431 7.74374293,76.7882447 6.72487396,77.1948829 L6.81845239,77.1948829 Z" fill="#909090"></path>
                    </g>
                </g>
            </g>
        </g>
    </g>
</svg>